Blinker-Regular.ufo
<glyph name="exclam" format="1">
  <advance width="220.0"/>
  <unicode hex="0021"/>
  <outline>
    <contour>
      <point x="156.0" y="627.0" type="line"/>
      <point x="63.0" y="627.0" type="line"/>
      <point x="74.0" y="172.0" type="line"/>
      <point x="145.0" y="172.0" type="line"/>
    </contour>
    <contour>
      <point x="153.0" y="0.0" type="line"/>
      <point x="153.0" y="81.0" type="line"/>
      <point x="67.0" y="81.0" type="line"/>
      <point x="67.0" y="0.0" type="line"/>
    </contour>
  </outline>
</glyph>
<glyph name="quotedbl" format="2">
  <advance width="312"/>
  <unicode hex="0022"/>
  <outline>
    <contour>
      <point x="110.0" y="627.0" type="line"/>
      <point x="52.0" y="627.0" type="line"/>
      <point x="52.0" y="399.0" type="line"/>
      <point x="110.0" y="399.0" type="line"/>
    </contour>
    <contour>
      <point x="260.0" y="627.0" type="line"/>
      <point x="202.0" y="627.0" type="line"/>
      <point x="202.0" y="399.0" type="line"/>
      <point x="260.0" y="399.0" type="line"/>
    </contour>
  </outline>
</glyph>
<glyph name="numbersign" format="1">
  <advance width="571.0"/>
  <unicode hex="0023"/>
  <outline>
    <contour>
      <point x="545.0" y="436.0" type="line"/>
      <point x="545.0" y="493.0" type="line"/>
      <point x="461.0" y="493.0" type="line"/>
      <point x="483.0" y="627.0" type="line"/>
      <point x="423.0" y="627.0" type="line"/>
      <point x="401.0" y="493.0" type="line"/>
      <point x="232.0" y="493.0" type="line"/>
      <point x="254.0" y="627.0" type="line"/>
      <point x="194.0" y="627.0" type="line"/>
      <point x="173.0" y="493.0" type="line"/>
      <point x="61.0" y="493.0" type="line"/>
      <point x="61.0" y="436.0" type="line"/>
      <point x="162.0" y="436.0" type="line"/>
      <point x="124.0" y="201.0" type="line"/>
      <point x="26.0" y="201.0" type="line"/>
      <point x="26.0" y="144.0" type="line"/>
      <point x="114.0" y="144.0" type="line"/>
      <point x="90.0" y="0.0" type="line"/>
      <point x="151.0" y="0.0" type="line"/>
      <point x="174.0" y="144.0" type="line"/>
      <point x="343.0" y="144.0" type="line"/>
      <point x="320.0" y="0.0" type="line"/>
      <point x="380.0" y="0.0" type="line"/>
      <point x="404.0" y="144.0" type="line"/>
      <point x="510.0" y="144.0" type="line"/>
      <point x="510.0" y="201.0" type="line"/>
      <point x="413.0" y="201.0" type="line"/>
      <point x="451.0" y="436.0" type="line"/>
    </contour>
    <contour>
      <point x="391.0" y="436.0" type="line"/>
      <point x="353.0" y="201.0" type="line"/>
      <point x="184.0" y="201.0" type="line"/>
      <point x="223.0" y="436.0" type="line"/>
    </contour>
  </outline>
</glyph>
<glyph name="dollar" format="2">
  <advance width="479"/>
  <unicode hex="0024"/>
  <outline>
    <contour>
      <point x="274.0" y="606.0" type="line"/>
      <point x="274.0" y="722.0" type="line"/>
      <point x="202.0" y="722.0" type="line"/>
      <point x="202.0" y="606.0" type="line"/>
    </contour>
    <contour>
      <point x="274.0" y="-95.0" type="line"/>
      <point x="274.0" y="26.0" type="line"/>
      <point x="202.0" y="26.0" type="line"/>
      <point x="202.0" y="-95.0" type="line"/>
    </contour>
    <contour>
      <point x="158.0" y="300.0" type="curve" smooth="yes"/>
      <point x="289.0" y="264.0" type="line" smooth="yes"/>
      <point x="345.0" y="249.0"/>
      <point x="363.0" y="234.0"/>
      <point x="363.0" y="179.0" type="curve"/>
      <point x="363.0" y="108.0"/>
      <point x="340.0" y="72.0"/>
      <point x="237.0" y="72.0" type="curve"/>
      <point x="147.0" y="72.0"/>
      <point x="77.0" y="90.0"/>
      <point x="39.0" y="101.0" type="curve"/>
      <point x="39.0" y="21.0" type="line"/>
      <point x="71.0" y="8.0"/>
      <point x="145.0" y="-8.0"/>
      <point x="237.0" y="-8.0" type="curve"/>
      <point x="413.0" y="-8.0"/>
      <point x="451.0" y="76.0"/>
      <point x="451.0" y="181.0" type="curve"/>
      <point x="451.0" y="294.0"/>
      <point x="407.0" y="316.0"/>
      <point x="318.0" y="341.0" type="curve" smooth="yes"/>
      <point x="187.0" y="377.0" type="line" smooth="yes"/>
      <point x="138.0" y="391.0"/>
      <point x="123.0" y="412.0"/>
      <point x="123.0" y="455.0" type="curve"/>
      <point x="123.0" y="530.0"/>
      <point x="162.0" y="560.0"/>
      <point x="252.0" y="560.0" type="curve" smooth="yes"/>
      <point x="323.0" y="560.0"/>
      <point x="371.0" y="549.0"/>
      <point x="405.0" y="542.0" type="curve"/>
      <point x="405.0" y="619.0" type="line"/>
      <point x="372.0" y="628.0"/>
      <point x="327.0" y="637.0"/>
      <point x="254.0" y="637.0" type="curve" smooth="yes"/>
      <point x="109.0" y="637.0"/>
      <point x="39.0" y="580.0"/>
      <point x="39.0" y="449.0" type="curve"/>
      <point x="39.0" y="355.0"/>
      <point x="84.0" y="320.0"/>
    </contour>
  </outline>
</glyph>
<glyph name="parenleft" format="1">
  <advance width="220.0"/>
  <unicode hex="0028"/>
  <outline>
    <contour>
      <point x="117.0" y="313.0" type="curve"/>
      <point x="117.0" y="434.0"/>
      <point x="134.0" y="583.0"/>
      <point x="188.0" y="689.0" type="curve"/>
      <point x="133.0" y="707.0" type="line"/>
      <point x="68.0" y="594.0"/>
      <point x="44.0" y="450.0"/>
      <point x="44.0" y="313.0" type="curve"/>
      <point x="44.0" y="177.0"/>
      <point x="70.0" y="33.0"/>
      <point x="133.0" y="-80.0" type="curve"/>
      <point x="189.0" y="-62.0" type="line"/>
      <point x="135.0" y="44.0"/>
      <point x="117.0" y="194.0"/>
    </contour>
  </outline>
</glyph>
<glyph name="asterisk" format="2">
  <advance width="375"/>
  <unicode hex="002A"/>
  <outline>
    <contour>
      <point x="180.0" y="441.0" type="line"/>
      <point x="197.0" y="487.0" type="line"/>
      <point x="44.0" y="546.0" type="line"/>
      <point x="24.0" y="489.0" type="line"/>
    </contour>
    <contour>
      <point x="207.0" y="449.0" type="line"/>
      <point x="169.0" y="480.0" type="line"/>
      <point x="66.0" y="352.0" type="line"/>
      <point x="115.0" y="316.0" type="line"/>
    </contour>
    <contour>
      <point x="207.0" y="480.0" type="line"/>
      <point x="168.0" y="450.0" type="line"/>
      <point x="257.0" y="314.0" type="line"/>
      <point x="307.0" y="350.0" type="line"/>
    </contour>
    <contour>
      <point x="178.0" y="488.0" type="line"/>
      <point x="194.0" y="442.0" type="line"/>
      <point x="352.0" y="486.0" type="line"/>
      <point x="333.0" y="544.0" type="line"/>
    </contour>
    <contour>
      <point x="163.0" y="464.0" type="line"/>
      <point x="212.0" y="464.0" type="line"/>
      <point x="218.0" y="627.0" type="line"/>
      <point x="157.0" y="627.0" type="line"/>
    </contour>
  </outline>
</glyph>
<glyph name="plus" format="1">
  <advance width="500.0"/>
  <unicode hex="002B"/>
  <outline>
    <contour>
      <point x="463.0" y="283.0" type="line"/>
      <point x="463.0" y="361.0" type="line"/>
      <point x="37.0" y="361.0" type="line"/>
      <point x="37.0" y="283.0" type="line"/>
    </contour>
    <contour>
      <point x="291.0" y="532.0" type="line"/>
      <point x="211.0" y="532.0" type="line"/>
      <point x="211.0" y="110.0" type="line"/>
      <point x="291.0" y="110.0" type="line"/>
    </contour>
  </outline>
</glyph>
<glyph name="comma" format="1">
  <advance width="168.0"/>
  <unicode hex="002C"/>
  <outline>
    <contour>
      <point x="103.0" y="-69.0" type="curve" smooth="yes"/>
      <point x="128.0" y="86.0" type="line"/>
      <point x="46.0" y="86.0" type="line"/>
      <point x="41.0" y="-100.0" type="line"/>
      <point x="67.0" y="-100.0" type="line" smooth="yes"/>
      <point x="88.0" y="-100.0"/>
      <point x="100.0" y="-89.0"/>
    </contour>
  </outline>
</glyph>
<glyph name="hyphen" format="2">
  <advance width="429"/>
  <unicode hex="002D"/>
  <outline>
    <contour>
      <point x="374.0" y="286.0" type="line"/>
      <point x="374.0" y="350.0" type="line"/>
      <point x="55.0" y="350.0" type="line"/>
      <point x="55.0" y="286.0" type="line"/>
    </contour>
  </outline>
</glyph>
<glyph name="period" format="2">
  <advance width="174"/>
  <unicode hex="002E"/>
  <outline>
    <contour>
      <point x="46.0" y="0.0" type="line"/>
      <point x="128.0" y="0.0" type="line"/>
      <point x="128.0" y="83.0" type="line"/>
      <point x="46.0" y="83.0" type="line"/>
    </contour>
  </outline>
</glyph>
<glyph name="slash" format="2">
  <advance width="309"/>
  <unicode hex="002F"/>
  <outline>
    <contour>
      <point x="87.0" y="-80.0" type="line"/>
      <point x="291.0" y="707.0" type="line"/>
      <point x="223.0" y="707.0" type="line"/>
      <point x="18.0" y="-80.0" type="line"/>
    </contour>
  </outline>
</glyph>
<glyph name="zero" format="2">
  <advance width="571"/>
  <unicode hex="0030"/>
  <guideline x="596" y="341" angle="90.0" identifier="gryzNoak0G"/>
  <guideline x="2972" y="207" angle="90.0" identifier="WHZWt23iwv"/>
  <guideline x="395" y="315" angle="0" identifier="KrlkajWWAZ"/>
  <guideline x="8" y="252" angle="90.0" identifier="JYLyewAT0o"/>
  <outline>
    <contour>
      <point x="286.0" y="560.0" type="curve"/>
      <point x="406.0" y="560.0"/>
      <point x="436.0" y="514.0"/>
      <point x="436.0" y="315.0" type="curve"/>
      <point x="436.0" y="123.0"/>
      <point x="402.0" y="72.0"/>
      <point x="286.0" y="72.0" type="curve"/>
      <point x="165.0" y="72.0"/>
      <point x="135.0" y="118.0"/>
      <point x="135.0" y="315.0" type="curve"/>
      <point x="135.0" y="508.0"/>
      <point x="169.0" y="560.0"/>
    </contour>
    <contour>
      <point x="286.0" y="-8.0" type="curve"/>
      <point x="455.0" y="-8.0"/>
      <point x="522.0" y="67.0"/>
      <point x="522.0" y="315.0" type="curve"/>
      <point x="522.0" y="569.0"/>
      <point x="469.0" y="637.0"/>
      <point x="286.0" y="637.0" type="curve"/>
      <point x="116.0" y="637.0"/>
      <point x="49.0" y="562.0"/>
      <point x="49.0" y="315.0" type="curve"/>
      <point x="49.0" y="60.0"/>
      <point x="102.0" y="-8.0"/>
    </contour>
  </outline>
</glyph>
<glyph name="two" format="2">
  <advance width="452"/>
  <unicode hex="0032"/>
  <outline>
    <contour>
      <point x="413.0" y="0.0" type="line"/>
      <point x="413.0" y="80.0" type="line"/>
      <point x="129.0" y="80.0" type="line"/>
      <point x="324.0" y="297.0" type="line" smooth="yes"/>
      <point x="374.0" y="353.0"/>
      <point x="404.0" y="405.0"/>
      <point x="404.0" y="479.0" type="curve"/>
      <point x="404.0" y="572.0"/>
      <point x="351.0" y="637.0"/>
      <point x="237.0" y="637.0" type="curve"/>
      <point x="171.0" y="637.0"/>
      <point x="108.0" y="628.0"/>
      <point x="59.0" y="614.0" type="curve"/>
      <point x="59.0" y="539.0" type="line"/>
      <point x="83.0" y="547.0"/>
      <point x="166.0" y="560.0"/>
      <point x="224.0" y="560.0" type="curve"/>
      <point x="292.0" y="560.0"/>
      <point x="319.0" y="521.0"/>
      <point x="319.0" y="470.0" type="curve"/>
      <point x="319.0" y="417.0"/>
      <point x="294.0" y="377.0"/>
      <point x="255.0" y="333.0" type="curve" smooth="yes"/>
      <point x="28.0" y="80.0" type="line"/>
      <point x="28.0" y="0.0" type="line"/>
    </contour>
  </outline>
</glyph>
<glyph name="three" format="1">
  <advance width="457.0"/>
  <unicode hex="0033"/>
  <outline>
    <contour>
      <point x="283.0" y="330.0" type="line"/>
      <point x="339.0" y="346.0"/>
      <point x="387.0" y="388.0"/>
      <point x="387.0" y="477.0" type="curve"/>
      <point x="387.0" y="579.0"/>
      <point x="332.0" y="637.0"/>
      <point x="220.0" y="637.0" type="curve"/>
      <point x="152.0" y="637.0"/>
      <point x="91.0" y="626.0"/>
      <point x="53.0" y="614.0" type="curve"/>
      <point x="53.0" y="542.0" type="line"/>
      <point x="72.16273813178205" y="547.0428258241532"/>
      <point x="142.0" y="560.0"/>
      <point x="200.0" y="560.0" type="curve"/>
      <point x="278.0" y="560.0"/>
      <point x="307.0" y="529.0"/>
      <point x="307.0" y="464.0" type="curve"/>
      <point x="307.0" y="390.0"/>
      <point x="256.0" y="358.0"/>
      <point x="187.0" y="358.0" type="curve"/>
      <point x="109.0" y="358.0" type="line"/>
      <point x="109.0" y="284.0" type="line"/>
      <point x="207.0" y="284.0" type="line"/>
      <point x="301.0" y="284.0"/>
      <point x="334.0" y="249.0"/>
      <point x="334.0" y="181.0" type="curve"/>
      <point x="334.0" y="107.0"/>
      <point x="290.0" y="72.0"/>
      <point x="192.0" y="72.0" type="curve"/>
      <point x="117.0" y="72.0"/>
      <point x="77.0" y="78.0"/>
      <point x="34.0" y="88.0" type="curve"/>
      <point x="34.0" y="12.0" type="line"/>
      <point x="69.0" y="0.0"/>
      <point x="121.0" y="-8.0"/>
      <point x="205.0" y="-8.0" type="curve"/>
      <point x="339.0" y="-8.0"/>
      <point x="414.0" y="55.0"/>
      <point x="414.0" y="175.0" type="curve"/>
      <point x="414.0" y="272.0"/>
      <point x="366.0" y="323.0"/>
      <point x="283.0" y="328.0" type="curve"/>
    </contour>
  </outline>
</glyph>
<glyph name="four" format="2">
  <advance width="518"/>
  <unicode hex="0034"/>
  <guideline x="118" y="219" angle="353.74096369487773" identifier="LxBrAXspm8"/>
  <outline>
    <contour>
      <point x="493.0" y="166.0" type="line"/>
      <point x="493.0" y="240.0" type="line"/>
      <point x="407.0" y="240.0" type="line"/>
      <point x="407.0" y="517.0" type="line"/>
      <point x="322.0" y="517.0" type="line"/>
      <point x="322.0" y="240.0" type="line"/>
      <point x="121.0" y="240.0" type="line"/>
      <point x="193.0" y="627.0" type="line"/>
      <point x="111.0" y="627.0" type="line"/>
      <point x="35.0" y="240.0" type="line"/>
      <point x="35.0" y="166.0" type="line"/>
      <point x="322.0" y="166.0" type="line"/>
      <point x="322.0" y="0.0" type="line"/>
      <point x="407.0" y="0.0" type="line"/>
      <point x="407.0" y="166.0" type="line"/>
    </contour>
  </outline>
</glyph>
<glyph name="six" format="2">
  <advance width="514"/>
  <unicode hex="0036"/>
  <outline>
    <contour>
      <point x="47.0" y="297.0" type="curve"/>
      <point x="47.0" y="71.0"/>
      <point x="109.0" y="-8.0"/>
      <point x="268.0" y="-8.0" type="curve"/>
      <point x="402.0" y="-8.0"/>
      <point x="481.0" y="72.0"/>
      <point x="481.0" y="210.0" type="curve"/>
      <point x="481.0" y="345.0"/>
      <point x="424.0" y="402.0"/>
      <point x="311.0" y="402.0" type="curve"/>
      <point x="226.0" y="402.0"/>
      <point x="171.0" y="377.0"/>
      <point x="121.0" y="349.0" type="curve"/>
      <point x="121.0" y="282.0" type="line"/>
      <point x="165.0" y="310.0"/>
      <point x="223.0" y="330.0"/>
      <point x="279.0" y="330.0" type="curve"/>
      <point x="364.0" y="330.0"/>
      <point x="399.0" y="301.0"/>
      <point x="399.0" y="207.0" type="curve"/>
      <point x="399.0" y="118.3138686131387"/>
      <point x="354.0" y="72.0"/>
      <point x="265.0" y="72.0" type="curve"/>
      <point x="166.0" y="72.0"/>
      <point x="131.0" y="123.52727272727273"/>
      <point x="131.0" y="290.0" type="curve"/>
      <point x="131.0" y="492.0"/>
      <point x="171.0" y="560.0"/>
      <point x="322.0" y="560.0" type="curve"/>
      <point x="362.0" y="560.0"/>
      <point x="392.0" y="557.0"/>
      <point x="411.0" y="555.0" type="curve"/>
      <point x="411.0" y="630.0" type="line"/>
      <point x="395.0" y="633.0"/>
      <point x="355.0" y="637.0"/>
      <point x="322.0" y="637.0" type="curve"/>
      <point x="121.0" y="637.0"/>
      <point x="47.0" y="531.0"/>
    </contour>
  </outline>
</glyph>
<glyph name="seven" format="1">
  <advance width="445.0"/>
  <unicode hex="0037"/>
  <outline>
    <contour>
      <point x="421.0" y="550.0" type="line"/>
      <point x="421.0" y="627.0" type="line"/>
      <point x="30.0" y="627.0" type="line"/>
      <point x="30.0" y="550.0" type="line"/>
      <point x="330.0" y="550.0" type="line"/>
      <point x="36.0" y="0.0" type="line"/>
      <point x="131.0" y="0.0" type="line"/>
    </contour>
  </outline>
</glyph>
<glyph name="eight" format="2">
  <advance width="523"/>
  <unicode hex="0038"/>
  <guideline x="255" y="318" angle="0" name="mid" identifier="iEcZG6L5oN"/>
  <outline>
    <contour>
      <point x="260.0" y="-8.0" type="curve"/>
      <point x="411.0" y="-8.0"/>
      <point x="477.0" y="47.0"/>
      <point x="477.0" y="168.0" type="curve"/>
      <point x="477.0" y="251.0"/>
      <point x="435.0" y="309.0"/>
      <point x="351.0" y="322.0" type="curve"/>
      <point x="432.0" y="339.0"/>
      <point x="466.0" y="395.0"/>
      <point x="466.0" y="476.0" type="curve"/>
      <point x="466.0" y="588.0"/>
      <point x="406.0" y="637.0"/>
      <point x="260.0" y="637.0" type="curve"/>
      <point x="120.0" y="637.0"/>
      <point x="58.0" y="584.0"/>
      <point x="58.0" y="473.0" type="curve"/>
      <point x="57.0" y="395.0"/>
      <point x="90.0" y="338.0"/>
      <point x="171.0" y="322.0" type="curve"/>
      <point x="86.0" y="308.0"/>
      <point x="46.0" y="245.0"/>
      <point x="46.0" y="163.0" type="curve"/>
      <point x="46.0" y="43.0"/>
      <point x="109.0" y="-8.0"/>
    </contour>
    <contour>
      <point x="260.0" y="562.0" type="curve"/>
      <point x="352.0" y="562.0"/>
      <point x="390.0" y="531.3877551020408"/>
      <point x="390.0" y="462.0" type="curve"/>
      <point x="390.0" y="396.2072072072072"/>
      <point x="361.0" y="353.0"/>
      <point x="260.0" y="353.0" type="curve"/>
      <point x="161.0" y="353.0"/>
      <point x="134.0" y="396.2"/>
      <point x="134.0" y="461.0" type="curve"/>
      <point x="134.0" y="531.3939393939394"/>
      <point x="170.0" y="562.0"/>
    </contour>
    <contour>
      <point x="260.0" y="285.0" type="curve"/>
      <point x="356.0" y="285.0"/>
      <point x="398.0" y="252.61111111111111"/>
      <point x="398.0" y="179.0" type="curve"/>
      <point x="398.0" y="102.5981308411215"/>
      <point x="357.0" y="70.0"/>
      <point x="260.0" y="70.0" type="curve"/>
      <point x="167.0" y="70.0"/>
      <point x="126.0" y="101.60194174757281"/>
      <point x="126.0" y="175.0" type="curve"/>
      <point x="126.0" y="251.60714285714283"/>
      <point x="167.0" y="285.0"/>
    </contour>
  </outline>
</glyph>
<glyph name="less" format="1">
  <advance width="500.0"/>
  <unicode hex="003C"/>
  <outline>
    <contour>
      <point x="463.0" y="462.0" type="line"/>
      <point x="463.0" y="542.0" type="line"/>
      <point x="37.0" y="358.0" type="line"/>
      <point x="37.0" y="288.0" type="line"/>
    </contour>
    <contour>
      <point x="463.0" y="82.0" type="line"/>
      <point x="463.0" y="164.0" type="line"/>
      <point x="37.0" y="338.0" type="line"/>
      <point x="37.0" y="266.0" type="line"/>
    </contour>
  </outline>
</glyph>
<glyph name="question" format="2">
  <advance width="379"/>
  <unicode hex="003F"/>
  <guideline x="438" y="203" angle="0" identifier="wHOYPjuy6J"/>
  <outline>
    <contour>
      <point x="356.0" y="502.0" type="curve" smooth="yes"/>
      <point x="356.0" y="598.0"/>
      <point x="280.0" y="637.0"/>
      <point x="185.0" y="637.0" type="curve"/>
      <point x="124.0" y="637.0"/>
      <point x="71.78574067748426" y="627.918581457444"/>
      <point x="22.0" y="609.0" type="curve"/>
      <point x="22.0" y="533.0" type="line"/>
      <point x="57.833731319360204" y="546.935339957529"/>
      <point x="118.0" y="560.0"/>
      <point x="173.0" y="560.0" type="curve"/>
      <point x="227.0" y="560.0"/>
      <point x="276.0" y="541.95"/>
      <point x="276.0" y="484.0" type="curve" smooth="yes"/>
      <point x="276.0" y="416.746835443038"/>
      <point x="201.59602185347836" y="369.79545410302705"/>
      <point x="123.0" y="330.0" type="curve"/>
      <point x="123.0" y="173.0" type="line"/>
      <point x="198.0" y="173.0" type="line"/>
      <point x="198.0" y="295.0" type="line"/>
      <point x="282.305751771399" y="343.17471529794227"/>
      <point x="356.0" y="405.6029411764706"/>
    </contour>
    <contour>
      <point x="203.0" y="0.0" type="line"/>
      <point x="203.0" y="81.0" type="line"/>
      <point x="116.0" y="81.0" type="line"/>
      <point x="116.0" y="0.0" type="line"/>
    </contour>
  </outline>
</glyph>
<glyph name="at" format="2">
  <advance width="644"/>
  <unicode hex="0040"/>
  <outline>
    <contour>
      <point x="204.0" y="176.0" type="curve"/>
      <point x="204.0" y="108.0"/>
      <point x="235.0" y="75.0"/>
      <point x="298.0" y="75.0" type="curve"/>
      <point x="352.0" y="75.0"/>
      <point x="404.0" y="96.0"/>
      <point x="430.0" y="133.0" type="curve"/>
      <point x="409.0" y="162.0" type="line"/>
      <point x="395.0" y="146.0"/>
      <point x="358.0" y="130.0"/>
      <point x="316.0" y="130.0" type="curve"/>
      <point x="277.0" y="130.0"/>
      <point x="263.0" y="145.0"/>
      <point x="263.0" y="180.0" type="curve"/>
      <point x="263.0" y="216.0"/>
      <point x="280.0" y="225.0"/>
      <point x="333.0" y="225.0" type="curve"/>
      <point x="373.0" y="225.0"/>
      <point x="394.0" y="221.0"/>
      <point x="412.0" y="218.0" type="curve"/>
      <point x="412.0" y="262.0" type="line"/>
      <point x="396.0" y="266.0"/>
      <point x="360.0" y="271.0"/>
      <point x="325.0" y="271.0" type="curve"/>
      <point x="240.0" y="271.0"/>
      <point x="204.0" y="247.0"/>
    </contour>
    <contour>
      <point x="613.0" y="292.0" type="curve"/>
      <point x="613.0" y="450.0"/>
      <point x="532.0" y="557.0"/>
      <point x="344.0" y="557.0" type="curve"/>
      <point x="148.0" y="557.0"/>
      <point x="42.0" y="456.0"/>
      <point x="42.0" y="236.0" type="curve" smooth="yes"/>
      <point x="42.0" y="8.0"/>
      <point x="159.0" y="-76.0"/>
      <point x="347.0" y="-76.0" type="curve"/>
      <point x="429.0" y="-76.0"/>
      <point x="490.0" y="-59.0"/>
      <point x="531.0" y="-36.0" type="curve"/>
      <point x="531.0" y="26.0" type="line"/>
      <point x="481.0" y="-1.0"/>
      <point x="420.0" y="-13.0"/>
      <point x="362.0" y="-13.0" type="curve"/>
      <point x="201.0" y="-13.0"/>
      <point x="110.0" y="48.0"/>
      <point x="110.0" y="236.0" type="curve" smooth="yes"/>
      <point x="110.0" y="426.0"/>
      <point x="178.0" y="496.0"/>
      <point x="344.0" y="496.0" type="curve"/>
      <point x="506.0" y="496.0"/>
      <point x="550.0" y="395.0"/>
      <point x="550.0" y="285.0" type="curve"/>
      <point x="550.0" y="188.0"/>
      <point x="520.0" y="132.0"/>
      <point x="483.0" y="132.0" type="curve"/>
      <point x="465.0" y="132.0"/>
      <point x="461.0" y="146.0"/>
      <point x="461.0" y="163.0" type="curve" smooth="yes"/>
      <point x="461.0" y="297.0" type="line" smooth="yes"/>
      <point x="461.0" y="361.0"/>
      <point x="437.0" y="409.0"/>
      <point x="346.0" y="409.0" type="curve"/>
      <point x="302.0" y="409.0"/>
      <point x="269.0" y="406.0"/>
      <point x="235.0" y="397.0" type="curve"/>
      <point x="235.0" y="341.0" type="line"/>
      <point x="254.0" y="346.0"/>
      <point x="283.0" y="352.0"/>
      <point x="332.0" y="352.0" type="curve" smooth="yes"/>
      <point x="393.0" y="352.0"/>
      <point x="402.0" y="319.0"/>
      <point x="402.0" y="289.0" type="curve" smooth="yes"/>
      <point x="402.0" y="142.0" type="line"/>
      <point x="409.0" y="142.0" type="line"/>
      <point x="410.0" y="111.0"/>
      <point x="424.0" y="75.0"/>
      <point x="473.0" y="75.0" type="curve"/>
      <point x="563.0" y="75.0"/>
      <point x="613.0" y="163.0"/>
    </contour>
  </outline>
</glyph>
<glyph name="A" format="2">
  <advance width="598"/>
  <unicode hex="0041"/>
  <anchor x="299.0" y="645" name="top"/>
  <anchor x="587.0" y="0" name="ogonek"/>
  <outline>
    <contour>
      <point x="8.0" y="0.0" type="line"/>
      <point x="98.0" y="0.0" type="line"/>
      <point x="247.0" y="397.0" type="line" smooth="yes"/>
      <point x="267.0" y="453.0"/>
      <point x="301.0" y="551.0"/>
      <point x="320.0" y="627.0" type="curve"/>
      <point x="256.0" y="627.0" type="line"/>
    </contour>
    <contour>
      <point x="589.0" y="0.0" type="line"/>
      <point x="344.0" y="627.0" type="line"/>
      <point x="276.0" y="627.0" type="line"/>
      <point x="295.0" y="549.0"/>
      <point x="329.0" y="453.0"/>
      <point x="350.0" y="397.0" type="curve" smooth="yes"/>
      <point x="499.0" y="0.0" type="line"/>
    </contour>
    <contour>
      <point x="123.0" y="151.0" type="line"/>
      <point x="468.0" y="151.0" type="line"/>
      <point x="468.0" y="226.0" type="line"/>
      <point x="123.0" y="226.0" type="line"/>
    </contour>
  </outline>
</glyph>
<glyph name="B" format="1">
  <advance width="560.0"/>
  <unicode hex="0042"/>
  <outline>
    <contour>
      <point x="303.0" y="0.0" type="line" smooth="yes"/>
      <point x="467.0" y="0.0"/>
      <point x="522.0" y="61.0"/>
      <point x="522.0" y="180.0" type="curve"/>
      <point x="522.0" y="282.0"/>
      <point x="471.0" y="324.0"/>
      <point x="400.0" y="333.0" type="curve"/>
      <point x="452.0" y="345.0"/>
      <point x="494.0" y="372.0"/>
      <point x="494.0" y="472.0" type="curve"/>
      <point x="494.0" y="582.0"/>
      <point x="445.0" y="627.0"/>
      <point x="302.0" y="627.0" type="curve" smooth="yes"/>
      <point x="112.0" y="627.0" type="line"/>
      <point x="112.0" y="553.0" type="line"/>
      <point x="303.0" y="553.0" type="line" smooth="yes"/>
      <point x="389.0" y="553.0"/>
      <point x="415.0" y="526.84375"/>
      <point x="415.0" y="460.0" type="curve"/>
      <point x="415.0" y="388.3904761904762"/>
      <point x="384.0" y="357.0"/>
      <point x="303.0" y="357.0" type="curve" smooth="yes"/>
      <point x="112.0" y="357.0" type="line"/>
      <point x="112.0" y="285.0" type="line"/>
      <point x="303.0" y="285.0" type="line" smooth="yes"/>
      <point x="409.0" y="285.0"/>
      <point x="440.0" y="255.47619047619048"/>
      <point x="440.0" y="185.0" type="curve"/>
      <point x="440.0" y="109.08928571428572"/>
      <point x="409.0" y="76.0"/>
      <point x="303.0" y="76.0" type="curve" smooth="yes"/>
      <point x="112.0" y="76.0" type="line"/>
      <point x="112.0" y="0.0" type="line"/>
    </contour>
    <contour>
      <point x="157.0" y="0.0" type="line"/>
      <point x="157.0" y="627.0" type="line"/>
      <point x="72.0" y="627.0" type="line"/>
      <point x="72.0" y="0.0" type="line"/>
    </contour>
  </outline>
</glyph>
<glyph name="C" format="2">
  <advance width="518"/>
  <unicode hex="0043"/>
  <anchor x="312.0" y="655" name="top"/>
  <anchor x="299.0" y="0" name="bottom"/>
  <outline>
    <contour>
      <point x="492.0" y="107.0" type="line"/>
      <point x="442.0" y="86.0"/>
      <point x="377.0" y="72.0"/>
      <point x="321.0" y="72.0" type="curve" smooth="yes"/>
      <point x="187.0" y="72.0"/>
      <point x="131.0" y="117.0"/>
      <point x="131.0" y="315.0" type="curve" smooth="yes"/>
      <point x="131.0" y="508.0"/>
      <point x="193.0" y="560.0"/>
      <point x="331.0" y="560.0" type="curve"/>
      <point x="383.0" y="560.0"/>
      <point x="429.0" y="558.0"/>
      <point x="478.0" y="553.0" type="curve"/>
      <point x="478.0" y="628.0" type="line"/>
      <point x="434.0" y="635.0"/>
      <point x="383.0" y="637.0"/>
      <point x="331.0" y="637.0" type="curve"/>
      <point x="144.0" y="637.0"/>
      <point x="44.0" y="552.0"/>
      <point x="44.0" y="315.0" type="curve" smooth="yes"/>
      <point x="44.0" y="63.0"/>
      <point x="130.0" y="-8.0"/>
      <point x="306.0" y="-8.0" type="curve" smooth="yes"/>
      <point x="389.0" y="-8.0"/>
      <point x="447.0" y="13.0"/>
      <point x="492.0" y="31.0" type="curve"/>
    </contour>
  </outline>
</glyph>
<glyph name="D" format="1">
  <advance width="606.0"/>
  <unicode hex="0044"/>
  <outline>
    <contour>
      <point x="82.0" y="550.0" type="line"/>
      <point x="254.0" y="550.0" type="line" smooth="yes"/>
      <point x="419.0" y="550.0"/>
      <point x="475.0" y="511.0"/>
      <point x="475.0" y="314.0" type="curve"/>
      <point x="475.0" y="131.0"/>
      <point x="407.0" y="80.0"/>
      <point x="254.0" y="80.0" type="curve" smooth="yes"/>
      <point x="84.0" y="80.0" type="line"/>
      <point x="84.0" y="0.0" type="line"/>
      <point x="254.0" y="0.0" type="line" smooth="yes"/>
      <point x="456.0" y="0.0"/>
      <point x="562.0" y="83.0"/>
      <point x="562.0" y="314.0" type="curve"/>
      <point x="562.0" y="572.0"/>
      <point x="472.0" y="627.0"/>
      <point x="254.0" y="627.0" type="curve" smooth="yes"/>
      <point x="82.0" y="627.0" type="line"/>
    </contour>
    <contour>
      <point x="157.0" y="0.0" type="line"/>
      <point x="157.0" y="627.0" type="line"/>
      <point x="72.0" y="627.0" type="line"/>
      <point x="72.0" y="0.0" type="line"/>
    </contour>
    <contour>
      <point x="288.0" y="645" type="move" name="top"/>
    </contour>
  </outline>
</glyph>
<glyph name="E" format="2">
  <advance width="523"/>
  <unicode hex="0045"/>
  <guideline x="311" y="393" angle="90.0" identifier="QeFf4i9LIb"/>
  <anchor x="285.0" y="645" name="top"/>
  <anchor x="435.0" y="0" name="ogonek"/>
  <outline>
    <contour>
      <point x="488.0" y="0.0" type="line"/>
      <point x="488.0" y="80.0" type="line"/>
      <point x="157.0" y="80.0" type="line"/>
      <point x="157.0" y="283.0" type="line"/>
      <point x="442.0" y="283.0" type="line"/>
      <point x="442.0" y="358.0" type="line"/>
      <point x="157.0" y="358.0" type="line"/>
      <point x="157.0" y="550.0" type="line"/>
      <point x="479.0" y="550.0" type="line"/>
      <point x="479.0" y="627.0" type="line"/>
      <point x="72.0" y="627.0" type="line"/>
      <point x="72.0" y="0.0" type="line"/>
    </contour>
  </outline>
</glyph>
<glyph name="F" format="1">
  <advance width="498.0"/>
  <unicode hex="0046"/>
  <outline>
    <contour>
      <point x="157.0" y="0.0" type="line"/>
      <point x="157.0" y="258.0" type="line"/>
      <point x="437.0" y="258.0" type="line"/>
      <point x="437.0" y="333.0" type="line"/>
      <point x="157.0" y="333.0" type="line"/>
      <point x="157.0" y="550.0" type="line"/>
      <point x="474.0" y="550.0" type="line"/>
      <point x="474.0" y="627.0" type="line"/>
      <point x="72.0" y="627.0" type="line"/>
      <point x="72.0" y="0.0" type="line"/>
    </contour>
  </outline>
</glyph>
<glyph name="G" format="2">
  <advance width="596"/>
  <unicode hex="0047"/>
  <anchor x="333.0" y="655" name="top"/>
  <anchor x="326.0" y="0" name="bottom"/>
  <outline>
    <contour>
      <point x="470.0" y="30.0" type="line"/>
      <point x="550.0" y="30.0" type="line"/>
      <point x="550.0" y="308.0" type="line"/>
      <point x="470.0" y="308.0" type="line"/>
    </contour>
    <contour>
      <point x="524.0" y="103.0" type="line"/>
      <point x="493.0" y="87.0"/>
      <point x="393.0" y="69.0"/>
      <point x="329.0" y="69.0" type="curve"/>
      <point x="187.0" y="69.0"/>
      <point x="132.0" y="106.0"/>
      <point x="132.0" y="314.0" type="curve" smooth="yes"/>
      <point x="132.0" y="500.0"/>
      <point x="193.0" y="560.0"/>
      <point x="339.0" y="560.0" type="curve" smooth="yes"/>
      <point x="407.0" y="560.0"/>
      <point x="473.0" y="556.0"/>
      <point x="516.0" y="552.0" type="curve"/>
      <point x="516.0" y="627.0" type="line"/>
      <point x="477.0" y="633.0"/>
      <point x="410.0" y="637.0"/>
      <point x="339.0" y="637.0" type="curve"/>
      <point x="146.0" y="637.0"/>
      <point x="45.0" y="546.0"/>
      <point x="45.0" y="314.0" type="curve" smooth="yes"/>
      <point x="45.0" y="55.0"/>
      <point x="133.0" y="-8.0"/>
      <point x="319.0" y="-8.0" type="curve"/>
      <point x="409.0" y="-8.0"/>
      <point x="520.0" y="16.0"/>
      <point x="550.0" y="30.0" type="curve"/>
    </contour>
    <contour>
      <point x="307.0" y="257.0" type="line"/>
      <point x="550.0" y="257.0" type="line"/>
      <point x="550.0" y="332.0" type="line"/>
      <point x="307.0" y="332.0" type="line"/>
    </contour>
  </outline>
</glyph>
<glyph name="H" format="2">
  <advance width="642"/>
  <unicode hex="0048"/>
  <guideline x="108" y="433" angle="0.0" name="mid" identifier="hECLKRiMVw"/>
  <guideline x="302" y="627" angle="90" name="mid" identifier="qEMuV0cuJ1"/>
  <anchor x="321.0" y="645" name="top"/>
  <outline>
    <contour>
      <point x="72.0" y="0.0" type="line"/>
      <point x="157.0" y="0.0" type="line"/>
      <point x="157.0" y="627.0" type="line"/>
      <point x="72.0" y="627.0" type="line"/>
    </contour>
    <contour>
      <point x="485.0" y="0.0" type="line"/>
      <point x="570.0" y="0.0" type="line"/>
      <point x="570.0" y="627.0" type="line"/>
      <point x="485.0" y="627.0" type="line"/>
    </contour>
    <contour>
      <point x="127.0" y="279.0" type="line"/>
      <point x="530.0" y="279.0" type="line"/>
      <point x="530.0" y="357.0" type="line"/>
      <point x="127.0" y="357.0" type="line"/>
    </contour>
  </outline>
</glyph>
<glyph name="J" format="2">
  <advance width="429"/>
  <unicode hex="004A"/>
  <guideline x="330" y="591" angle="90" name="mid" identifier="Hd6jHzgEPQ"/>
  <anchor x="320.0" y="645" name="top"/>
  <outline>
    <contour>
      <point x="277.0" y="627.0" type="line"/>
      <point x="277.0" y="234.0" type="line" smooth="yes"/>
      <point x="277.0" y="110.0"/>
      <point x="235.0" y="72.0"/>
      <point x="122.0" y="72.0" type="curve"/>
      <point x="71.0" y="72.0"/>
      <point x="40.0" y="78.0"/>
      <point x="17.0" y="83.0" type="curve"/>
      <point x="17.0" y="5.0" type="line"/>
      <point x="39.0" y="-1.0"/>
      <point x="74.0" y="-8.0"/>
      <point x="133.0" y="-8.0" type="curve"/>
      <point x="289.0" y="-8.0"/>
      <point x="362.0" y="58.0"/>
      <point x="362.0" y="229.0" type="curve" smooth="yes"/>
      <point x="362.0" y="627.0" type="line"/>
    </contour>
  </outline>
</glyph>
<glyph name="K" format="1">
  <advance width="579.0"/>
  <unicode hex="004B"/>
  <outline>
    <contour>
      <point x="578.0" y="0.0" type="line"/>
      <point x="312.0" y="321.0" type="line"/>
      <point x="568.0" y="627.0" type="line"/>
      <point x="464.0" y="627.0" type="line"/>
      <point x="239.0" y="356.0" type="line"/>
      <point x="157.0" y="356.0" type="line"/>
      <point x="157.0" y="627.0" type="line"/>
      <point x="72.0" y="627.0" type="line"/>
      <point x="72.0" y="0.0" type="line"/>
      <point x="157.0" y="0.0" type="line"/>
      <point x="157.0" y="281.0" type="line"/>
      <point x="239.0" y="281.0" type="line"/>
      <point x="468.0" y="0.0" type="line"/>
    </contour>
    <contour>
      <point x="283.0" y="0" type="move" name="bottom"/>
    </contour>
  </outline>
</glyph>
<glyph name="L" format="2">
  <advance width="472"/>
  <unicode hex="004C"/>
  <guideline x="91" y="627" angle="90" name="mid" identifier="I61UmqJdsT"/>
  <anchor x="115.0" y="645" name="top"/>
  <anchor x="340.0" y="627" name="caronalt"/>
  <anchor x="274.0" y="0" name="bottom"/>
  <outline>
    <contour>
      <point x="456.0" y="0.0" type="line"/>
      <point x="456.0" y="80.0" type="line"/>
      <point x="157.0" y="80.0" type="line"/>
      <point x="157.0" y="627.0" type="line"/>
      <point x="72.0" y="627.0" type="line"/>
      <point x="72.0" y="0.0" type="line"/>
    </contour>
  </outline>
</glyph>
<glyph name="M" format="1">
  <advance width="735.0"/>
  <unicode hex="004D"/>
  <outline>
    <contour>
      <point x="663.0" y="0.0" type="line"/>
      <point x="663.0" y="627.0" type="line"/>
      <point x="560.0" y="627.0" type="line"/>
      <point x="369.0" y="228.0" type="line"/>
      <point x="179.0" y="627.0" type="line"/>
      <point x="72.0" y="627.0" type="line"/>
      <point x="72.0" y="0.0" type="line"/>
      <point x="152.0" y="0.0" type="line"/>
      <point x="152.0" y="495.0" type="line"/>
      <point x="331.0" y="125.0" type="line"/>
      <point x="404.0" y="125.0" type="line"/>
      <point x="583.0" y="494.0" type="line"/>
      <point x="583.0" y="0.0" type="line"/>
    </contour>
  </outline>
</glyph>
<glyph name="N" format="2">
  <advance width="657"/>
  <unicode hex="004E"/>
  <guideline x="185" y="268" angle="90.0" identifier="LuQOdqHTq7"/>
  <guideline x="412" y="283" angle="90.0" identifier="32M8yUuopj"/>
  <guideline x="40" y="314" angle="0.0" name="mid" identifier="Pm34IetVuy"/>
  <guideline x="318" y="627" angle="90" name="mid" identifier="9ikNgj2z6X"/>
  <anchor x="334.0" y="645" name="top"/>
  <anchor x="330.0" y="0" name="bottom"/>
  <outline>
    <contour>
      <point x="585.0" y="0.0" type="line"/>
      <point x="585.0" y="627.0" type="line"/>
      <point x="505.0" y="627.0" type="line"/>
      <point x="505.0" y="132.0" type="line"/>
      <point x="158.0" y="627.0" type="line"/>
      <point x="72.0" y="627.0" type="line"/>
      <point x="72.0" y="0.0" type="line"/>
      <point x="152.0" y="0.0" type="line"/>
      <point x="152.0" y="488.0" type="line"/>
      <point x="499.0" y="0.0" type="line"/>
    </contour>
  </outline>
</glyph>
<glyph name="O" format="2">
  <advance width="649"/>
  <unicode hex="004F"/>
  <anchor x="325.0" y="655" name="top"/>
  <outline>
    <contour>
      <point x="325.0" y="-8.0" type="curve"/>
      <point x="518.0" y="-8.0"/>
      <point x="604.0" y="82.0"/>
      <point x="604.0" y="315.0" type="curve"/>
      <point x="604.0" y="564.0"/>
      <point x="530.0" y="637.0"/>
      <point x="325.0" y="637.0" type="curve"/>
      <point x="132.0" y="637.0"/>
      <point x="45.0" y="547.0"/>
      <point x="45.0" y="315.0" type="curve"/>
      <point x="45.0" y="65.0"/>
      <point x="119.0" y="-8.0"/>
    </contour>
    <contour>
      <point x="325.0" y="72.0" type="curve" smooth="yes"/>
      <point x="179.0" y="72.0"/>
      <point x="131.0" y="109.0"/>
      <point x="131.0" y="315.0" type="curve"/>
      <point x="131.0" y="511.0"/>
      <point x="187.0" y="560.0"/>
      <point x="325.0" y="560.0" type="curve"/>
      <point x="470.0" y="560.0"/>
      <point x="518.0" y="524.0"/>
      <point x="518.0" y="315.0" type="curve"/>
      <point x="518.0" y="122.0"/>
      <point x="463.0" y="72.0"/>
    </contour>
  </outline>
</glyph>
<glyph name="P" format="2">
  <advance width="563"/>
  <unicode hex="0050"/>
  <outline>
    <contour>
      <point x="288.0" y="203.0" type="line" smooth="yes"/>
      <point x="448.0" y="203.0"/>
      <point x="533.0" y="268.0"/>
      <point x="533.0" y="422.0" type="curve"/>
      <point x="533.0" y="570.0"/>
      <point x="459.0" y="627.0"/>
      <point x="285.0" y="627.0" type="curve" smooth="yes"/>
      <point x="128.0" y="627.0" type="line"/>
      <point x="128.0" y="550.0" type="line"/>
      <point x="285.0" y="550.0" type="line" smooth="yes"/>
      <point x="398.0" y="550.0"/>
      <point x="447.0" y="516.0"/>
      <point x="447.0" y="422.0" type="curve"/>
      <point x="447.0" y="314.0"/>
      <point x="393.0" y="278.0"/>
      <point x="285.0" y="278.0" type="curve" smooth="yes"/>
      <point x="128.0" y="278.0" type="line"/>
      <point x="128.0" y="203.0" type="line"/>
    </contour>
    <contour>
      <point x="157.0" y="0.0" type="line"/>
      <point x="157.0" y="627.0" type="line"/>
      <point x="72.0" y="627.0" type="line"/>
      <point x="72.0" y="0.0" type="line"/>
    </contour>
  </outline>
</glyph>
<glyph name="Q" format="2">
  <advance width="649"/>
  <unicode hex="0051"/>
  <outline>
    <contour>
      <point x="351.0" y="47.0" type="line"/>
      <point x="484.0" y="-128.0" type="line"/>
      <point x="585.0" y="-128.0" type="line"/>
      <point x="448.0" y="47.0" type="line"/>
    </contour>
    <component base="O"/>
  </outline>
</glyph>
<glyph name="R" format="1">
  <advance width="579.0"/>
  <unicode hex="0052"/>
  <outline>
    <contour>
      <point x="288.0" y="225.0" type="line" smooth="yes"/>
      <point x="448.0" y="225.0"/>
      <point x="533.0" y="286.29756097560977"/>
      <point x="533.0" y="431.0" type="curve"/>
      <point x="533.0" y="573.0"/>
      <point x="459.0" y="627.0"/>
      <point x="285.0" y="627.0" type="curve" smooth="yes"/>
      <point x="128.0" y="627.0" type="line"/>
      <point x="128.0" y="550.0" type="line"/>
      <point x="285.0" y="550.0" type="line" smooth="yes"/>
      <point x="398.0" y="550.0"/>
      <point x="447.0" y="519.0"/>
      <point x="447.0" y="431.0" type="curve"/>
      <point x="447.0" y="332.9925925925926"/>
      <point x="393.0" y="300.0"/>
      <point x="285.0" y="300.0" type="curve" smooth="yes"/>
      <point x="128.0" y="300.0" type="line"/>
      <point x="128.0" y="225.0" type="line"/>
    </contour>
    <contour>
      <point x="157.0" y="0.0" type="line"/>
      <point x="157.0" y="627.0" type="line"/>
      <point x="72.0" y="627.0" type="line"/>
      <point x="72.0" y="0.0" type="line"/>
    </contour>
    <contour>
      <point x="284.0" y="243.0" type="line"/>
      <point x="448.0" y="0.0" type="line"/>
      <point x="550.0" y="0.0" type="line"/>
      <point x="380.0" y="243.0" type="line"/>
    </contour>
    <contour>
      <point x="283.0" y="645" type="move" name="top"/>
    </contour>
    <contour>
      <point x="286.0" y="0" type="move" name="bottom"/>
    </contour>
  </outline>
</glyph>
<glyph name="S" format="2">
  <advance width="504"/>
  <unicode hex="0053"/>
  <anchor x="256.0" y="655" name="top"/>
  <anchor x="241.0" y="0" name="bottom"/>
  <outline>
    <contour>
      <point x="162.0" y="299.0" type="curve" smooth="yes"/>
      <point x="314.0" y="263.0" type="line" smooth="yes"/>
      <point x="368.01294169800286" y="250.2074611767888"/>
      <point x="385.0" y="233.3529411764706"/>
      <point x="385.0" y="179.0" type="curve"/>
      <point x="385.0" y="108.0"/>
      <point x="366.0" y="72.0"/>
      <point x="250.0" y="72.0" type="curve"/>
      <point x="156.0" y="72.0"/>
      <point x="83.0" y="89.0"/>
      <point x="43.0" y="101.0" type="curve"/>
      <point x="43.0" y="21.0" type="line"/>
      <point x="77.0" y="8.0"/>
      <point x="154.0" y="-8.0"/>
      <point x="250.0" y="-8.0" type="curve"/>
      <point x="439.0" y="-8.0"/>
      <point x="473.0" y="76.0"/>
      <point x="473.0" y="181.0" type="curve"/>
      <point x="473.0" y="293.70440251572325"/>
      <point x="428.9805315465769" y="319.7860984392267"/>
      <point x="340.0" y="341.0" type="curve" smooth="yes"/>
      <point x="189.0" y="377.0" type="line" smooth="yes"/>
      <point x="141.7619126862827" y="388.2620605516147"/>
      <point x="127.0" y="413.0"/>
      <point x="127.0" y="458.0" type="curve"/>
      <point x="127.0" y="533.0"/>
      <point x="162.0" y="560.0"/>
      <point x="266.0" y="560.0" type="curve" smooth="yes"/>
      <point x="339.0" y="560.0"/>
      <point x="390.0" y="550.0"/>
      <point x="425.0" y="542.0" type="curve"/>
      <point x="425.0" y="619.0" type="line"/>
      <point x="390.0" y="629.0"/>
      <point x="343.0" y="637.0"/>
      <point x="267.0" y="637.0" type="curve" smooth="yes"/>
      <point x="111.0" y="637.0"/>
      <point x="43.0" y="577.0"/>
      <point x="43.0" y="452.0" type="curve"/>
      <point x="43.0" y="355.0"/>
      <point x="87.61651666791488" y="316.61714078917805"/>
    </contour>
  </outline>
</glyph>
<glyph name="T" format="2">
  <advance width="531"/>
  <unicode hex="0054"/>
  <anchor x="266.0" y="645" name="top"/>
  <anchor x="266.0" y="0" name="bottom"/>
  <outline>
    <contour>
      <point x="516.0" y="550.0" type="line"/>
      <point x="516.0" y="627.0" type="line"/>
      <point x="15.0" y="627.0" type="line"/>
      <point x="15.0" y="550.0" type="line"/>
      <point x="223.0" y="550.0" type="line"/>
      <point x="223.0" y="0.0" type="line"/>
      <point x="308.0" y="0.0" type="line"/>
      <point x="308.0" y="550.0" type="line"/>
    </contour>
  </outline>
</glyph>
<glyph name="U" format="2">
  <advance width="633"/>
  <unicode hex="0055"/>
  <guideline x="311" y="627" angle="90" name="mid" identifier="6tDeKIsM98"/>
  <anchor x="314.0" y="645" name="top"/>
  <anchor x="464.0" y="24" name="ogonekalt"/>
  <outline>
    <contour>
      <point x="482.0" y="627.0" type="line"/>
      <point x="482.0" y="250.0" type="line" smooth="yes"/>
      <point x="482.0" y="121.0"/>
      <point x="441.0" y="72.0"/>
      <point x="315.0" y="72.0" type="curve"/>
      <point x="190.0" y="72.0"/>
      <point x="151.0" y="122.0"/>
      <point x="151.0" y="250.0" type="curve" smooth="yes"/>
      <point x="151.0" y="627.0" type="line"/>
      <point x="66.0" y="627.0" type="line"/>
      <point x="66.0" y="250.0" type="line" smooth="yes"/>
      <point x="66.0" y="78.0"/>
      <point x="134.0" y="-8.0"/>
      <point x="315.0" y="-8.0" type="curve"/>
      <point x="492.0" y="-8.0"/>
      <point x="567.0" y="79.0"/>
      <point x="567.0" y="250.0" type="curve" smooth="yes"/>
      <point x="567.0" y="627.0" type="line"/>
    </contour>
  </outline>
</glyph>
<glyph name="V" format="2">
  <advance width="586"/>
  <unicode hex="0056"/>
  <outline>
    <contour>
      <point x="578.0" y="627.0" type="line"/>
      <point x="486.0" y="627.0" type="line"/>
      <point x="343.0" y="230.0" type="line" smooth="yes"/>
      <point x="324.0" y="174.0"/>
      <point x="296.0" y="76.0"/>
      <point x="278.0" y="0.0" type="curve"/>
      <point x="343.0" y="0.0" type="line"/>
    </contour>
    <contour>
      <point x="8.0" y="627.0" type="line"/>
      <point x="243.0" y="0.0" type="line"/>
      <point x="312.0" y="0.0" type="line"/>
      <point x="293.0" y="78.0"/>
      <point x="265.0" y="174.0"/>
      <point x="246.0" y="230.0" type="curve" smooth="yes"/>
      <point x="102.0" y="627.0" type="line"/>
    </contour>
  </outline>
</glyph>
<glyph name="W" format="2">
  <advance width="854"/>
  <unicode hex="0057"/>
  <anchor x="428.0" y="645" name="top"/>
  <outline>
    <contour>
      <point x="449.0" y="627.0" type="curve"/>
      <point x="384.0" y="627.0" type="line"/>
      <point x="270.0" y="230.0" type="line" smooth="yes"/>
      <point x="254.0" y="174.0"/>
      <point x="239.0" y="75.0"/>
      <point x="220.0" y="0.0" type="curve"/>
      <point x="284.0" y="0.0" type="line"/>
      <point x="384.0" y="336.0" type="line" smooth="yes"/>
      <point x="413.58816873498165" y="435.4162469495383"/>
      <point x="429.97691677670747" y="530.8833689770483"/>
    </contour>
    <contour>
      <point x="13.0" y="627.0" type="line"/>
      <point x="187.0" y="0.0" type="line"/>
      <point x="255.0" y="0.0" type="line"/>
      <point x="237.0" y="78.0"/>
      <point x="224.0" y="173.0"/>
      <point x="209.0" y="230.0" type="curve" smooth="yes"/>
      <point x="105.0" y="627.0" type="line"/>
    </contour>
    <contour>
      <point x="841.0" y="627.0" type="line"/>
      <point x="752.0" y="627.0" type="line"/>
      <point x="649.0" y="230.0" type="line" smooth="yes"/>
      <point x="634.0" y="173.0"/>
      <point x="620.0" y="75.0"/>
      <point x="603.0" y="0.0" type="curve"/>
      <point x="667.0" y="0.0" type="line"/>
    </contour>
    <contour>
      <point x="405.0" y="627.0" type="line"/>
      <point x="425.02681225802957" y="530.871301161458"/>
      <point x="440.1403577604815" y="435.3350474502795"/>
      <point x="470.0" y="336.0" type="curve" smooth="yes"/>
      <point x="571.0" y="0.0" type="line"/>
      <point x="638.0" y="0.0" type="line"/>
      <point x="619.0" y="78.0"/>
      <point x="604.0" y="174.0"/>
      <point x="588.0" y="230.0" type="curve" smooth="yes"/>
      <point x="473.0" y="627.0" type="line"/>
    </contour>
  </outline>
</glyph>
<glyph name="X" format="2">
  <advance width="547"/>
  <unicode hex="0058"/>
  <guideline x="278" y="432" angle="90.0" identifier="cH9Y8ODa4Z"/>
  <anchor x="274.0" y="645" name="top"/>
  <outline>
    <contour>
      <point x="547.0" y="0.0" type="line"/>
      <point x="322.0" y="325.0" type="line"/>
      <point x="526.0" y="627.0" type="line"/>
      <point x="434.0" y="627.0" type="line"/>
      <point x="272.0" y="385.0" type="line"/>
      <point x="116.0" y="627.0" type="line"/>
      <point x="13.0" y="627.0" type="line"/>
      <point x="221.0" y="322.0" type="line"/>
      <point x="4.0" y="0.0" type="line"/>
      <point x="98.0" y="0.0" type="line"/>
      <point x="268.0" y="258.0" type="line"/>
      <point x="443.0" y="0.0" type="line"/>
    </contour>
  </outline>
</glyph>
<glyph name="Y" format="2">
  <advance width="575"/>
  <unicode hex="0059"/>
  <guideline x="293" y="451" angle="90.0" identifier="N3fwQDJRaK"/>
  <anchor x="290.0" y="645" name="top"/>
  <outline>
    <contour>
      <point x="564.0" y="627.0" type="line"/>
      <point x="476.0" y="627.0" type="line"/>
      <point x="290.0" y="314.0" type="line"/>
      <point x="103.0" y="627.0" type="line"/>
      <point x="7.0" y="627.0" type="line"/>
      <point x="246.0" y="238.0" type="line"/>
      <point x="246.0" y="0.0" type="line"/>
      <point x="331.0" y="0.0" type="line"/>
      <point x="331.0" y="238.0" type="line"/>
    </contour>
  </outline>
</glyph>
<glyph name="Z" format="1">
  <advance width="508.0"/>
  <unicode hex="005A"/>
  <outline>
    <contour>
      <point x="485.0" y="0.0" type="line"/>
      <point x="485.0" y="80.0" type="line"/>
      <point x="121.0" y="80.0" type="line"/>
      <point x="466.0" y="550.0" type="line"/>
      <point x="466.0" y="627.0" type="line"/>
      <point x="53.0" y="627.0" type="line"/>
      <point x="53.0" y="550.0" type="line"/>
      <point x="370.0" y="550.0" type="line"/>
      <point x="24.0" y="80.0" type="line"/>
      <point x="24.0" y="0.0" type="line"/>
    </contour>
    <contour>
      <point x="261.0" y="645" type="move" name="top"/>
    </contour>
  </outline>
</glyph>
<glyph name="bracketleft" format="2">
  <advance width="263"/>
  <unicode hex="005B"/>
  <outline>
    <contour>
      <point x="238.0" y="-82.0" type="line"/>
      <point x="238.0" y="-20.0" type="line"/>
      <point x="137.0" y="-20.0" type="line"/>
      <point x="137.0" y="646.0" type="line"/>
      <point x="238.0" y="646.0" type="line"/>
      <point x="238.0" y="707.0" type="line"/>
      <point x="70.0" y="707.0" type="line"/>
      <point x="70.0" y="-82.0" type="line"/>
    </contour>
  </outline>
</glyph>
<glyph name="backslash" format="2">
  <advance width="308"/>
  <unicode hex="005C"/>
  <outline>
    <contour>
      <point x="290.0" y="-80.0" type="line"/>
      <point x="86.0" y="707.0" type="line"/>
      <point x="17.0" y="707.0" type="line"/>
      <point x="222.0" y="-80.0" type="line"/>
    </contour>
  </outline>
</glyph>
<glyph name="asciicircum" format="1">
  <advance width="500.0"/>
  <unicode hex="005E"/>
  <outline>
    <contour>
      <point x="338.0" y="365.0" type="line"/>
      <point x="418.0" y="365.0" type="line"/>
      <point x="287.0" y="627.0" type="line"/>
      <point x="215.0" y="627.0" type="line"/>
    </contour>
    <contour>
      <point x="81.0" y="365.0" type="line"/>
      <point x="161.0" y="365.0" type="line"/>
      <point x="284.0" y="627.0" type="line"/>
      <point x="213.0" y="627.0" type="line"/>
    </contour>
  </outline>
</glyph>
<glyph name="grave" format="2">
  <advance width="307"/>
  <unicode hex="0060"/>
  <guideline x="152" y="549" angle="90" name="mid" identifier="FPVLrea1oa"/>
  <anchor x="186.0" y="530.0" name="_top"/>
  <outline>
    <contour>
      <point x="50.0" y="686.0" type="line"/>
      <point x="181.0" y="564.0" type="line"/>
      <point x="257.0" y="564.0" type="line"/>
      <point x="154.0" y="686.0" type="line"/>
    </contour>
  </outline>
</glyph>
<glyph name="a" format="2">
  <advance width="493"/>
  <unicode hex="0061"/>
  <guideline x="219" y="172" angle="90.0" identifier="Gi1JGmfXkE"/>
  <guideline x="280" y="316" angle="0" identifier="2eDd2PM8SK"/>
  <anchor x="246.0" y="530" name="top"/>
  <anchor x="431.0" y="0" name="ogonek"/>
  <outline>
    <contour>
      <point x="31.0" y="144.0" type="curve"/>
      <point x="31.0" y="40.0"/>
      <point x="76.0" y="-8.0"/>
      <point x="178.0" y="-8.0" type="curve"/>
      <point x="250.0" y="-8.0"/>
      <point x="323.26826247878626" y="20.25335900774256"/>
      <point x="359.0" y="54.0" type="curve"/>
      <point x="359.0" y="116.0" type="line"/>
      <point x="332.75455203948627" y="91.77343265183347"/>
      <point x="266.0" y="66.0"/>
      <point x="202.0" y="66.0" type="curve"/>
      <point x="134.0" y="66.0"/>
      <point x="108.0" y="90.52272727272728"/>
      <point x="108.0" y="149.0" type="curve"/>
      <point x="108.0" y="205.92771084337346"/>
      <point x="139.0" y="224.0"/>
      <point x="229.0" y="224.0" type="curve"/>
      <point x="288.0" y="224.0"/>
      <point x="329.0" y="218.0"/>
      <point x="363.0" y="211.0" type="curve"/>
      <point x="363.0" y="276.0" type="line"/>
      <point x="335.0" y="283.0"/>
      <point x="283.0" y="291.0"/>
      <point x="220.0" y="291.0" type="curve"/>
      <point x="84.0" y="291.0"/>
      <point x="31.0" y="252.4758620689655"/>
    </contour>
    <contour>
      <point x="356.0" y="0.0" type="line"/>
      <point x="431.0" y="0.0" type="line"/>
      <point x="431.0" y="334.0" type="line" smooth="yes"/>
      <point x="431.0" y="446.0"/>
      <point x="378.0" y="504.0"/>
      <point x="256.0" y="504.0" type="curve" smooth="yes"/>
      <point x="180.0" y="504.0"/>
      <point x="130.0" y="498.0"/>
      <point x="80.0" y="486.0" type="curve"/>
      <point x="80.0" y="415.0" type="line"/>
      <point x="118.0" y="424.0"/>
      <point x="159.0" y="430.0"/>
      <point x="231.0" y="430.0" type="curve" smooth="yes"/>
      <point x="322.0" y="430.0"/>
      <point x="349.0" y="393.0"/>
      <point x="349.0" y="327.0" type="curve" smooth="yes"/>
      <point x="349.0" y="46.0" type="line"/>
      <point x="352.0" y="46.0" type="line"/>
    </contour>
  </outline>
</glyph>
<glyph name="b" format="2">
  <advance width="540"/>
  <unicode hex="0062"/>
  <outline>
    <contour>
      <point x="65.0" y="18.0" type="line"/>
      <point x="147.0" y="14.0" type="line"/>
      <point x="147.0" y="665.0" type="line"/>
      <point x="65.0" y="665.0" type="line"/>
    </contour>
    <contour>
      <point x="130.0" y="383.0" type="line"/>
      <point x="164.5652851408738" y="409.4322768724329"/>
      <point x="220.0" y="430.0"/>
      <point x="281.0" y="430.0" type="curve"/>
      <point x="376.0" y="430.0"/>
      <point x="416.0" y="397.0"/>
      <point x="416.0" y="250.0" type="curve" smooth="yes"/>
      <point x="416.0" y="102.0"/>
      <point x="373.0" y="68.0"/>
      <point x="258.0" y="68.0" type="curve"/>
      <point x="197.0" y="68.0"/>
      <point x="154.0" y="76.0"/>
      <point x="126.0" y="89.0" type="curve"/>
      <point x="65.0" y="18.0" type="line"/>
      <point x="113.0" y="3.0"/>
      <point x="179.0" y="-8.0"/>
      <point x="263.0" y="-8.0" type="curve"/>
      <point x="424.0" y="-8.0"/>
      <point x="498.0" y="58.0"/>
      <point x="498.0" y="250.0" type="curve" smooth="yes"/>
      <point x="498.0" y="441.0"/>
      <point x="437.0" y="504.0"/>
      <point x="310.0" y="504.0" type="curve"/>
      <point x="237.0" y="504.0"/>
      <point x="171.48110654758938" y="479.62262294370134"/>
      <point x="128.0" y="448.0" type="curve"/>
    </contour>
  </outline>
</glyph>
<glyph name="c" format="2">
  <advance width="439"/>
  <unicode hex="0063"/>
  <anchor x="264.0" y="530" name="top"/>
  <anchor x="246.0" y="0" name="bottom"/>
  <outline>
    <contour>
      <point x="411.0" y="29.0" type="curve"/>
      <point x="411.0" y="98.0" type="line"/>
      <point x="386.875786682781" y="87.94824445115876"/>
      <point x="323.0" y="68.0"/>
      <point x="251.0" y="68.0" type="curve"/>
      <point x="153.0" y="68.0"/>
      <point x="125.0" y="107.21787709497207"/>
      <point x="125.0" y="248.0" type="curve" smooth="yes"/>
      <point x="125.0" y="393.0"/>
      <point x="164.0" y="430.0"/>
      <point x="285.0" y="430.0" type="curve"/>
      <point x="348.0" y="430.0"/>
      <point x="374.0" y="426.0"/>
      <point x="398.0" y="423.0" type="curve"/>
      <point x="398.0" y="496.0" type="line"/>
      <point x="377.0" y="499.0"/>
      <point x="349.0" y="504.0"/>
      <point x="285.0" y="504.0" type="curve"/>
      <point x="113.0" y="504.0"/>
      <point x="43.0" y="438.0"/>
      <point x="43.0" y="248.0" type="curve" smooth="yes"/>
      <point x="43.0" y="59.0"/>
      <point x="92.0" y="-8.0"/>
      <point x="233.0" y="-8.0" type="curve"/>
      <point x="318.0" y="-8.0"/>
      <point x="385.0" y="13.0"/>
    </contour>
  </outline>
</glyph>
<glyph name="d" format="2">
  <advance width="541"/>
  <unicode hex="0064"/>
  <anchor x="545.0" y="665" name="caronalt"/>
  <outline>
    <contour>
      <point x="475.0" y="665.0" type="line"/>
      <point x="393.0" y="665.0" type="line"/>
      <point x="393.0" y="46.0" type="line"/>
      <point x="398.0" y="46.0" type="line"/>
      <point x="404.0" y="0.0" type="line"/>
      <point x="475.0" y="0.0" type="line"/>
    </contour>
    <contour>
      <point x="410.0" y="118.0" type="line"/>
      <point x="374.73182184509415" y="90.79311970907264"/>
      <point x="325.0" y="68.0"/>
      <point x="259.0" y="68.0" type="curve"/>
      <point x="164.0" y="68.0"/>
      <point x="124.0" y="101.0"/>
      <point x="124.0" y="248.0" type="curve" smooth="yes"/>
      <point x="124.0" y="396.0"/>
      <point x="167.0" y="430.0"/>
      <point x="282.0" y="430.0" type="curve"/>
      <point x="347.0" y="430.0"/>
      <point x="381.0" y="417.0"/>
      <point x="409.0" y="402.0" type="curve"/>
      <point x="429.0" y="461.0" type="line"/>
      <point x="400.0" y="486.0"/>
      <point x="344.0" y="504.0"/>
      <point x="272.0" y="504.0" type="curve"/>
      <point x="116.0" y="504.0"/>
      <point x="42.0" y="440.0"/>
      <point x="42.0" y="248.0" type="curve" smooth="yes"/>
      <point x="42.0" y="57.0"/>
      <point x="103.0" y="-8.0"/>
      <point x="230.0" y="-8.0" type="curve"/>
      <point x="308.0" y="-8.0"/>
      <point x="377.6991078685837" y="12.032772987680445"/>
      <point x="421.0" y="76.0" type="curve"/>
    </contour>
  </outline>
</glyph>
<glyph name="e" format="1">
  <advance width="498.0"/>
  <unicode hex="0065"/>
  <outline>
    <contour>
      <point x="260.0" y="430.0" type="curve"/>
      <point x="353.0" y="430.0"/>
      <point x="382.0241901587627" y="391.9438365051702"/>
      <point x="383.0" y="309.0" type="curve"/>
      <point x="383.0" y="301.3"/>
      <point x="382.0" y="293.25"/>
      <point x="382.0" y="288.0" type="curve"/>
      <point x="125.0" y="288.0" type="line"/>
      <point x="125.0" y="390.82758620689657"/>
      <point x="159.0" y="430.0"/>
    </contour>
    <contour>
      <point x="437.0" y="27.0" type="curve"/>
      <point x="437.0" y="96.0" type="line"/>
      <point x="409.0" y="85.0"/>
      <point x="341.0" y="68.0"/>
      <point x="271.0" y="68.0" type="curve" smooth="yes"/>
      <point x="173.0" y="68.0"/>
      <point x="125.98701389475883" y="101.55833262894068"/>
      <point x="125.0" y="220.0" type="curve"/>
      <point x="453.0" y="220.0" type="line"/>
      <point x="456.03841145993187" y="245.32009549943234"/>
      <point x="458.0" y="265.76"/>
      <point x="458.0" y="298.0" type="curve"/>
      <point x="458.0" y="444.0"/>
      <point x="404.0" y="504.0"/>
      <point x="260.0" y="504.0" type="curve"/>
      <point x="110.0" y="504.0"/>
      <point x="42.0" y="430.0"/>
      <point x="42.0" y="250.0" type="curve" smooth="yes"/>
      <point x="42.0" y="63.0"/>
      <point x="107.0" y="-8.0"/>
      <point x="258.0" y="-8.0" type="curve" smooth="yes"/>
      <point x="339.0" y="-8.0"/>
      <point x="410.0" y="12.0"/>
    </contour>
    <contour>
      <point x="261.0" y="530" type="move" name="top"/>
    </contour>
    <contour>
      <point x="399.0" y="13" type="move" name="ogonekalt"/>
    </contour>
  </outline>
</glyph>
<glyph name="f" format="2">
  <advance width="351"/>
  <unicode hex="0066"/>
  <outline>
    <contour>
      <point x="351.0" y="667.0" type="line"/>
      <point x="336.0" y="670.0"/>
      <point x="305.0" y="675.0"/>
      <point x="266.0" y="675.0" type="curve"/>
      <point x="145.0" y="675.0"/>
      <point x="95.0" y="616.0"/>
      <point x="95.0" y="506.0" type="curve"/>
      <point x="95.0" y="0.0" type="line"/>
      <point x="177.0" y="0.0" type="line"/>
      <point x="177.0" y="508.0" type="line"/>
      <point x="177.0" y="577.0"/>
      <point x="199.0" y="603.0"/>
      <point x="278.0" y="603.0" type="curve"/>
      <point x="308.0" y="603.0"/>
      <point x="337.0" y="600.0"/>
      <point x="351.0" y="597.0" type="curve"/>
    </contour>
    <contour>
      <point x="21.0" y="424.0" type="line"/>
      <point x="336.0" y="424.0" type="line"/>
      <point x="336.0" y="494.0" type="line"/>
      <point x="21.0" y="494.0" type="line"/>
    </contour>
  </outline>
</glyph>
<glyph name="g" format="1">
  <advance width="538.0"/>
  <unicode hex="0067"/>
  <outline>
    <contour>
      <point x="102.0" y="-138.0" type="line"/>
      <point x="132.0" y="-150.0"/>
      <point x="189.0" y="-162.0"/>
      <point x="267.0" y="-162.0" type="curve"/>
      <point x="423.0" y="-162.0"/>
      <point x="473.0" y="-97.0"/>
      <point x="473.0" y="71.0" type="curve" smooth="yes"/>
      <point x="473.0" y="485.0" type="line"/>
      <point x="391.0" y="485.0" type="line"/>
      <point x="391.0" y="48.0" type="line" smooth="yes"/>
      <point x="391.0" y="-51.51973013855701"/>
      <point x="358.0" y="-86.0"/>
      <point x="258.0" y="-86.0" type="curve"/>
      <point x="189.0" y="-86.0"/>
      <point x="126.0" y="-74.0"/>
      <point x="102.0" y="-65.0" type="curve"/>
    </contour>
    <contour>
      <point x="409.0" y="156.0" type="line"/>
      <point x="363.718675346159" y="127.82495354872114"/>
      <point x="306.0" y="110.0"/>
      <point x="254.0" y="110.0" type="curve"/>
      <point x="161.0" y="110.0"/>
      <point x="125.0" y="139.0"/>
      <point x="125.0" y="269.0" type="curve" smooth="yes"/>
      <point x="125.0" y="403.0"/>
      <point x="163.0" y="430.0"/>
      <point x="283.0" y="430.0" type="curve"/>
      <point x="342.0" y="430.0"/>
      <point x="390.0" y="421.0"/>
      <point x="415.0" y="413.0" type="curve"/>
      <point x="473.0" y="485.0" type="line"/>
      <point x="437.0" y="493.0"/>
      <point x="358.0" y="504.0"/>
      <point x="283.0" y="504.0" type="curve"/>
      <point x="115.0" y="504.0"/>
      <point x="43.0" y="445.0"/>
      <point x="43.0" y="269.0" type="curve" smooth="yes"/>
      <point x="43.0" y="93.0"/>
      <point x="102.0" y="34.0"/>
      <point x="227.0" y="34.0" type="curve"/>
      <point x="295.25" y="34.0"/>
      <point x="359.06656667677436" y="56.04659667374205"/>
      <point x="409.0" y="91.0" type="curve"/>
    </contour>
    <contour>
      <point x="274" y="530" type="move" name="top"/>
    </contour>
  </outline>
</glyph>
<glyph name="h" format="2">
  <advance width="553"/>
  <unicode hex="0068"/>
  <guideline x="202" y="239" angle="0" identifier="TB17BkDosO"/>
  <anchor x="107.0" y="681" name="top"/>
  <outline>
    <contour>
      <point x="66.0" y="0.0" type="line"/>
      <point x="148.0" y="0.0" type="line"/>
      <point x="148.0" y="665.0" type="line"/>
      <point x="66.0" y="665.0" type="line"/>
    </contour>
    <contour>
      <point x="130.0" y="382.0" type="line"/>
      <point x="173.0" y="407.0"/>
      <point x="237.0" y="430.0"/>
      <point x="300.0" y="430.0" type="curve" smooth="yes"/>
      <point x="376.0" y="430.0"/>
      <point x="409.0" y="399.0"/>
      <point x="409.0" y="332.0" type="curve" smooth="yes"/>
      <point x="409.0" y="0.0" type="line"/>
      <point x="491.0" y="0.0" type="line"/>
      <point x="491.0" y="342.0" type="line" smooth="yes"/>
      <point x="491.0" y="451.0"/>
      <point x="433.0" y="504.0"/>
      <point x="326.0" y="504.0" type="curve" smooth="yes"/>
      <point x="250.0" y="504.0"/>
      <point x="184.0" y="476.0"/>
      <point x="130.0" y="444.0" type="curve"/>
    </contour>
  </outline>
</glyph>
<glyph name="i" format="2">
  <advance width="214"/>
  <unicode hex="0069"/>
  <guideline x="1481" y="844" angle="0" identifier="NIMdyc3qpm"/>
  <guideline x="101" y="247" angle="90.0" name="mid" identifier="uNf9d3efG8"/>
  <anchor x="148.0" y="0" name="ogonek"/>
  <outline>
    <contour>
      <point x="66.0" y="0.0" type="line"/>
      <point x="148.0" y="0.0" type="line"/>
      <point x="148.0" y="494.0" type="line"/>
      <point x="66.0" y="494.0" type="line"/>
    </contour>
    <contour>
      <point x="63.0" y="580.0" type="line"/>
      <point x="151.0" y="580.0" type="line"/>
      <point x="151.0" y="665.0" type="line"/>
      <point x="63.0" y="665.0" type="line"/>
    </contour>
  </outline>
</glyph>
<glyph name="k" format="2">
  <advance width="493"/>
  <unicode hex="006B"/>
  <guideline x="514" y="77" angle="225.0" identifier="MkDZasEzAa"/>
  <anchor x="255.0" y="0.0" name="bottom"/>
  <outline>
    <contour>
      <point x="386.0" y="0.0" type="line"/>
      <point x="489.0" y="0.0" type="line"/>
      <point x="274.0" y="254.0" type="line"/>
      <point x="179.0" y="251.0" type="line"/>
    </contour>
    <contour>
      <point x="380.0" y="494.0" type="line"/>
      <point x="179.0" y="251.0" type="line"/>
      <point x="274.0" y="254.0" type="line"/>
      <point x="479.0" y="494.0" type="line"/>
    </contour>
    <contour>
      <point x="121.0" y="214.0" type="line"/>
      <point x="256.0" y="214.0" type="line"/>
      <point x="256.0" y="285.0" type="line"/>
      <point x="121.0" y="285.0" type="line"/>
    </contour>
    <component base="l"/>
  </outline>
</glyph>
<glyph name="l" format="2">
  <advance width="214"/>
  <unicode hex="006C"/>
  <anchor x="107.0" y="681" name="top"/>
  <anchor x="218.0" y="665" name="caronalt"/>
  <anchor x="107.0" y="0" name="bottom"/>
  <outline>
    <contour>
      <point x="148.0" y="0.0" type="line"/>
      <point x="148.0" y="665.0" type="line"/>
      <point x="66.0" y="665.0" type="line"/>
      <point x="66.0" y="0.0" type="line"/>
    </contour>
  </outline>
</glyph>
<glyph name="m" format="1">
  <advance width="802.0"/>
  <unicode hex="006D"/>
  <outline>
    <contour>
      <point x="66.0" y="0.0" type="line"/>
      <point x="148.0" y="0.0" type="line"/>
      <point x="148.0" y="424.0" type="line"/>
      <point x="141.0" y="494.0" type="line"/>
      <point x="66.0" y="494.0" type="line"/>
    </contour>
    <contour>
      <point x="130.0" y="383.0" type="line"/>
      <point x="167.0" y="404.0"/>
      <point x="216.0" y="430.0"/>
      <point x="266.0" y="430.0" type="curve" smooth="yes"/>
      <point x="333.0" y="430.0"/>
      <point x="362.0" y="403.0"/>
      <point x="362.0" y="346.0" type="curve" smooth="yes"/>
      <point x="362.0" y="0.0" type="line"/>
      <point x="444.0" y="0.0" type="line"/>
      <point x="444.0" y="356.0" type="line" smooth="yes"/>
      <point x="444.0" y="455.0"/>
      <point x="393.0" y="504.0"/>
      <point x="300.0" y="504.0" type="curve" smooth="yes"/>
      <point x="241.0" y="504.0"/>
      <point x="191.0" y="481.0"/>
      <point x="148.0" y="456.0" type="curve"/>
      <point x="130.0" y="456.0" type="line"/>
    </contour>
    <contour>
      <point x="418.0" y="384.0" type="line"/>
      <point x="456.0" y="407.0"/>
      <point x="510.0" y="430.0"/>
      <point x="562.0" y="430.0" type="curve" smooth="yes"/>
      <point x="629.0" y="430.0"/>
      <point x="658.0" y="403.0"/>
      <point x="658.0" y="346.0" type="curve" smooth="yes"/>
      <point x="658.0" y="0.0" type="line"/>
      <point x="740.0" y="0.0" type="line"/>
      <point x="740.0" y="356.0" type="line" smooth="yes"/>
      <point x="740.0" y="455.0"/>
      <point x="690.0" y="504.0"/>
      <point x="596.0" y="504.0" type="curve" smooth="yes"/>
      <point x="526.0" y="504.0"/>
      <point x="466.0" y="480.0"/>
      <point x="422.0" y="452.0" type="curve"/>
      <point x="418.0" y="452.0" type="line"/>
    </contour>
  </outline>
</glyph>
<glyph name="n" format="2">
  <advance width="554"/>
  <unicode hex="006E"/>
  <guideline x="202" y="239" angle="0" identifier="wZtfSR9PMX"/>
  <guideline x="272" y="0" angle="90" name="mid" identifier="LY4zSpwGye"/>
  <anchor x="279.0" y="530" name="top"/>
  <anchor x="-29.0" y="665" name="caronalt"/>
  <anchor x="278.0" y="0" name="bottom"/>
  <outline>
    <contour>
      <point x="66.0" y="0.0" type="line"/>
      <point x="148.0" y="0.0" type="line"/>
      <point x="148.0" y="446.0" type="line"/>
      <point x="141.0" y="446.0" type="line"/>
      <point x="137.0" y="494.0" type="line"/>
      <point x="66.0" y="494.0" type="line"/>
    </contour>
    <contour>
      <point x="131.0" y="374.0" type="line"/>
      <point x="176.0" y="404.0"/>
      <point x="233.0" y="430.0"/>
      <point x="296.0" y="430.0" type="curve" smooth="yes"/>
      <point x="372.0" y="430.0"/>
      <point x="410.0" y="399.0"/>
      <point x="410.0" y="332.0" type="curve" smooth="yes"/>
      <point x="410.0" y="0.0" type="line"/>
      <point x="492.0" y="0.0" type="line"/>
      <point x="492.0" y="342.0" type="line" smooth="yes"/>
      <point x="492.0" y="451.0"/>
      <point x="432.0" y="504.0"/>
      <point x="325.0" y="504.0" type="curve" smooth="yes"/>
      <point x="248.0" y="504.0"/>
      <point x="189.0" y="484.0"/>
      <point x="131.0" y="436.0" type="curve"/>
    </contour>
  </outline>
</glyph>
<glyph name="o" format="2">
  <advance width="543"/>
  <unicode hex="006F"/>
  <guideline x="31" y="220" angle="90.0" identifier="ZCnYnBhEUN"/>
  <guideline x="175" y="255" angle="90.0" identifier="edzWSw8sX3"/>
  <guideline x="359" y="227" angle="90.0" identifier="ndzHBilNCF"/>
  <guideline x="503" y="286" angle="90.0" identifier="xLxgN27Q6M"/>
  <anchor x="272.0" y="530" name="top"/>
  <outline>
    <contour>
      <point x="272.0" y="-8.0" type="curve" smooth="yes"/>
      <point x="439.0" y="-8.0"/>
      <point x="500.0" y="61.0"/>
      <point x="500.0" y="248.0" type="curve" smooth="yes"/>
      <point x="500.0" y="441.0"/>
      <point x="443.0" y="504.0"/>
      <point x="272.0" y="504.0" type="curve" smooth="yes"/>
      <point x="104.0" y="504.0"/>
      <point x="43.0" y="435.0"/>
      <point x="43.0" y="248.0" type="curve" smooth="yes"/>
      <point x="43.0" y="55.0"/>
      <point x="100.0" y="-8.0"/>
    </contour>
    <contour>
      <point x="272.0" y="68.0" type="curve" smooth="yes"/>
      <point x="153.0" y="68.0"/>
      <point x="125.0" y="102.0"/>
      <point x="125.0" y="249.0" type="curve" smooth="yes"/>
      <point x="125.0" y="392.0"/>
      <point x="157.0" y="430.0"/>
      <point x="272.0" y="430.0" type="curve" smooth="yes"/>
      <point x="390.0" y="430.0"/>
      <point x="418.0" y="396.0"/>
      <point x="418.0" y="249.0" type="curve" smooth="yes"/>
      <point x="418.0" y="106.0"/>
      <point x="386.0" y="68.0"/>
    </contour>
  </outline>
</glyph>
<glyph name="p" format="1">
  <advance width="541.0"/>
  <unicode hex="0070"/>
  <outline>
    <contour>
      <point x="66.0" y="-152.0" type="line"/>
      <point x="148.0" y="-152.0" type="line"/>
      <point x="148.0" y="450.0" type="line"/>
      <point x="142.0" y="450.0" type="line"/>
      <point x="137.0" y="494.0" type="line"/>
      <point x="66.0" y="494.0" type="line"/>
    </contour>
    <contour>
      <point x="131.0" y="377.0" type="line"/>
      <point x="166.2641926711115" y="405.2113541368892"/>
      <point x="216.0" y="430.0"/>
      <point x="282.0" y="430.0" type="curve"/>
      <point x="377.0" y="430.0"/>
      <point x="417.0" y="395.0"/>
      <point x="417.0" y="248.0" type="curve" smooth="yes"/>
      <point x="417.0" y="101.0"/>
      <point x="374.0" y="68.0"/>
      <point x="259.0" y="68.0" type="curve"/>
      <point x="195.0" y="68.0"/>
      <point x="160.0" y="81.0"/>
      <point x="132.0" y="96.0" type="curve"/>
      <point x="112.0" y="36.0" type="line"/>
      <point x="141.0" y="7.0"/>
      <point x="196.0" y="-8.0"/>
      <point x="269.0" y="-8.0" type="curve"/>
      <point x="425.0" y="-8.0"/>
      <point x="499.0" y="56.0"/>
      <point x="499.0" y="248.0" type="curve" smooth="yes"/>
      <point x="499.0" y="439.0"/>
      <point x="438.0" y="504.0"/>
      <point x="311.0" y="504.0" type="curve"/>
      <point x="233.0" y="504.0"/>
      <point x="163.67524110360898" y="477.608813147529"/>
      <point x="120.0" y="425.0" type="curve"/>
    </contour>
  </outline>
</glyph>
<glyph name="r" format="2">
  <advance width="353"/>
  <unicode hex="0072"/>
  <anchor x="200.0" y="525" name="top"/>
  <anchor x="106.0" y="0" name="bottom"/>
  <outline>
    <contour>
      <point x="66.0" y="0.0" type="line"/>
      <point x="148.0" y="0.0" type="line"/>
      <point x="148.0" y="424.0" type="line"/>
      <point x="141.0" y="494.0" type="line"/>
      <point x="66.0" y="494.0" type="line"/>
    </contour>
    <contour>
      <point x="130.0" y="376.0" type="line"/>
      <point x="169.0" y="402.0"/>
      <point x="222.0" y="421.0"/>
      <point x="284.0" y="421.0" type="curve"/>
      <point x="301.0" y="421.0"/>
      <point x="321.0" y="421.0"/>
      <point x="334.0" y="418.0" type="curve"/>
      <point x="334.0" y="497.0" type="line"/>
      <point x="328.0" y="498.0"/>
      <point x="319.0" y="498.0"/>
      <point x="304.0" y="498.0" type="curve"/>
      <point x="246.0" y="498.0"/>
      <point x="193.0" y="478.0"/>
      <point x="149.0" y="452.0" type="curve"/>
      <point x="130.0" y="452.0" type="line"/>
    </contour>
  </outline>
</glyph>
<glyph name="s" format="1">
  <advance width="439.0"/>
  <unicode hex="0073"/>
  <outline>
    <contour>
      <point x="123.0" y="354.0" type="curve" smooth="yes"/>
      <point x="123.0" y="407.0"/>
      <point x="138.0" y="430.0"/>
      <point x="236.0" y="430.0" type="curve" smooth="yes"/>
      <point x="295.0" y="430.0"/>
      <point x="342.0" y="426.0"/>
      <point x="372.0" y="421.0" type="curve"/>
      <point x="372.0" y="494.0" type="line"/>
      <point x="347.0" y="498.0"/>
      <point x="310.0" y="504.0"/>
      <point x="231.0" y="504.0" type="curve" smooth="yes"/>
      <point x="81.0" y="504.0"/>
      <point x="41.0" y="441.0"/>
      <point x="41.0" y="354.0" type="curve"/>
      <point x="42.0" y="284.0"/>
      <point x="68.0" y="240.0"/>
      <point x="137.0" y="230.0" type="curve" smooth="yes"/>
      <point x="264.0" y="211.0" type="line" smooth="yes"/>
      <point x="308.0" y="204.0"/>
      <point x="324.0" y="190.0"/>
      <point x="324.0" y="150.0" type="curve" smooth="yes"/>
      <point x="324.0" y="85.0"/>
      <point x="294.0" y="68.0"/>
      <point x="216.0" y="68.0" type="curve" smooth="yes"/>
      <point x="134.0" y="68.0"/>
      <point x="70.0" y="82.0"/>
      <point x="42.0" y="91.0" type="curve"/>
      <point x="42.0" y="14.0" type="line"/>
      <point x="73.0" y="4.0"/>
      <point x="136.0" y="-8.0"/>
      <point x="229.0" y="-8.0" type="curve" smooth="yes"/>
      <point x="342.0" y="-8.0"/>
      <point x="406.0" y="28.0"/>
      <point x="406.0" y="155.0" type="curve" smooth="yes"/>
      <point x="406.0" y="238.0"/>
      <point x="377.0" y="270.0"/>
      <point x="298.0" y="282.0" type="curve" smooth="yes"/>
      <point x="171.0" y="301.0" type="line" smooth="yes"/>
      <point x="138.0" y="306.0"/>
      <point x="123.0" y="321.0"/>
    </contour>
    <contour>
      <point x="224.0" y="530" type="move" name="top"/>
    </contour>
    <contour>
      <point x="214.0" y="0" type="move" name="bottom"/>
    </contour>
  </outline>
</glyph>
<glyph name="t" format="2">
  <advance width="371"/>
  <unicode hex="0074"/>
  <anchor x="245.0" y="720" name="caronalt"/>
  <anchor x="233.0" y="0" name="bottom"/>
  <outline>
    <contour>
      <point x="356.0" y="8.0" type="curve"/>
      <point x="356.0" y="77.0" type="line"/>
      <point x="340.0" y="73.0"/>
      <point x="304.0" y="68.0"/>
      <point x="277.0" y="68.0" type="curve" smooth="yes"/>
      <point x="193.0" y="68.0"/>
      <point x="175.0" y="100.0"/>
      <point x="175.0" y="173.0" type="curve" smooth="yes"/>
      <point x="175.0" y="614.0" type="line"/>
      <point x="107.0" y="614.0" type="line"/>
      <point x="93.0" y="480.0" type="line"/>
      <point x="93.0" y="170.0" type="line" smooth="yes"/>
      <point x="93.0" y="47.0"/>
      <point x="133.0" y="-8.0"/>
      <point x="260.0" y="-8.0" type="curve" smooth="yes"/>
      <point x="299.0" y="-8.0"/>
      <point x="339.0" y="1.0"/>
    </contour>
    <contour>
      <point x="19.0" y="424.0" type="line"/>
      <point x="351.0" y="424.0" type="line"/>
      <point x="351.0" y="494.0" type="line"/>
      <point x="19.0" y="494.0" type="line"/>
    </contour>
  </outline>
</glyph>
<glyph name="u" format="2">
  <advance width="538"/>
  <unicode hex="0075"/>
  <guideline x="277" y="494" angle="90" name="mid" identifier="6E5foy0PSc"/>
  <anchor x="269.0" y="520" name="top"/>
  <anchor x="472.0" y="0" name="ogonek"/>
  <outline>
    <contour>
      <point x="62.0" y="156.0" type="line" smooth="yes"/>
      <point x="62.0" y="46.0"/>
      <point x="118.0" y="-8.0"/>
      <point x="226.0" y="-8.0" type="curve" smooth="yes"/>
      <point x="288.0" y="-8.0"/>
      <point x="342.41514451700436" y="14.044624282002388"/>
      <point x="412.0" y="52.0" type="curve"/>
      <point x="412.0" y="116.0" type="line"/>
      <point x="371.0" y="92.0"/>
      <point x="316.0" y="69.0"/>
      <point x="252.0" y="69.0" type="curve" smooth="yes"/>
      <point x="176.0" y="69.0"/>
      <point x="144.0" y="99.0"/>
      <point x="144.0" y="166.0" type="curve" smooth="yes"/>
      <point x="144.0" y="494.0" type="line"/>
      <point x="62.0" y="494.0" type="line"/>
    </contour>
    <contour>
      <point x="472.0" y="494.0" type="line"/>
      <point x="390.0" y="494.0" type="line"/>
      <point x="390.0" y="41.0" type="line"/>
      <point x="393.0" y="41.0" type="line"/>
      <point x="397.0" y="0.0" type="line"/>
      <point x="472.0" y="0.0" type="line"/>
    </contour>
  </outline>
</glyph>
<glyph name="v" format="2">
  <advance width="494"/>
  <unicode hex="0076"/>
  <guideline x="252" y="494" angle="90.0" name="mid" identifier="YXl2aE4H5p"/>
  <guideline x="115" y="459" angle="202.99727096438093" identifier="bcqsXtAtIx"/>
  <outline>
    <contour>
      <point x="484.0" y="494.0" type="line"/>
      <point x="394.0" y="494.0" type="line"/>
      <point x="248.0" y="75.0" type="line"/>
      <point x="101.0" y="494.0" type="line"/>
      <point x="10.0" y="494.0" type="line"/>
      <point x="200.0" y="0.0" type="line"/>
      <point x="294.0" y="0.0" type="line"/>
    </contour>
  </outline>
</glyph>
<glyph name="w" format="2">
  <advance width="709"/>
  <unicode hex="0077"/>
  <guideline x="688" y="327" angle="343.5558142085112" identifier="oGHWH6wttU"/>
  <anchor x="350.0" y="520" name="top"/>
  <outline>
    <contour>
      <point x="692.0" y="494.0" type="line"/>
      <point x="603.0" y="494.0" type="line"/>
      <point x="506.0" y="77.0" type="line"/>
      <point x="392.0" y="494.0" type="line"/>
      <point x="310.0" y="494.0" type="line"/>
      <point x="203.0" y="77.0" type="line"/>
      <point x="107.0" y="494.0" type="line"/>
      <point x="17.0" y="494.0" type="line"/>
      <point x="154.0" y="0.0" type="line"/>
      <point x="250.0" y="0.0" type="line"/>
      <point x="351.0" y="385.0" type="line"/>
      <point x="459.0" y="0.0" type="line"/>
      <point x="555.0" y="0.0" type="line"/>
    </contour>
  </outline>
</glyph>
<glyph name="x" format="1">
  <advance width="446.0"/>
  <unicode hex="0078"/>
  <outline>
    <contour>
      <point x="436.0" y="0.0" type="line"/>
      <point x="271.0" y="257.0" type="line"/>
      <point x="429.0" y="494.0" type="line"/>
      <point x="342.0" y="494.0" type="line"/>
      <point x="225.0" y="311.0" type="line"/>
      <point x="114.0" y="494.0" type="line"/>
      <point x="17.0" y="494.0" type="line"/>
      <point x="175.0" y="256.0" type="line"/>
      <point x="10.0" y="0.0" type="line"/>
      <point x="96.0" y="0.0" type="line"/>
      <point x="220.0" y="200.0" type="line"/>
      <point x="345.0" y="0.0" type="line"/>
    </contour>
    <contour>
      <point x="227.0" y="520" type="move" name="top"/>
    </contour>
  </outline>
</glyph>
<glyph name="y" format="2">
  <advance width="495"/>
  <unicode hex="0079"/>
  <guideline x="568" y="213" angle="158.99815764366602" identifier="8z3DBKOAcg"/>
  <anchor x="253.0" y="520" name="top"/>
  <outline>
    <contour>
      <point x="210.0" y="7.0" type="line"/>
      <point x="186.0" y="-60.0"/>
      <point x="172.0" y="-88.0"/>
      <point x="111.0" y="-88.0" type="curve"/>
      <point x="90.0" y="-88.0"/>
      <point x="71.0" y="-87.0"/>
      <point x="54.0" y="-83.0" type="curve"/>
      <point x="54.0" y="-155.0" type="line"/>
      <point x="75.0" y="-159.0"/>
      <point x="100.0" y="-162.0"/>
      <point x="126.0" y="-162.0" type="curve"/>
      <point x="215.0" y="-162.0"/>
      <point x="252.0" y="-113.0"/>
      <point x="282.0" y="-33.0" type="curve" smooth="yes"/>
      <point x="484.0" y="494.0" type="line"/>
      <point x="396.0" y="494.0" type="line"/>
      <point x="252.0" y="89.0" type="line"/>
      <point x="100.0" y="494.0" type="line"/>
      <point x="8.0" y="494.0" type="line"/>
    </contour>
  </outline>
</glyph>
<glyph name="z" format="2">
  <advance width="426"/>
  <unicode hex="007A"/>
  <guideline x="281" y="225" angle="148.07391885825038" identifier="99qkUPFTpO"/>
  <anchor x="216.0" y="520" name="top"/>
  <outline>
    <contour>
      <point x="400.0" y="0.0" type="line"/>
      <point x="400.0" y="72.0" type="line"/>
      <point x="122.0" y="72.0" type="line"/>
      <point x="383.0" y="424.0" type="line"/>
      <point x="383.0" y="494.0" type="line"/>
      <point x="47.0" y="494.0" type="line"/>
      <point x="47.0" y="424.0" type="line"/>
      <point x="290.0" y="424.0" type="line"/>
      <point x="29.0" y="72.0" type="line"/>
      <point x="29.0" y="0.0" type="line"/>
    </contour>
  </outline>
</glyph>
<glyph name="asciitilde" format="2">
  <advance width="634"/>
  <unicode hex="007E"/>
  <guideline x="161" y="0" angle="90" name="mid" identifier="dTCCgg3Qmy"/>
  <outline>
    <contour>
      <point x="593.0" y="454.0" type="curve"/>
      <point x="518.0" y="454.0" type="line"/>
      <point x="518.0" y="387.0"/>
      <point x="503.0" y="305.0"/>
      <point x="447.0" y="305.0" type="curve"/>
      <point x="372.0" y="305.0"/>
      <point x="309.0" y="462.0"/>
      <point x="192.0" y="462.0" type="curve"/>
      <point x="75.0" y="462.0"/>
      <point x="41.0" y="339.0"/>
      <point x="41.0" y="232.0" type="curve"/>
      <point x="116.0" y="232.0" type="line"/>
      <point x="116.0" y="296.0"/>
      <point x="128.0" y="382.0"/>
      <point x="193.0" y="382.0" type="curve"/>
      <point x="269.0" y="382.0"/>
      <point x="331.0" y="224.0"/>
      <point x="448.0" y="224.0" type="curve"/>
      <point x="561.0" y="224.0"/>
      <point x="593.0" y="346.0"/>
    </contour>
  </outline>
</glyph>
<glyph name="cent" format="2">
  <advance width="443"/>
  <unicode hex="00A2"/>
  <outline>
    <contour>
      <point x="294.0" y="547.0" type="line"/>
      <point x="294.0" y="663.0" type="line"/>
      <point x="223.0" y="663.0" type="line"/>
      <point x="223.0" y="547.0" type="line"/>
    </contour>
    <contour>
      <point x="294.0" y="-22.0" type="line"/>
      <point x="294.0" y="102.0" type="line"/>
      <point x="223.0" y="102.0" type="line"/>
      <point x="223.0" y="-22.0" type="line"/>
    </contour>
    <component base="c" xOffset="-1" yOffset="74"/>
  </outline>
</glyph>
<glyph name="sterling" format="2">
  <advance width="493"/>
  <unicode hex="00A3"/>
  <outline>
    <contour>
      <point x="461.0" y="0.0" type="line"/>
      <point x="461.0" y="80.0" type="line"/>
      <point x="122.0" y="80.0" type="line"/>
      <point x="122.0" y="83.0" type="line"/>
      <point x="172.0" y="107.0"/>
      <point x="198.0" y="150.0"/>
      <point x="198.0" y="226.0" type="curve"/>
      <point x="198.0" y="443.0" type="line" smooth="yes"/>
      <point x="198.0" y="523.6218487394958"/>
      <point x="233.0" y="560.0"/>
      <point x="314.0" y="560.0" type="curve" smooth="yes"/>
      <point x="363.0" y="560.0"/>
      <point x="406.2189576349622" y="553.9494713150087"/>
      <point x="445.0" y="545.0" type="curve"/>
      <point x="445.0" y="619.0" type="line"/>
      <point x="405.0" y="628.0"/>
      <point x="365.0" y="637.0"/>
      <point x="302.0" y="637.0" type="curve" smooth="yes"/>
      <point x="195.0" y="637.0"/>
      <point x="113.0" y="592.0"/>
      <point x="113.0" y="454.0" type="curve" smooth="yes"/>
      <point x="113.0" y="226.0" type="line"/>
      <point x="113.0" y="162.0"/>
      <point x="89.0" y="111.0"/>
      <point x="35.0" y="81.0" type="curve"/>
      <point x="35.0" y="0.0" type="line"/>
    </contour>
    <contour>
      <point x="35.0" y="338.0" type="line"/>
      <point x="35.0" y="266.0" type="line"/>
      <point x="411.0" y="266.0" type="line"/>
      <point x="411.0" y="338.0" type="line"/>
    </contour>
  </outline>
</glyph>
<glyph name="currency" format="1">
  <advance width="639.0"/>
  <unicode hex="00A4"/>
  <outline>
    <contour>
      <point x="594.0" y="540.0" type="line"/>
      <point x="542.0" y="592.0" type="line"/>
      <point x="457.0" y="506.0" type="line"/>
      <point x="509.0" y="456.0" type="line"/>
    </contour>
    <contour>
      <point x="543.0" y="40.0" type="line"/>
      <point x="595.0" y="92.0" type="line"/>
      <point x="510.0" y="177.0" type="line"/>
      <point x="458.0" y="125.0" type="line"/>
    </contour>
    <contour>
      <point x="43.0" y="91.0" type="line"/>
      <point x="95.0" y="39.0" type="line"/>
      <point x="180.0" y="124.0" type="line"/>
      <point x="128.0" y="176.0" type="line"/>
    </contour>
    <contour>
      <point x="95.0" y="592.0" type="line"/>
      <point x="43.0" y="539.0" type="line"/>
      <point x="128.0" y="455.0" type="line"/>
      <point x="179.0" y="507.0" type="line"/>
    </contour>
    <contour>
      <point x="317.0" y="575.0" type="curve" smooth="yes"/>
      <point x="169.0" y="575.0"/>
      <point x="58.0" y="464.0"/>
      <point x="58.0" y="316.0" type="curve" smooth="yes"/>
      <point x="58.0" y="167.0"/>
      <point x="170.0" y="56.0"/>
      <point x="319.0" y="56.0" type="curve" smooth="yes"/>
      <point x="467.0" y="56.0"/>
      <point x="580.0" y="167.0"/>
      <point x="580.0" y="315.0" type="curve" smooth="yes"/>
      <point x="580.0" y="464.0"/>
      <point x="467.0" y="575.0"/>
    </contour>
    <contour>
      <point x="134.0" y="317.0" type="curve" smooth="yes"/>
      <point x="134.0" y="425.0"/>
      <point x="212.0" y="503.0"/>
      <point x="318.0" y="503.0" type="curve" smooth="yes"/>
      <point x="427.0" y="502.0"/>
      <point x="504.0" y="424.0"/>
      <point x="504.0" y="317.0" type="curve" smooth="yes"/>
      <point x="504.0" y="208.0"/>
      <point x="427.0" y="130.0"/>
      <point x="319.0" y="131.0" type="curve" smooth="yes"/>
      <point x="212.0" y="130.0"/>
      <point x="134.0" y="208.0"/>
    </contour>
  </outline>
</glyph>
<glyph name="yen" format="2">
  <advance width="545"/>
  <unicode hex="00A5"/>
  <guideline x="293" y="451" angle="90.0" identifier="UE6Ne3Eol7"/>
  <outline>
    <contour>
      <point x="61.0" y="293.0" type="line"/>
      <point x="61.0" y="230.0" type="line"/>
      <point x="488.0" y="230.0" type="line"/>
      <point x="488.0" y="293.0" type="line"/>
    </contour>
    <contour>
      <point x="61.0" y="170.0" type="line"/>
      <point x="61.0" y="107.0" type="line"/>
      <point x="488.0" y="107.0" type="line"/>
      <point x="488.0" y="170.0" type="line"/>
    </contour>
    <contour>
      <point x="524.0" y="627.0" type="line"/>
      <point x="435.0" y="627.0" type="line"/>
      <point x="275.0" y="319.0" type="line"/>
      <point x="115.0" y="627.0" type="line"/>
      <point x="18.0" y="627.0" type="line"/>
      <point x="232.0" y="244.0" type="line"/>
      <point x="232.0" y="0.0" type="line"/>
      <point x="316.0" y="0.0" type="line"/>
      <point x="316.0" y="244.0" type="line"/>
    </contour>
  </outline>
</glyph>
<glyph name="brokenbar" format="2">
  <advance width="207"/>
  <unicode hex="00A6"/>
  <outline>
    <contour>
      <point x="137.0" y="380.0" type="line"/>
      <point x="137.0" y="707.0" type="line"/>
      <point x="70.0" y="707.0" type="line"/>
      <point x="70.0" y="380.0" type="line"/>
    </contour>
    <contour>
      <point x="137.0" y="-80.0" type="line"/>
      <point x="137.0" y="247.0" type="line"/>
      <point x="70.0" y="247.0" type="line"/>
      <point x="70.0" y="-80.0" type="line"/>
    </contour>
  </outline>
</glyph>
<glyph name="section" format="1">
  <advance width="467.0"/>
  <unicode hex="00A7"/>
  <outline>
    <contour>
      <point x="115.0" y="459.0" type="line"/>
      <point x="56.54817262823735" y="427.3785196185546"/>
      <point x="28.0" y="375.0"/>
      <point x="28.0" y="324.0" type="curve"/>
      <point x="28.0" y="268.88"/>
      <point x="57.804484524840746" y="239.49630111818067"/>
      <point x="115.0" y="218.0" type="curve" smooth="yes"/>
      <point x="264.0" y="162.0" type="line" smooth="yes"/>
      <point x="307.0" y="146.0"/>
      <point x="326.0" y="133.0"/>
      <point x="326.0" y="106.0" type="curve"/>
      <point x="326.0" y="66.0"/>
      <point x="287.7857142857143" y="53.0"/>
      <point x="219.0" y="53.0" type="curve"/>
      <point x="162.0210846049507" y="51.964019720090015"/>
      <point x="113.20527477395876" y="61.93517638717092"/>
      <point x="75.0" y="74.0" type="curve"/>
      <point x="75.0" y="10.0" type="line"/>
      <point x="109.0" y="0.0"/>
      <point x="157.0" y="-10.0"/>
      <point x="234.0" y="-10.0" type="curve"/>
      <point x="347.6379310344828" y="-10.0"/>
      <point x="403.0" y="33.0"/>
      <point x="403.0" y="107.0" type="curve"/>
      <point x="403.0" y="160.0097087378641"/>
      <point x="379.0232058777686" y="188.61386122049586"/>
      <point x="318.0" y="212.0" type="curve" smooth="yes"/>
      <point x="151.0" y="276.0" type="line" smooth="yes"/>
      <point x="113.3220699163931" y="290.4394462595859"/>
      <point x="99.0" y="303.13846153846157"/>
      <point x="99.0" y="339.0" type="curve"/>
      <point x="99.0" y="373.0"/>
      <point x="126.0" y="407.0"/>
      <point x="165.0" y="429.0" type="curve"/>
    </contour>
    <contour>
      <point x="246.0" y="574.0" type="curve"/>
      <point x="303.3733323793841" y="575.043151497807"/>
      <point x="353.0" y="566.0"/>
      <point x="391.0" y="554.0" type="curve"/>
      <point x="391.0" y="618.0" type="line"/>
      <point x="357.1322236648854" y="627.9611106867984"/>
      <point x="309.0" y="637.0"/>
      <point x="232.0" y="637.0" type="curve"/>
      <point x="119.0" y="637.0"/>
      <point x="64.0" y="592.0"/>
      <point x="64.0" y="520.0" type="curve"/>
      <point x="64.0" y="467.49514563106794"/>
      <point x="87.92304889904645" y="439.0235022183295"/>
      <point x="148.0" y="416.0" type="curve" smooth="yes"/>
      <point x="315.0" y="352.0" type="line" smooth="yes"/>
      <point x="353.62515906365934" y="337.19754383189104"/>
      <point x="368.0" y="324.4307692307692"/>
      <point x="368.0" y="288.0" type="curve"/>
      <point x="368.0" y="254.0"/>
      <point x="341.0" y="220.0"/>
      <point x="302.0" y="198.0" type="curve"/>
      <point x="351.0" y="168.0" type="line"/>
      <point x="409.4790443493434" y="199.63620432013659"/>
      <point x="439.0" y="252.0"/>
      <point x="439.0" y="303.0" type="curve"/>
      <point x="439.0" y="355.52000000000004"/>
      <point x="411.0" y="384.0"/>
      <point x="360.0" y="404.0" type="curve" smooth="yes"/>
      <point x="202.0" y="465.0" type="line" smooth="yes"/>
      <point x="160.0" y="481.0"/>
      <point x="141.0" y="494.0"/>
      <point x="141.0" y="521.0" type="curve"/>
      <point x="141.0" y="561.0"/>
      <point x="178.83783783783784" y="574.0"/>
    </contour>
  </outline>
</glyph>
<glyph name="dieresis" format="2">
  <advance width="360"/>
  <unicode hex="00A8"/>
  <guideline x="148" y="581" angle="90" name="mid" identifier="yoppT1Fh0d"/>
  <anchor x="180.0" y="530.0" name="_top"/>
  <outline>
    <contour>
      <point x="310.0" y="564.0" type="line"/>
      <point x="310.0" y="642.0" type="line"/>
      <point x="228.0" y="642.0" type="line"/>
      <point x="228.0" y="564.0" type="line"/>
    </contour>
    <contour>
      <point x="133.0" y="564.0" type="line"/>
      <point x="133.0" y="642.0" type="line"/>
      <point x="50.0" y="642.0" type="line"/>
      <point x="50.0" y="564.0" type="line"/>
    </contour>
  </outline>
</glyph>
<glyph name="copyright" format="2">
  <advance width="702"/>
  <unicode hex="00A9"/>
  <outline>
    <contour>
      <point x="352.0" y="-10.0" type="curve"/>
      <point x="553.0" y="-10.0"/>
      <point x="660.0" y="103.0"/>
      <point x="660.0" y="314.0" type="curve"/>
      <point x="660.0" y="529.0"/>
      <point x="556.0" y="637.0"/>
      <point x="352.0" y="637.0" type="curve"/>
      <point x="149.0" y="637.0"/>
      <point x="42.0" y="525.0"/>
      <point x="42.0" y="314.0" type="curve"/>
      <point x="42.0" y="99.0"/>
      <point x="147.0" y="-10.0"/>
    </contour>
    <contour>
      <point x="353.0" y="580.0" type="curve"/>
      <point x="520.0" y="580.0"/>
      <point x="600.0" y="492.0"/>
      <point x="600.0" y="314.0" type="curve"/>
      <point x="600.0" y="136.0"/>
      <point x="520.0" y="51.0"/>
      <point x="353.0" y="51.0" type="curve"/>
      <point x="184.0" y="51.0"/>
      <point x="103.0" y="136.0"/>
      <point x="103.0" y="314.0" type="curve"/>
      <point x="103.0" y="492.0"/>
      <point x="184.0" y="580.0"/>
    </contour>
    <contour>
      <point x="466.0" y="221.0" type="line"/>
      <point x="437.0" y="209.0"/>
      <point x="403.0" y="201.0"/>
      <point x="372.0" y="201.0" type="curve"/>
      <point x="297.0" y="201.0"/>
      <point x="265.0" y="228.0"/>
      <point x="265.0" y="316.0" type="curve" smooth="yes"/>
      <point x="265.0" y="403.0"/>
      <point x="299.0" y="431.0"/>
      <point x="370.0" y="431.0" type="curve"/>
      <point x="406.0" y="431.0"/>
      <point x="428.0" y="429.0"/>
      <point x="457.0" y="423.0" type="curve"/>
      <point x="457.0" y="484.0" type="line"/>
      <point x="429.0" y="490.0"/>
      <point x="404.0" y="494.0"/>
      <point x="369.0" y="494.0" type="curve"/>
      <point x="254.0" y="494.0"/>
      <point x="187.0" y="446.0"/>
      <point x="187.0" y="316.0" type="curve" smooth="yes"/>
      <point x="187.0" y="180.0"/>
      <point x="245.0" y="137.0"/>
      <point x="360.0" y="137.0" type="curve"/>
      <point x="408.0" y="137.0"/>
      <point x="445.0" y="148.0"/>
      <point x="466.0" y="158.0" type="curve"/>
    </contour>
  </outline>
</glyph>
<glyph name="guillemotleft" format="2">
  <advance width="482"/>
  <unicode hex="00AB"/>
  <outline>
    <contour>
      <point x="249.0" y="494.0" type="line"/>
      <point x="171.0" y="494.0" type="line"/>
      <point x="22.0" y="281.0" type="line"/>
      <point x="85.0" y="259.0" type="line"/>
    </contour>
    <contour>
      <point x="171.0" y="64.0" type="line"/>
      <point x="249.0" y="64.0" type="line"/>
      <point x="85.0" y="305.0" type="line"/>
      <point x="22.0" y="281.0" type="line"/>
    </contour>
    <contour>
      <point x="455.0" y="494.0" type="line"/>
      <point x="377.0" y="494.0" type="line"/>
      <point x="228.0" y="281.0" type="line"/>
      <point x="292.0" y="259.0" type="line"/>
    </contour>
    <contour>
      <point x="377.0" y="64.0" type="line"/>
      <point x="455.0" y="64.0" type="line"/>
      <point x="292.0" y="305.0" type="line"/>
      <point x="228.0" y="281.0" type="line"/>
    </contour>
  </outline>
</glyph>
<glyph name="registered" format="2">
  <advance width="435"/>
  <unicode hex="00AE"/>
  <outline>
    <contour>
      <point x="218.0" y="270.0" type="curve"/>
      <point x="336.0" y="270.0"/>
      <point x="397.0" y="333.0"/>
      <point x="397.0" y="454.0" type="curve"/>
      <point x="397.0" y="578.0"/>
      <point x="336.0" y="637.0"/>
      <point x="219.0" y="637.0" type="curve"/>
      <point x="100.0" y="637.0"/>
      <point x="38.0" y="574.0"/>
      <point x="38.0" y="454.0" type="curve"/>
      <point x="38.0" y="329.0"/>
      <point x="99.0" y="270.0"/>
    </contour>
    <contour>
      <point x="219.0" y="595.0" type="curve"/>
      <point x="308.0" y="595.0"/>
      <point x="351.0" y="550.0"/>
      <point x="351.0" y="454.0" type="curve"/>
      <point x="351.0" y="359.0"/>
      <point x="308.0" y="315.0"/>
      <point x="219.0" y="315.0" type="curve"/>
      <point x="129.0" y="315.0"/>
      <point x="86.0" y="359.0"/>
      <point x="86.0" y="454.0" type="curve"/>
      <point x="86.0" y="550.0"/>
      <point x="129.0" y="595.0"/>
    </contour>
    <contour>
      <point x="218.0" y="422.0" type="line" smooth="yes"/>
      <point x="260.0" y="422.0"/>
      <point x="301.0" y="434.0"/>
      <point x="301.0" y="489.0" type="curve"/>
      <point x="301.0" y="555.0"/>
      <point x="249.0" y="556.0"/>
      <point x="217.0" y="556.0" type="curve" smooth="yes"/>
      <point x="176.0" y="556.0" type="line"/>
      <point x="176.0" y="517.0" type="line"/>
      <point x="217.0" y="517.0" type="line" smooth="yes"/>
      <point x="230.0" y="517.0"/>
      <point x="257.0" y="517.0"/>
      <point x="257.0" y="489.0" type="curve"/>
      <point x="257.0" y="461.0"/>
      <point x="237.0" y="458.0"/>
      <point x="217.0" y="458.0" type="curve" smooth="yes"/>
      <point x="176.0" y="458.0" type="line"/>
      <point x="176.0" y="422.0" type="line"/>
    </contour>
    <contour>
      <point x="188.0" y="354.0" type="line"/>
      <point x="188.0" y="556.0" type="line"/>
      <point x="145.0" y="556.0" type="line"/>
      <point x="145.0" y="354.0" type="line"/>
    </contour>
    <contour>
      <point x="207.0" y="429.0" type="line"/>
      <point x="252.0" y="354.0" type="line"/>
      <point x="306.0" y="354.0" type="line"/>
      <point x="256.0" y="429.0" type="line"/>
    </contour>
  </outline>
</glyph>
<glyph name="macron" format="2">
  <advance width="345"/>
  <unicode hex="00AF"/>
  <guideline x="177" y="575" angle="90" name="mid" identifier="AH032FwEtD"/>
  <guideline x="173" y="569" angle="90" name="mid" identifier="sOSR9ZsSKu"/>
  <anchor x="173.0" y="530.0" name="_top"/>
  <outline>
    <contour>
      <point x="295.0" y="569.0" type="line"/>
      <point x="295.0" y="633.0" type="line"/>
      <point x="50.0" y="633.0" type="line"/>
      <point x="50.0" y="569.0" type="line"/>
    </contour>
  </outline>
</glyph>
<glyph name="degree" format="2">
  <advance width="338"/>
  <unicode hex="00B0"/>
  <outline>
    <contour>
      <point x="169.0" y="366.0" type="curve" smooth="yes"/>
      <point x="249.0" y="366.0"/>
      <point x="303.0" y="417.0"/>
      <point x="303.0" y="500.0" type="curve" smooth="yes"/>
      <point x="303.0" y="581.0"/>
      <point x="249.0" y="634.0"/>
      <point x="169.0" y="634.0" type="curve" smooth="yes"/>
      <point x="89.0" y="634.0"/>
      <point x="35.0" y="581.0"/>
      <point x="35.0" y="500.0" type="curve" smooth="yes"/>
      <point x="35.0" y="417.0"/>
      <point x="89.0" y="366.0"/>
    </contour>
    <contour>
      <point x="169.0" y="419.0" type="curve" smooth="yes"/>
      <point x="122.0" y="419.0"/>
      <point x="90.0" y="450.0"/>
      <point x="90.0" y="500.0" type="curve" smooth="yes"/>
      <point x="90.0" y="550.0"/>
      <point x="122.0" y="581.0"/>
      <point x="169.0" y="581.0" type="curve" smooth="yes"/>
      <point x="216.0" y="581.0"/>
      <point x="248.0" y="550.0"/>
      <point x="248.0" y="500.0" type="curve" smooth="yes"/>
      <point x="248.0" y="450.0"/>
      <point x="216.0" y="419.0"/>
    </contour>
  </outline>
</glyph>
<glyph name="uni00B2" format="2">
  <advance width="295"/>
  <unicode hex="00B2"/>
  <outline>
    <contour>
      <point x="264.0" y="270.0" type="line"/>
      <point x="264.0" y="330.0" type="line"/>
      <point x="102.0" y="330.0" type="line"/>
      <point x="214.0" y="442.0" type="line" smooth="yes"/>
      <point x="244.0" y="472.0"/>
      <point x="260.0" y="499.0"/>
      <point x="260.0" y="540.0" type="curve"/>
      <point x="260.0" y="594.0"/>
      <point x="227.0" y="633.0"/>
      <point x="156.0" y="633.0" type="curve"/>
      <point x="114.0" y="633.0"/>
      <point x="74.0" y="628.0"/>
      <point x="44.0" y="620.0" type="curve"/>
      <point x="44.0" y="564.0" type="line"/>
      <point x="55.0" y="567.0"/>
      <point x="109.0" y="575.0"/>
      <point x="146.0" y="575.0" type="curve"/>
      <point x="183.0" y="575.0"/>
      <point x="196.0" y="556.0"/>
      <point x="196.0" y="534.0" type="curve"/>
      <point x="196.0" y="509.0"/>
      <point x="183.0" y="489.0"/>
      <point x="162.0" y="467.0" type="curve" smooth="yes"/>
      <point x="25.0" y="330.0" type="line"/>
      <point x="25.0" y="270.0" type="line"/>
    </contour>
  </outline>
</glyph>
<glyph name="uni00B3" format="1">
  <advance width="293.0"/>
  <unicode hex="00B3"/>
  <outline>
    <contour>
      <point x="184.0" y="459.0" type="line"/>
      <point x="219.0" y="467.0"/>
      <point x="246.0" y="495.0"/>
      <point x="246.0" y="542.0" type="curve"/>
      <point x="246.0" y="600.0"/>
      <point x="212.0" y="633.0"/>
      <point x="145.0" y="633.0" type="curve"/>
      <point x="101.0" y="633.0"/>
      <point x="62.0" y="627.0"/>
      <point x="39.0" y="619.0" type="curve"/>
      <point x="39.0" y="568.0" type="line"/>
      <point x="47.0" y="570.0"/>
      <point x="94.0" y="578.0"/>
      <point x="128.0" y="578.0" type="curve"/>
      <point x="172.0" y="578.0"/>
      <point x="188.0" y="562.0"/>
      <point x="188.0" y="531.0" type="curve"/>
      <point x="188.0" y="495.0"/>
      <point x="158.0" y="479.0"/>
      <point x="120.0" y="479.0" type="curve"/>
      <point x="73.0" y="479.0" type="line"/>
      <point x="73.0" y="427.0" type="line"/>
      <point x="134.0" y="427.0" type="line"/>
      <point x="182.0" y="427.0"/>
      <point x="203.0" y="411.0"/>
      <point x="203.0" y="376.0" type="curve"/>
      <point x="203.0" y="339.0"/>
      <point x="180.0" y="322.0"/>
      <point x="123.0" y="322.0" type="curve"/>
      <point x="83.0" y="322.0"/>
      <point x="56.0" y="324.0"/>
      <point x="28.0" y="330.0" type="curve"/>
      <point x="28.0" y="277.0" type="line"/>
      <point x="49.0" y="270.0"/>
      <point x="84.0" y="265.0"/>
      <point x="134.0" y="265.0" type="curve"/>
      <point x="215.0" y="265.0"/>
      <point x="262.0" y="301.0"/>
      <point x="262.0" y="371.0" type="curve"/>
      <point x="262.0" y="424.0"/>
      <point x="235.0" y="454.0"/>
      <point x="184.0" y="457.0" type="curve"/>
    </contour>
  </outline>
</glyph>
<glyph name="paragraph" format="2">
  <advance width="482"/>
  <unicode hex="00B6"/>
  <outline>
    <contour>
      <point x="414.0" y="9.0" type="curve" smooth="yes"/>
      <point x="414.0" y="627.0" type="line"/>
      <point x="390.0" y="631.0"/>
      <point x="344.0" y="639.0"/>
      <point x="270.0" y="639.0" type="curve"/>
      <point x="98.0" y="639.0"/>
      <point x="28.0" y="573.0"/>
      <point x="28.0" y="383.0" type="curve" smooth="yes"/>
      <point x="28.0" y="194.0"/>
      <point x="77.0" y="127.0"/>
      <point x="218.0" y="127.0" type="curve"/>
      <point x="262.0" y="127.0"/>
      <point x="301.0" y="133.0"/>
      <point x="332.0" y="140.0" type="curve"/>
      <point x="332.0" y="9.0" type="line" smooth="yes"/>
      <point x="332.0" y="-59.0"/>
      <point x="307.0" y="-88.0"/>
      <point x="233.0" y="-88.0" type="curve"/>
      <point x="216.0" y="-88.0"/>
      <point x="202.0" y="-86.0"/>
      <point x="185.0" y="-84.0" type="curve"/>
      <point x="185.0" y="-157.0" type="line"/>
      <point x="204.0" y="-160.0"/>
      <point x="222.0" y="-162.0"/>
      <point x="259.0" y="-162.0" type="curve"/>
      <point x="354.0" y="-162.0"/>
      <point x="414.0" y="-103.0"/>
    </contour>
    <contour>
      <point x="110.0" y="383.0" type="curve" smooth="yes"/>
      <point x="110.0" y="525.0"/>
      <point x="149.0" y="560.0"/>
      <point x="270.0" y="560.0" type="curve"/>
      <point x="296.0" y="560.0"/>
      <point x="318.0" y="559.0"/>
      <point x="332.0" y="558.0" type="curve"/>
      <point x="332.0" y="214.0" type="line"/>
      <point x="307.0" y="209.0"/>
      <point x="271.0" y="204.0"/>
      <point x="236.0" y="204.0" type="curve"/>
      <point x="138.0" y="204.0"/>
      <point x="110.0" y="242.0"/>
    </contour>
  </outline>
</glyph>
<glyph name="cedilla" format="1">
  <advance width="325.0"/>
  <unicode hex="00B8"/>
  <outline>
    <contour>
      <point x="278.0" y="-115.0" type="curve"/>
      <point x="278.0" y="-66.0"/>
      <point x="236.0" y="-45.0"/>
      <point x="168.0" y="-47.0" type="curve"/>
      <point x="180.0" y="9.0" type="line"/>
      <point x="116.0" y="15.0" type="line"/>
      <point x="96.0" y="-88.0" type="line"/>
      <point x="116.0" y="-87.0"/>
      <point x="129.0" y="-86.0"/>
      <point x="145.0" y="-86.0" type="curve"/>
      <point x="179.0" y="-86.0"/>
      <point x="205.0" y="-91.0"/>
      <point x="205.0" y="-113.0" type="curve"/>
      <point x="205.0" y="-134.0"/>
      <point x="195.0" y="-143.0"/>
      <point x="153.0" y="-143.0" type="curve" smooth="yes"/>
      <point x="113.0" y="-143.0"/>
      <point x="73.0" y="-137.0"/>
      <point x="60.0" y="-132.0" type="curve"/>
      <point x="60.0" y="-183.0" type="line"/>
      <point x="70.0" y="-187.0"/>
      <point x="111.0" y="-195.0"/>
      <point x="166.0" y="-195.0" type="curve" smooth="yes"/>
      <point x="236.0" y="-195.0"/>
      <point x="278.0" y="-176.0"/>
    </contour>
    <contour>
      <point x="150.0" y="0.0" type="move" name="_bottom"/>
    </contour>
  </outline>
</glyph>
<glyph name="uni00B9" format="2">
  <advance width="243"/>
  <unicode hex="00B9"/>
  <guideline x="485" y="163" angle="90" identifier="HdrPrQYHLe"/>
  <guideline x="3676" y="-115" angle="90" identifier="6zk6KawHOU"/>
  <guideline x="1442" y="222" angle="0" identifier="uCEKtiyIdO"/>
  <guideline x="1551" y="333" angle="90" identifier="kpVlSTZd1p"/>
  <guideline x="987" y="689" angle="90" identifier="hkOAEpXJS9"/>
  <guideline x="2175" y="-145" angle="90" identifier="X0rQX7Y82D"/>
  <guideline x="1093" y="-666" angle="0" identifier="COoca1nIRk"/>
  <guideline x="221" y="1020" angle="0" identifier="eV7Bd5nWPM"/>
  <outline>
    <contour>
      <point x="127.0" y="270.0" type="line"/>
      <point x="191.0" y="270.0" type="line"/>
      <point x="191.0" y="633.0" type="line"/>
      <point x="127.0" y="612.0" type="line"/>
    </contour>
    <contour>
      <point x="17.0" y="558.0" type="line"/>
      <point x="129.0" y="571.0" type="line"/>
      <point x="191.0" y="633.0" type="line"/>
      <point x="17.0" y="612.0" type="line"/>
    </contour>
  </outline>
</glyph>
<glyph name="ordmasculine" format="1">
  <advance width="374.0"/>
  <unicode hex="00BA"/>
  <outline>
    <contour>
      <point x="56.0" y="255.0" type="line"/>
      <point x="317.0" y="255.0" type="line"/>
      <point x="317.0" y="305.0" type="line"/>
      <point x="56.0" y="305.0" type="line"/>
    </contour>
    <contour>
      <point x="188.0" y="350.0" type="curve" smooth="yes"/>
      <point x="282.0" y="350.0"/>
      <point x="324.0" y="396.0"/>
      <point x="324.0" y="493.0" type="curve" smooth="yes"/>
      <point x="324.0" y="594.0"/>
      <point x="284.0" y="637.0"/>
      <point x="188.0" y="637.0" type="curve" smooth="yes"/>
      <point x="92.0" y="637.0"/>
      <point x="51.0" y="591.0"/>
      <point x="51.0" y="493.0" type="curve" smooth="yes"/>
      <point x="51.0" y="393.0"/>
      <point x="90.0" y="350.0"/>
    </contour>
    <contour>
      <point x="188.0" y="402.0" type="curve" smooth="yes"/>
      <point x="127.0" y="402.0"/>
      <point x="108.0" y="426.0"/>
      <point x="108.0" y="494.0" type="curve" smooth="yes"/>
      <point x="108.0" y="560.0"/>
      <point x="129.0" y="586.0"/>
      <point x="188.0" y="586.0" type="curve" smooth="yes"/>
      <point x="248.0" y="586.0"/>
      <point x="267.0" y="562.0"/>
      <point x="267.0" y="494.0" type="curve" smooth="yes"/>
      <point x="267.0" y="428.0"/>
      <point x="246.0" y="402.0"/>
    </contour>
  </outline>
</glyph>
<glyph name="AE" format="1">
  <advance width="740.0"/>
  <unicode hex="00C6"/>
  <outline>
    <contour>
      <point x="8.0" y="0.0" type="line"/>
      <point x="98.0" y="0.0" type="line"/>
      <point x="244.0" y="397.0" type="line" smooth="yes"/>
      <point x="263.0" y="453.0"/>
      <point x="291.0" y="551.0"/>
      <point x="310.0" y="627.0" type="curve"/>
      <point x="246.0" y="627.0" type="line"/>
    </contour>
    <contour>
      <point x="564.0" y="0.0" type="line"/>
      <point x="336.0" y="627.0" type="line"/>
      <point x="266.0" y="627.0" type="line"/>
      <point x="285.0" y="549.0"/>
      <point x="313.0" y="453.0"/>
      <point x="333.0" y="397.0" type="curve" smooth="yes"/>
      <point x="479.0" y="0.0" type="line"/>
    </contour>
    <contour>
      <point x="123.0" y="151.0" type="line"/>
      <point x="449.0" y="151.0" type="line"/>
      <point x="449.0" y="225.0" type="line"/>
      <point x="123.0" y="225.0" type="line"/>
    </contour>
    <contour>
      <point x="321.0" y="550.0" type="line"/>
      <point x="696.0" y="550.0" type="line"/>
      <point x="696.0" y="627.0" type="line"/>
      <point x="321.0" y="627.0" type="line"/>
    </contour>
    <contour>
      <point x="405.0" y="283.0" type="line"/>
      <point x="659.0" y="283.0" type="line"/>
      <point x="659.0" y="358.0" type="line"/>
      <point x="405.0" y="358.0" type="line"/>
    </contour>
    <contour>
      <point x="523.0" y="0.0" type="line"/>
      <point x="705.0" y="0.0" type="line"/>
      <point x="705.0" y="80.0" type="line"/>
      <point x="523.0" y="80.0" type="line"/>
    </contour>
    <contour>
      <point x="455.0" y="645.0" type="move" name="top"/>
    </contour>
  </outline>
</glyph>
<glyph name="Eth" format="2">
  <advance width="624"/>
  <unicode hex="00D0"/>
  <outline>
    <contour>
      <point x="339.0" y="291.0" type="line"/>
      <point x="339.0" y="351.0" type="line"/>
      <point x="20.0" y="351.0" type="line"/>
      <point x="20.0" y="291.0" type="line"/>
    </contour>
    <component base="D" xOffset="18"/>
  </outline>
</glyph>
<glyph name="multiply" format="2">
  <advance width="500"/>
  <unicode hex="00D7"/>
  <outline>
    <contour>
      <point x="459.0" y="476.0" type="line"/>
      <point x="404.0" y="531.0" type="line"/>
      <point x="41.0" y="168.0" type="line"/>
      <point x="96.0" y="113.0" type="line"/>
    </contour>
    <contour>
      <point x="99.0" y="530.0" type="line"/>
      <point x="43.0" y="474.0" type="line"/>
      <point x="404.0" y="113.0" type="line"/>
      <point x="460.0" y="169.0" type="line"/>
    </contour>
  </outline>
</glyph>
<glyph name="Oslash" format="2">
  <advance width="649"/>
  <unicode hex="00D8"/>
  <anchor x="325.0" y="655" name="top"/>
  <outline>
    <contour>
      <point x="51.0" y="-23.0" type="line"/>
      <point x="100.0" y="-55.0" type="line"/>
      <point x="180.0" y="63.0" type="line"/>
      <point x="134.0" y="99.0" type="line"/>
    </contour>
    <contour>
      <point x="505.0" y="539.0" type="line"/>
      <point x="590.0" y="663.0" type="line"/>
      <point x="541.0" y="694.0" type="line"/>
      <point x="460.0" y="576.0" type="line"/>
    </contour>
    <contour>
      <point x="180.0" y="63.0" type="line"/>
      <point x="505.0" y="539.0" type="line"/>
      <point x="460.0" y="576.0" type="line"/>
      <point x="134.0" y="99.0" type="line"/>
    </contour>
    <component base="O"/>
  </outline>
</glyph>
<glyph name="Thorn" format="2">
  <advance width="572"/>
  <unicode hex="00DE"/>
  <outline>
    <contour>
      <point x="288.0" y="105.0" type="line" smooth="yes"/>
      <point x="448.0" y="105.0"/>
      <point x="533.0" y="169.0"/>
      <point x="533.0" y="323.0" type="curve"/>
      <point x="533.0" y="471.0"/>
      <point x="459.0" y="528.0"/>
      <point x="285.0" y="528.0" type="curve" smooth="yes"/>
      <point x="128.0" y="528.0" type="line"/>
      <point x="128.0" y="451.0" type="line"/>
      <point x="285.0" y="451.0" type="line" smooth="yes"/>
      <point x="398.0" y="451.0"/>
      <point x="447.0" y="418.0"/>
      <point x="447.0" y="323.0" type="curve"/>
      <point x="447.0" y="216.74305555555554"/>
      <point x="393.0" y="180.0"/>
      <point x="285.0" y="180.0" type="curve" smooth="yes"/>
      <point x="128.0" y="180.0" type="line"/>
      <point x="128.0" y="105.0" type="line"/>
    </contour>
    <contour>
      <point x="157.0" y="0.0" type="line"/>
      <point x="157.0" y="627.0" type="line"/>
      <point x="72.0" y="627.0" type="line"/>
      <point x="72.0" y="0.0" type="line"/>
    </contour>
  </outline>
</glyph>
<glyph name="germandbls" format="1">
  <advance width="585.0"/>
  <unicode hex="00DF"/>
  <outline>
    <contour>
      <point x="264.0" y="677.0" type="curve"/>
      <point x="123.0" y="677.0"/>
      <point x="66.0" y="616.0"/>
      <point x="66.0" y="490.0" type="curve" smooth="yes"/>
      <point x="66.0" y="0.0" type="line"/>
      <point x="148.0" y="0.0" type="line"/>
      <point x="148.0" y="489.0" type="line" smooth="yes"/>
      <point x="148.0" y="569.0"/>
      <point x="175.0" y="603.0"/>
      <point x="264.0" y="603.0" type="curve"/>
      <point x="332.0" y="603.0"/>
      <point x="369.0" y="581.0"/>
      <point x="369.0" y="523.0" type="curve" smooth="yes"/>
      <point x="369.0" y="500.0"/>
      <point x="363.0" y="479.0"/>
      <point x="356.0" y="453.0" type="curve" smooth="yes"/>
      <point x="315.0" y="287.0" type="line"/>
      <point x="416.0" y="258.0" type="line" smooth="yes"/>
      <point x="453.0" y="247.0"/>
      <point x="469.0" y="230.0"/>
      <point x="469.0" y="175.0" type="curve" smooth="yes"/>
      <point x="469.0" y="87.0"/>
      <point x="432.0" y="66.0"/>
      <point x="364.0" y="66.0" type="curve" smooth="yes"/>
      <point x="313.0" y="66.0"/>
      <point x="281.0" y="72.0"/>
      <point x="258.0" y="78.0" type="curve"/>
      <point x="258.0" y="3.0" type="line"/>
      <point x="286.0" y="-5.0"/>
      <point x="326.0" y="-10.0"/>
      <point x="375.0" y="-10.0" type="curve" smooth="yes"/>
      <point x="476.0" y="-10.0"/>
      <point x="547.0" y="30.0"/>
      <point x="547.0" y="175.0" type="curve" smooth="yes"/>
      <point x="547.0" y="272.0"/>
      <point x="518.0" y="302.0"/>
      <point x="459.0" y="321.0" type="curve" smooth="yes"/>
      <point x="404.0" y="338.0" type="line"/>
      <point x="435.0" y="449.0" type="line" smooth="yes"/>
      <point x="444.0" y="479.0"/>
      <point x="451.0" y="512.0"/>
      <point x="451.0" y="540.0" type="curve" smooth="yes"/>
      <point x="451.0" y="623.0"/>
      <point x="407.0" y="677.0"/>
    </contour>
  </outline>
</glyph>
<glyph name="ae" format="2">
  <advance width="766"/>
  <unicode hex="00E6"/>
  <guideline x="219" y="172" angle="90.0" identifier="Nvvp43UaBR"/>
  <guideline x="451" y="265" angle="0" identifier="Vqta9TenvI"/>
  <guideline x="368" y="246" angle="0" identifier="nL9a2ofFI1"/>
  <anchor x="385.0" y="530" name="top"/>
  <outline>
    <contour>
      <point x="538.0" y="430.0" type="curve" smooth="yes"/>
      <point x="622.0" y="430.0"/>
      <point x="650.0" y="392"/>
      <point x="650.0" y="309.0" type="curve" smooth="yes"/>
      <point x="650.0" y="301"/>
      <point x="650.0442520592221" y="292.2655123553327"/>
      <point x="649.0" y="286.0" type="curve"/>
      <point x="412.0" y="286.0" type="line"/>
      <point x="412.0" y="390.54794520547944"/>
      <point x="445.0" y="430.0"/>
    </contour>
    <contour>
      <point x="704.0" y="27.0" type="curve"/>
      <point x="704.0" y="96.0" type="line"/>
      <point x="678.0" y="85.0"/>
      <point x="614.0" y="68.0"/>
      <point x="549.0" y="68.0" type="curve" smooth="yes"/>
      <point x="457.0" y="68.0"/>
      <point x="412.9934645273448" y="101.77772124596446"/>
      <point x="412.0" y="220.0" type="curve"/>
      <point x="721.0" y="220.0" type="line"/>
      <point x="723.9625677951693" y="244.6880649597444"/>
      <point x="725.0" y="266"/>
      <point x="725.0" y="298.0" type="curve" smooth="yes"/>
      <point x="725.0" y="444.0"/>
      <point x="672.0" y="504.0"/>
      <point x="538.0" y="504.0" type="curve" smooth="yes"/>
      <point x="397.0" y="504.0"/>
      <point x="332.0" y="415.0"/>
      <point x="332.0" y="250.0" type="curve" smooth="yes"/>
      <point x="332.0" y="63.0"/>
      <point x="393.0" y="-8.0"/>
      <point x="535.0" y="-8.0" type="curve" smooth="yes"/>
      <point x="612.0" y="-8.0"/>
      <point x="679.0" y="13.0"/>
    </contour>
    <contour>
      <point x="31.0" y="141.0" type="curve" smooth="yes"/>
      <point x="31" y="41.0"/>
      <point x="76.0" y="-8.0"/>
      <point x="178.0" y="-8.0" type="curve" smooth="yes"/>
      <point x="267.0" y="-8.0"/>
      <point x="336.5152852869924" y="27.490747892373747"/>
      <point x="378.0" y="67.0" type="curve"/>
      <point x="358.0" y="126.0" type="line"/>
      <point x="329.0" y="97.0"/>
      <point x="269.0" y="66.0"/>
      <point x="200.0" y="66.0" type="curve" smooth="yes"/>
      <point x="134.0" y="66"/>
      <point x="109.0" y="89"/>
      <point x="109.0" y="145.0" type="curve" smooth="yes"/>
      <point x="109.0" y="203.0"/>
      <point x="137.0" y="220.0"/>
      <point x="222.0" y="220.0" type="curve" smooth="yes"/>
      <point x="264.0" y="220.0"/>
      <point x="306" y="220.0"/>
      <point x="346.0" y="220.0" type="curve"/>
      <point x="346.0" y="286.0" type="line"/>
      <point x="307" y="286.0"/>
      <point x="264" y="286.0"/>
      <point x="217.0" y="286.0" type="curve" smooth="yes"/>
      <point x="84.0" y="286.0"/>
      <point x="31.0" y="248"/>
    </contour>
    <contour>
      <point x="400.0" y="335.0" type="line"/>
      <point x="400.0" y="446.0"/>
      <point x="358.0" y="504.0"/>
      <point x="249.0" y="504.0" type="curve" smooth="yes"/>
      <point x="176.0" y="504.0"/>
      <point x="129.0" y="498.0"/>
      <point x="80.0" y="486.0" type="curve"/>
      <point x="80.0" y="415.0" type="line"/>
      <point x="116.0" y="424.0"/>
      <point x="156.0" y="430.0"/>
      <point x="224.0" y="430.0" type="curve" smooth="yes"/>
      <point x="307.0" y="430.0"/>
      <point x="332.0" y="392.7238095238095"/>
      <point x="332.0" y="327.0" type="curve" smooth="yes"/>
      <point x="332.0" y="237.0" type="line"/>
    </contour>
  </outline>
</glyph>
<glyph name="oslash" format="1">
  <advance width="544.0"/>
  <unicode hex="00F8"/>
  <outline>
    <contour>
      <point x="45" y="-33" type="line"/>
      <point x="92" y="-66" type="line"/>
      <point x="158" y="29" type="line"/>
      <point x="179" y="63" type="line"/>
      <point x="413" y="403" type="line"/>
      <point x="435" y="431" type="line"/>
      <point x="500" y="525" type="line"/>
      <point x="453" y="558" type="line"/>
      <point x="392" y="470" type="line"/>
      <point x="376" y="444" type="line"/>
      <point x="135" y="94" type="line"/>
      <point x="105" y="55" type="line"/>
    </contour>
    <contour>
      <point x="272" y="-8" type="curve" smooth="yes"/>
      <point x="439" y="-8"/>
      <point x="500" y="61"/>
      <point x="500" y="248" type="curve" smooth="yes"/>
      <point x="500" y="441"/>
      <point x="443" y="504"/>
      <point x="272" y="504" type="curve" smooth="yes"/>
      <point x="104" y="504"/>
      <point x="43" y="435"/>
      <point x="43" y="248" type="curve" smooth="yes"/>
      <point x="43" y="55"/>
      <point x="100" y="-8"/>
    </contour>
    <contour>
      <point x="272" y="68" type="curve" smooth="yes"/>
      <point x="153" y="68"/>
      <point x="125" y="102"/>
      <point x="125" y="249" type="curve" smooth="yes"/>
      <point x="125" y="392"/>
      <point x="157" y="430"/>
      <point x="272" y="430" type="curve" smooth="yes"/>
      <point x="390" y="430"/>
      <point x="418" y="396"/>
      <point x="418" y="249" type="curve" smooth="yes"/>
      <point x="418" y="106"/>
      <point x="386" y="68"/>
    </contour>
    <contour>
      <point x="272.0" y="530" type="move" name="top"/>
    </contour>
  </outline>
</glyph>
<glyph name="thorn" format="2">
  <advance width="541"/>
  <unicode hex="00FE"/>
  <guideline x="303" y="247" angle="0" identifier="E1fmPd1bS3"/>
  <outline>
    <contour>
      <point x="66.0" y="-152.0" type="line"/>
      <point x="148.0" y="-152.0" type="line"/>
      <point x="148.0" y="665.0" type="line"/>
      <point x="66.0" y="665.0" type="line"/>
    </contour>
    <contour>
      <point x="131.0" y="380.0" type="line"/>
      <point x="166.26817815490583" y="407.20688029092736"/>
      <point x="216.0" y="430.0"/>
      <point x="282.0" y="430.0" type="curve"/>
      <point x="377.0" y="430.0"/>
      <point x="417.0" y="395.0"/>
      <point x="417.0" y="248.0" type="curve" smooth="yes"/>
      <point x="417.0" y="101.0"/>
      <point x="374.0" y="68.0"/>
      <point x="259.0" y="68.0" type="curve"/>
      <point x="195.0" y="68.0"/>
      <point x="160.0" y="81.0"/>
      <point x="132.0" y="96.0" type="curve"/>
      <point x="112.0" y="36.0" type="line"/>
      <point x="141.0" y="7.0"/>
      <point x="196.0" y="-8.0"/>
      <point x="269.0" y="-8.0" type="curve"/>
      <point x="425.0" y="-8.0"/>
      <point x="499.0" y="56.0"/>
      <point x="499.0" y="248.0" type="curve" smooth="yes"/>
      <point x="499.0" y="439.0"/>
      <point x="438.0" y="504.0"/>
      <point x="311.0" y="504.0" type="curve"/>
      <point x="233.0" y="504.0"/>
      <point x="161.66642719059965" y="480.58700509312337"/>
      <point x="120.0" y="429.0" type="curve"/>
    </contour>
  </outline>
</glyph>
<glyph name="dcroat" format="2">
  <advance width="542"/>
  <unicode hex="0111"/>
  <outline>
    <contour>
      <point x="546.0" y="565.0" type="line"/>
      <point x="546.0" y="614.0" type="line"/>
      <point x="217.0" y="614.0" type="line"/>
      <point x="217.0" y="565.0" type="line"/>
    </contour>
    <contour>
      <point x="476.0" y="665.0" type="line"/>
      <point x="394.0" y="665.0" type="line"/>
      <point x="394.0" y="48.0" type="line"/>
      <point x="398.0" y="48.0" type="line"/>
      <point x="404.0" y="0.0" type="line"/>
      <point x="476.0" y="0.0" type="line"/>
    </contour>
    <contour>
      <point x="410.0" y="118.0" type="line"/>
      <point x="374.73182184509415" y="90.79311970907264"/>
      <point x="325.0" y="68.0"/>
      <point x="259.0" y="68.0" type="curve"/>
      <point x="164.0" y="68.0"/>
      <point x="124.0" y="100.08333333333334"/>
      <point x="124.0" y="243.0" type="curve" smooth="yes"/>
      <point x="124.0" y="386.9340659340659"/>
      <point x="167.0" y="420.0"/>
      <point x="282.0" y="420.0" type="curve"/>
      <point x="347.0" y="420.0"/>
      <point x="381.0" y="407.0"/>
      <point x="409.0" y="392.0" type="curve"/>
      <point x="429.0" y="451.0" type="line"/>
      <point x="400.0" y="480.0"/>
      <point x="346.0" y="494.0"/>
      <point x="272.0" y="494.0" type="curve"/>
      <point x="116.0" y="494.0"/>
      <point x="42.0" y="431.25"/>
      <point x="42.0" y="243.0" type="curve" smooth="yes"/>
      <point x="42.0" y="55.73046875"/>
      <point x="103.00000000000001" y="-8.0"/>
      <point x="230.0" y="-8.0" type="curve"/>
      <point x="308.0" y="-8.0"/>
      <point x="377.0" y="13.0"/>
      <point x="421.0" y="78.0" type="curve"/>
    </contour>
  </outline>
</glyph>
<glyph name="Hbar" format="1">
  <advance width="678.0"/>
  <unicode hex="0126"/>
  <outline>
    <contour>
      <point x="652.0" y="468.0" type="line"/>
      <point x="652.0" y="525.0" type="line"/>
      <point x="26.0" y="525.0" type="line"/>
      <point x="26.0" y="468.0" type="line"/>
    </contour>
    <component base="H" xOffset="18.0"/>
  </outline>
</glyph>
<glyph name="hbar" format="1">
  <advance width="553.0"/>
  <unicode hex="0127"/>
  <outline>
    <contour>
      <point x="325.0" y="565.0" type="line"/>
      <point x="325.0" y="614.0" type="line"/>
      <point x="-4.0" y="614.0" type="line"/>
      <point x="-4.0" y="565.0" type="line"/>
    </contour>
    <contour>
      <point x="66.0" y="0.0" type="line"/>
      <point x="148.0" y="0.0" type="line"/>
      <point x="148.0" y="665.0" type="line"/>
      <point x="66.0" y="665.0" type="line"/>
    </contour>
    <contour>
      <point x="130.0" y="382.0" type="line"/>
      <point x="173.0" y="407.0"/>
      <point x="237.0" y="430.0"/>
      <point x="300.0" y="430.0" type="curve" smooth="yes"/>
      <point x="376.0" y="430.0"/>
      <point x="409.0" y="399.0"/>
      <point x="409.0" y="332.0" type="curve" smooth="yes"/>
      <point x="409.0" y="0.0" type="line"/>
      <point x="491.0" y="0.0" type="line"/>
      <point x="491.0" y="342.0" type="line" smooth="yes"/>
      <point x="491.0" y="451.0"/>
      <point x="433.0" y="504.0"/>
      <point x="326.0" y="504.0" type="curve" smooth="yes"/>
      <point x="250.0" y="504.0"/>
      <point x="184.0" y="476.0"/>
      <point x="130.0" y="444.0" type="curve"/>
    </contour>
  </outline>
</glyph>
<glyph name="Lslash" format="2">
  <advance width="503"/>
  <unicode hex="0141"/>
  <outline>
    <contour>
      <point x="368.0" y="355.0" type="line"/>
      <point x="368.0" y="416.0" type="line"/>
      <point x="32.0" y="320.0" type="line"/>
      <point x="32.0" y="259.0" type="line"/>
    </contour>
    <component base="L" xOffset="30"/>
  </outline>
</glyph>
<glyph name="lslash" format="2">
  <advance width="285"/>
  <unicode hex="0142"/>
  <outline>
    <contour>
      <point x="264.0" y="334.0" type="line"/>
      <point x="264.0" y="394.0" type="line"/>
      <point x="30.0" y="323.0" type="line"/>
      <point x="30.0" y="263.0" type="line"/>
    </contour>
    <component base="l" xOffset="28"/>
  </outline>
</glyph>
<glyph name="Eng" format="2">
  <advance width="657"/>
  <unicode hex="014A"/>
  <guideline x="185" y="268" angle="90.0" identifier="BdIGzEpLDc"/>
  <guideline x="412" y="283" angle="90.0" identifier="0cI6HEKsZO"/>
  <guideline x="40" y="314" angle="0.0" name="mid" identifier="OtZjbNE111"/>
  <guideline x="320" y="627" angle="90" name="mid" identifier="PKWvMvDqKa"/>
  <outline>
    <contour>
      <point x="585.0" y="9.0" type="curve" smooth="yes"/>
      <point x="585.0" y="627.0" type="line"/>
      <point x="505.0" y="627.0" type="line"/>
      <point x="505.0" y="141.0" type="line"/>
      <point x="158.0" y="627.0" type="line"/>
      <point x="72.0" y="627.0" type="line"/>
      <point x="72.0" y="0.0" type="line"/>
      <point x="152.0" y="0.0" type="line"/>
      <point x="152.0" y="488.0" type="line"/>
      <point x="503.0" y="3.0" type="line"/>
      <point x="501.04162803408525" y="-61.62627487518617"/>
      <point x="474.0" y="-91.0"/>
      <point x="405.0" y="-91.0" type="curve"/>
      <point x="388.0" y="-91.0"/>
      <point x="373.0" y="-90.0"/>
      <point x="356.0" y="-87.0" type="curve"/>
      <point x="356.0" y="-158.0" type="line"/>
      <point x="376.0" y="-161.0"/>
      <point x="393.0" y="-164.0"/>
      <point x="431.0" y="-164.0" type="curve"/>
      <point x="524.0" y="-164.0"/>
      <point x="585.0" y="-105.0"/>
    </contour>
  </outline>
</glyph>
<glyph name="eng" format="2">
  <advance width="554"/>
  <unicode hex="014B"/>
  <guideline x="202" y="239" angle="0" identifier="p0MuxMbKPW"/>
  <guideline x="272" y="0" angle="90" name="mid" identifier="6kdHwNONiV"/>
  <outline>
    <contour>
      <point x="66.0" y="0.0" type="line"/>
      <point x="148.0" y="0.0" type="line"/>
      <point x="148.0" y="448.0" type="line"/>
      <point x="141.0" y="448.0" type="line"/>
      <point x="137.0" y="494.0" type="line"/>
      <point x="66.0" y="494.0" type="line"/>
    </contour>
    <contour>
      <point x="492.0" y="5.0" type="curve" smooth="yes"/>
      <point x="492.0" y="342.0" type="line" smooth="yes"/>
      <point x="492.0" y="451.0"/>
      <point x="432.0" y="504.0"/>
      <point x="325.0" y="504.0" type="curve" smooth="yes"/>
      <point x="248.0" y="504.0"/>
      <point x="190.0" y="486.0"/>
      <point x="131.0" y="438.0" type="curve"/>
      <point x="131.0" y="373.0" type="line"/>
      <point x="176.24877271811994" y="403.1658484787466"/>
      <point x="233.0" y="430.0"/>
      <point x="296.0" y="430.0" type="curve" smooth="yes"/>
      <point x="372.0" y="430.0"/>
      <point x="410.0" y="399.0"/>
      <point x="410.0" y="332.0" type="curve" smooth="yes"/>
      <point x="410.0" y="14.0" type="line" smooth="yes"/>
      <point x="410.0" y="-57.885714285714286"/>
      <point x="384.0" y="-88.0"/>
      <point x="311.0" y="-88.0" type="curve"/>
      <point x="294.0" y="-88.0"/>
      <point x="279.0" y="-86.0"/>
      <point x="263.0" y="-84.0" type="curve"/>
      <point x="263.0" y="-156.0" type="line"/>
      <point x="281.2588618691516" y="-158.88297818986604"/>
      <point x="299.48" y="-162.0"/>
      <point x="335.0" y="-162.0" type="curve"/>
      <point x="435.92857142857144" y="-162.0"/>
      <point x="492.0" y="-108.0"/>
    </contour>
  </outline>
</glyph>
<glyph name="OE" format="2">
  <advance width="879"/>
  <unicode hex="0152"/>
  <outline>
    <contour>
      <point x="311.0" y="-8.0" type="curve"/>
      <point x="498.0" y="-8.0"/>
      <point x="576.0" y="82.0"/>
      <point x="576.0" y="315.0" type="curve"/>
      <point x="576.0" y="564.0"/>
      <point x="511.0" y="637.0"/>
      <point x="311.0" y="637.0" type="curve"/>
      <point x="122.0" y="637.0"/>
      <point x="45.0" y="547.0"/>
      <point x="45.0" y="315.0" type="curve"/>
      <point x="45.0" y="65.0"/>
      <point x="110.0" y="-8.0"/>
    </contour>
    <contour>
      <point x="311.0" y="72.0" type="curve"/>
      <point x="169.0" y="72.0"/>
      <point x="131.0" y="109.0"/>
      <point x="131.0" y="315.0" type="curve"/>
      <point x="131.0" y="511.0"/>
      <point x="177.0" y="560.0"/>
      <point x="311.0" y="560.0" type="curve"/>
      <point x="452.0" y="560.0"/>
      <point x="490.0" y="524.0"/>
      <point x="490.0" y="315.0" type="curve"/>
      <point x="490.0" y="122.0"/>
      <point x="444.0" y="72.0"/>
    </contour>
    <contour>
      <point x="505.0" y="550.0" type="line"/>
      <point x="835.0" y="550.0" type="line"/>
      <point x="835.0" y="627.0" type="line"/>
      <point x="405.0" y="627.0" type="line"/>
    </contour>
    <contour>
      <point x="566.0" y="284.0" type="line"/>
      <point x="798.0" y="284.0" type="line"/>
      <point x="798.0" y="357.0" type="line"/>
      <point x="566.0" y="357.0" type="line"/>
    </contour>
    <contour>
      <point x="368.0" y="0.0" type="line"/>
      <point x="844.0" y="0.0" type="line"/>
      <point x="844.0" y="80.0" type="line"/>
      <point x="468.0" y="80.0" type="line"/>
    </contour>
  </outline>
</glyph>
<glyph name="oe" format="2">
  <advance width="840"/>
  <unicode hex="0153"/>
  <guideline x="31" y="220" angle="90.0" identifier="VmLSOtpb7M"/>
  <guideline x="175" y="255" angle="90.0" identifier="vfMa8P5Hbo"/>
  <guideline x="359" y="227" angle="90.0" identifier="DNt58OgtzE"/>
  <guideline x="503" y="286" angle="90.0" identifier="IxgCSZNmvp"/>
  <guideline x="482" y="341" angle="90.0" identifier="jtiZ1YgVwp"/>
  <outline>
    <contour>
      <point x="265.0" y="-8.0" type="curve" smooth="yes"/>
      <point x="416.0" y="-8.0"/>
      <point x="470.0" y="61.0"/>
      <point x="470.0" y="248.0" type="curve" smooth="yes"/>
      <point x="470.0" y="441.0"/>
      <point x="421.0" y="504.0"/>
      <point x="265.0" y="504.0" type="curve" smooth="yes"/>
      <point x="103.0" y="504.0"/>
      <point x="43.0" y="435.0"/>
      <point x="43.0" y="248.0" type="curve" smooth="yes"/>
      <point x="43.0" y="55.0"/>
      <point x="98.0" y="-8.0"/>
    </contour>
    <contour>
      <point x="265.0" y="68.0" type="curve" smooth="yes"/>
      <point x="152.0" y="68.0"/>
      <point x="125.0" y="102.0"/>
      <point x="125.0" y="249.0" type="curve" smooth="yes"/>
      <point x="125.0" y="392.0"/>
      <point x="156.0" y="430.0"/>
      <point x="265.0" y="430.0" type="curve" smooth="yes"/>
      <point x="377.0" y="430.0"/>
      <point x="404.0" y="396.0"/>
      <point x="404.0" y="249.0" type="curve" smooth="yes"/>
      <point x="404.0" y="106.0"/>
      <point x="374.0" y="68.0"/>
    </contour>
    <contour>
      <point x="612.0" y="430.0" type="curve"/>
      <point x="696.0" y="430.0"/>
      <point x="723.0241901587627" y="391.9438365051702"/>
      <point x="724.0" y="309.0" type="curve"/>
      <point x="724.0" y="301.3"/>
      <point x="723.7055821382703" y="293.6446571061628"/>
      <point x="723.0" y="288.0" type="curve"/>
      <point x="486.0" y="288.0" type="line"/>
      <point x="486.0" y="390.50331125827813"/>
      <point x="519.0" y="430.0"/>
    </contour>
    <contour>
      <point x="778.0" y="27.0" type="curve"/>
      <point x="778.0" y="96.0" type="line"/>
      <point x="752.0" y="85.0"/>
      <point x="688.0" y="68.0"/>
      <point x="623.0" y="68.0" type="curve" smooth="yes"/>
      <point x="531.0" y="68.0"/>
      <point x="486.98064649620545" y="101.34177395914213"/>
      <point x="486.0" y="220.0" type="curve"/>
      <point x="795.0" y="220.0" type="line"/>
      <point x="798.1181888234136" y="244.94551058730886"/>
      <point x="799.0" y="265.76"/>
      <point x="799.0" y="298.0" type="curve"/>
      <point x="799.0" y="444.0"/>
      <point x="748.0" y="504.0"/>
      <point x="612.0" y="504.0" type="curve"/>
      <point x="479.0" y="504.0"/>
      <point x="419.0" y="430.0"/>
      <point x="419.0" y="250.0" type="curve" smooth="yes"/>
      <point x="419.0" y="63.0"/>
      <point x="475.0" y="-8.0"/>
      <point x="609.0" y="-8.0" type="curve" smooth="yes"/>
      <point x="686.0" y="-8.0"/>
      <point x="753.0" y="12.0"/>
    </contour>
  </outline>
</glyph>
<glyph name="Tbar" format="2">
  <advance width="547"/>
  <unicode hex="0166"/>
  <outline>
    <contour>
      <point x="476.0" y="281.0" type="line"/>
      <point x="476.0" y="340.0" type="line"/>
      <point x="71.0" y="340.0" type="line"/>
      <point x="71.0" y="281.0" type="line"/>
    </contour>
    <component base="T" xOffset="8"/>
  </outline>
</glyph>
<glyph name="tbar" format="2">
  <advance width="382"/>
  <unicode hex="0167"/>
  <outline>
    <contour>
      <point x="358.0" y="246.0" type="line"/>
      <point x="358.0" y="305.0" type="line"/>
      <point x="27.0" y="305.0" type="line"/>
      <point x="27.0" y="246.0" type="line"/>
    </contour>
    <component base="t" xOffset="7"/>
  </outline>
</glyph>
<glyph name="uni018F" format="1">
  <advance width="595.0"/>
  <unicode hex="018F"/>
  <outline>
    <contour>
      <point x="550.0" y="314.0" type="curve" smooth="yes"/>
      <point x="550.0" y="541.0"/>
      <point x="475.0" y="637.0"/>
      <point x="266.0" y="637.0" type="curve"/>
      <point x="190.0" y="637.0"/>
      <point x="133.0" y="625.0"/>
      <point x="97.0" y="613.0" type="curve"/>
      <point x="97.0" y="538.0" type="line"/>
      <point x="142.0" y="550.0"/>
      <point x="193.0" y="560.0"/>
      <point x="257.0" y="560.0" type="curve" smooth="yes"/>
      <point x="412.0" y="560.0"/>
      <point x="463.0" y="498.0"/>
      <point x="463.0" y="313.0" type="curve" smooth="yes"/>
      <point x="463.0" y="130.0"/>
      <point x="415.0" y="69.0"/>
      <point x="286.0" y="69.0" type="curve"/>
      <point x="177.0" y="69.0"/>
      <point x="122.0" y="120.36969696969697"/>
      <point x="122.0" y="232.0" type="curve"/>
      <point x="122.0" y="254.0"/>
      <point x="123.0" y="266.0"/>
      <point x="124.0" y="280.0" type="curve"/>
      <point x="492.0" y="280.0" type="line"/>
      <point x="492.0" y="355.0" type="line"/>
      <point x="44.0" y="355.0" type="line"/>
      <point x="40.945925565288796" y="322.4232060297472"/>
      <point x="38.0" y="291.8727272727273"/>
      <point x="38.0" y="243.0" type="curve"/>
      <point x="38.0" y="72.0"/>
      <point x="120.0" y="-8.0"/>
      <point x="283.0" y="-8.0" type="curve"/>
      <point x="461.0" y="-8.0"/>
      <point x="550.0" y="74.0"/>
    </contour>
  </outline>
</glyph>
<glyph name="uni01B5" format="2">
  <advance width="522"/>
  <unicode hex="01B5"/>
  <outline>
    <contour>
      <point x="471.0" y="293.0" type="line"/>
      <point x="471.0" y="353.0" type="line"/>
      <point x="54.0" y="353.0" type="line"/>
      <point x="54.0" y="293.0" type="line"/>
    </contour>
    <component base="Z" xOffset="7"/>
  </outline>
</glyph>
<glyph name="uni01B6" format="1">
  <advance width="436.0"/>
  <unicode hex="01B6"/>
  <outline>
    <contour>
      <point x="387.0" y="230.0" type="line"/>
      <point x="387.0" y="289.0" type="line"/>
      <point x="53.0" y="289.0" type="line"/>
      <point x="53.0" y="230.0" type="line"/>
    </contour>
    <component base="z" xOffset="5.0"/>
  </outline>
</glyph>
<glyph name="uni01B6" format="2">
  <advance width="436"/>
  <unicode hex="01B6"/>
  <outline>
    <contour>
      <point x="387.0" y="230.0" type="line"/>
      <point x="387.0" y="289.0" type="line"/>
      <point x="53.0" y="289.0" type="line"/>
      <point x="53.0" y="230.0" type="line"/>
    </contour>
    <component base="z" xOffset="5"/>
  </outline>
</glyph>
<glyph name="uni0237" format="2">
  <advance width="223"/>
  <unicode hex="0237"/>
  <anchor x="116.0" y="520" name="top"/>
  <outline>
    <contour>
      <point x="-72.0" y="-156.0" type="line"/>
      <point x="-53.74113813084844" y="-158.88297818986604"/>
      <point x="-35.52" y="-162.0"/>
      <point x="0.0" y="-162.0" type="curve"/>
      <point x="101.94805194805194" y="-162.0"/>
      <point x="157.0" y="-108.0"/>
      <point x="157.0" y="5.0" type="curve"/>
      <point x="157.0" y="494.0" type="line"/>
      <point x="75.0" y="494.0" type="line"/>
      <point x="75.0" y="14.0" type="line"/>
      <point x="75.0" y="-57.885714285714286"/>
      <point x="50.0" y="-88.0"/>
      <point x="-24.0" y="-88.0" type="curve"/>
      <point x="-41.0" y="-88.0"/>
      <point x="-56.0" y="-86.0"/>
      <point x="-72.0" y="-84.0" type="curve"/>
    </contour>
  </outline>
</glyph>
<glyph name="uni0259" format="2">
  <advance width="499"/>
  <unicode hex="0259"/>
  <outline>
    <contour>
      <point x="239.0" y="68.0" type="curve"/>
      <point x="147.0" y="68.0"/>
      <point x="117.96774647404213" y="105.74154970641847"/>
      <point x="117.0" y="188.0" type="curve"/>
      <point x="117.0" y="201.42105263157896"/>
      <point x="117.10390498008833" y="213.935144820795"/>
      <point x="118.0" y="222.0" type="curve"/>
      <point x="374.0" y="222.0" type="line"/>
      <point x="374.0" y="110.8860759493671"/>
      <point x="340.0" y="68.0"/>
    </contour>
    <contour>
      <point x="62.0" y="469.0" type="curve"/>
      <point x="62.0" y="403.0" type="line"/>
      <point x="89.86837650168697" y="413.9482907685199"/>
      <point x="158.0" y="430.0"/>
      <point x="228.0" y="430.0" type="curve" smooth="yes"/>
      <point x="327.0" y="430.0"/>
      <point x="373.05404970023045" y="396.89238387396114"/>
      <point x="374.0" y="290.0" type="curve"/>
      <point x="46.0" y="290.0" type="line"/>
      <point x="42.71421640112385" y="260.42794761011464"/>
      <point x="41.0" y="236.27710843373495"/>
      <point x="41.0" y="199.0" type="curve"/>
      <point x="41.0" y="53.0"/>
      <point x="95.0" y="-8.0"/>
      <point x="239.0" y="-8.0" type="curve"/>
      <point x="389.0" y="-8.0"/>
      <point x="457.0" y="68.0"/>
      <point x="457.0" y="254.0" type="curve" smooth="yes"/>
      <point x="457.0" y="432.0"/>
      <point x="392.0" y="504.0"/>
      <point x="241.0" y="504.0" type="curve" smooth="yes"/>
      <point x="160.0" y="504.0"/>
      <point x="89.0" y="484.0"/>
    </contour>
  </outline>
</glyph>
<glyph name="circumflex" format="2">
  <advance width="423"/>
  <unicode hex="02C6"/>
  <anchor x="211.0" y="530.0" name="_top"/>
  <outline>
    <contour>
      <point x="299.0" y="564.0" type="line"/>
      <point x="373.0" y="564.0" type="line"/>
      <point x="254.0" y="686.0" type="line"/>
      <point x="169.0" y="686.0" type="line"/>
      <point x="50.0" y="564.0" type="line"/>
      <point x="125.0" y="564.0" type="line"/>
      <point x="211.0" y="637.0" type="line"/>
    </contour>
  </outline>
</glyph>
<glyph name="breve" format="1">
  <advance width="381.0"/>
  <unicode hex="02D8"/>
  <outline>
    <contour>
      <point x="331.0" y="686.0" type="curve"/>
      <point x="273.0" y="686.0" type="line"/>
      <point x="273.0" y="643.0"/>
      <point x="243.0" y="613.0"/>
      <point x="191.0" y="613.0" type="curve" smooth="yes"/>
      <point x="137.0" y="613.0"/>
      <point x="108.0" y="643.0"/>
      <point x="108.0" y="686.0" type="curve"/>
      <point x="50.0" y="686.0" type="line"/>
      <point x="50.0" y="610.0"/>
      <point x="100.0" y="557.0"/>
      <point x="191.0" y="557.0" type="curve" smooth="yes"/>
      <point x="281.0" y="557.0"/>
      <point x="331.0" y="610.0"/>
    </contour>
    <contour>
      <point x="191.0" y="530.0" type="move" name="_top"/>
    </contour>
  </outline>
</glyph>
<glyph name="dotaccent" format="2">
  <advance width="200"/>
  <unicode hex="02D9"/>
  <guideline x="119" y="586" angle="90" name="mid" identifier="b8xPdQrh0J"/>
  <anchor x="101.0" y="530.0" name="_top"/>
  <outline>
    <contour>
      <point x="50.0" y="564.0" type="line"/>
      <point x="150.0" y="564.0" type="line"/>
      <point x="150.0" y="642.0" type="line"/>
      <point x="50.0" y="642.0" type="line"/>
    </contour>
  </outline>
</glyph>
<glyph name="ring" format="2">
  <advance width="329"/>
  <unicode hex="02DA"/>
  <anchor x="163.0" y="530.0" name="_top"/>
  <outline>
    <contour>
      <point x="163.0" y="591.0" type="curve" smooth="yes"/>
      <point x="124.0" y="591.0"/>
      <point x="102.0" y="609.0"/>
      <point x="102.0" y="639.0" type="curve" smooth="yes"/>
      <point x="102.0" y="667.0"/>
      <point x="124.0" y="685.0"/>
      <point x="163.0" y="685.0" type="curve" smooth="yes"/>
      <point x="203.0" y="685.0"/>
      <point x="226.0" y="667.0"/>
      <point x="226.0" y="639.0" type="curve" smooth="yes"/>
      <point x="226.0" y="609.0"/>
      <point x="203.0" y="591.0"/>
    </contour>
    <contour>
      <point x="163.0" y="543.0" type="curve" smooth="yes"/>
      <point x="233.0" y="543.0"/>
      <point x="276.0" y="581.0"/>
      <point x="276.0" y="639.0" type="curve" smooth="yes"/>
      <point x="276.0" y="694.0"/>
      <point x="233.0" y="731.0"/>
      <point x="163.0" y="731.0" type="curve" smooth="yes"/>
      <point x="94.0" y="731.0"/>
      <point x="51.0" y="694.0"/>
      <point x="51.0" y="639.0" type="curve" smooth="yes"/>
      <point x="51.0" y="581.0"/>
      <point x="93.0" y="543.0"/>
    </contour>
  </outline>
</glyph>
<glyph name="ogonek" format="2">
  <advance width="313"/>
  <unicode hex="02DB"/>
  <anchor x="263.0" y="9.0" name="_ogonek"/>
  <outline>
    <contour>
      <point x="263.0" y="9.0" type="curve"/>
      <point x="223.0" y="29.0" type="line"/>
      <point x="181.0" y="21.0"/>
      <point x="57.0" y="-6.0"/>
      <point x="57.0" y="-104.0" type="curve"/>
      <point x="57.0" y="-158.0"/>
      <point x="90.0" y="-195.0"/>
      <point x="163.0" y="-195.0" type="curve"/>
      <point x="200.0" y="-195.0"/>
      <point x="234.0" y="-186.0"/>
      <point x="243.0" y="-184.0" type="curve"/>
      <point x="243.0" y="-125.0" type="line"/>
      <point x="229.0" y="-129.0"/>
      <point x="205.0" y="-133.0"/>
      <point x="184.0" y="-133.0" type="curve"/>
      <point x="147.0" y="-133.0"/>
      <point x="126.0" y="-119.0"/>
      <point x="126.0" y="-89.0" type="curve"/>
      <point x="126.0" y="-36.0"/>
      <point x="205.0" y="-3.0"/>
    </contour>
  </outline>
</glyph>
<glyph name="tilde" format="2">
  <advance width="395"/>
  <unicode hex="02DC"/>
  <guideline x="161" y="609" angle="90" name="mid" identifier="XEiwkmUuEH"/>
  <guideline x="198" y="624" angle="90" name="mid" identifier="pyq7CpGoeE"/>
  <anchor x="198" y="530" name="_top"/>
  <outline>
    <contour>
      <point x="345.0" y="684.0" type="curve"/>
      <point x="289.0" y="684.0" type="line"/>
      <point x="289.0" y="649.0"/>
      <point x="284.0" y="618.0"/>
      <point x="259.0" y="618.0" type="curve"/>
      <point x="224.0" y="618.0"/>
      <point x="193.0" y="688.0"/>
      <point x="131.0" y="688.0" type="curve"/>
      <point x="68.0" y="688.0"/>
      <point x="50.0" y="622.0"/>
      <point x="50.0" y="564.0" type="curve"/>
      <point x="106.0" y="564.0" type="line"/>
      <point x="106.0" y="597.0"/>
      <point x="111.0" y="630.0"/>
      <point x="138.0" y="630.0" type="curve"/>
      <point x="173.0" y="630.0"/>
      <point x="203.0" y="560.0"/>
      <point x="265.0" y="560.0" type="curve"/>
      <point x="328.0" y="560.0"/>
      <point x="345.0" y="626.0"/>
    </contour>
  </outline>
</glyph>
<glyph name="hungarumlaut" format="2">
  <advance width="486"/>
  <unicode hex="02DD"/>
  <guideline x="247" y="634" angle="90" name="mid" identifier="yWptKS5JhL"/>
  <anchor x="210.0" y="530.0" name="_top"/>
  <outline>
    <contour>
      <point x="253.0" y="686.0" type="line"/>
      <point x="157.0" y="686.0" type="line"/>
      <point x="55.0" y="564.0" type="line"/>
      <point x="127.0" y="564.0" type="line"/>
    </contour>
    <contour>
      <point x="431.0" y="686.0" type="line"/>
      <point x="336.0" y="686.0" type="line"/>
      <point x="233.0" y="564.0" type="line"/>
      <point x="306.0" y="564.0" type="line"/>
    </contour>
  </outline>
</glyph>
<glyph name="uni0312" format="1">
  <advance width="186.0"/>
  <unicode hex="0312"/>
  <outline>
    <contour>
      <point x="70.0" y="689.0" type="curve" smooth="yes"/>
      <point x="50.0" y="564.0" type="line"/>
      <point x="132.0" y="564.0" type="line"/>
      <point x="136.0" y="724.0" type="line"/>
      <point x="110.0" y="724.0" type="line" smooth="yes"/>
      <point x="87.0" y="724.0"/>
      <point x="73.0" y="712.0"/>
    </contour>
    <contour>
      <point x="90.0" y="530.0" type="move" name="_top"/>
    </contour>
  </outline>
</glyph>
<glyph name="uni0326" format="2">
  <advance width="186"/>
  <unicode hex="0326"/>
  <guideline x="104" y="-62" angle="90" name="mid" identifier="B5ss0Frcxu"/>
  <anchor x="96.0" y="0.0" name="_bottom"/>
  <outline>
    <contour>
      <point x="115.0" y="-188.0" type="curve" smooth="yes"/>
      <point x="135.0" y="-63.0" type="line"/>
      <point x="53.0" y="-63.0" type="line"/>
      <point x="49.0" y="-223.0" type="line"/>
      <point x="75.0" y="-223.0" type="line" smooth="yes"/>
      <point x="97.0" y="-223.0"/>
      <point x="111.0" y="-211.0"/>
    </contour>
  </outline>
</glyph>
<glyph name="uni03A9" format="1">
  <advance width="689.0"/>
  <unicode hex="03A9"/>
  <outline>
    <contour>
      <point x="291.0" y="0.0" type="line"/>
      <point x="291.0" y="186.0" type="line"/>
      <point x="212.0" y="186.0" type="line"/>
      <point x="212.0" y="0.0" type="line"/>
    </contour>
    <contour>
      <point x="70.0" y="80.0" type="line"/>
      <point x="70.0" y="0.0" type="line"/>
      <point x="291.0" y="0.0" type="line"/>
      <point x="291.0" y="80.0" type="line"/>
    </contour>
    <contour>
      <point x="291.0" y="122.0" type="curve"/>
      <point x="291.0" y="186.0" type="line"/>
      <point x="202.03643763076624" y="203.99263059153043"/>
      <point x="130.0" y="260.21465968586386"/>
      <point x="130.0" y="375.0" type="curve"/>
      <point x="130.0" y="487.734375"/>
      <point x="201.0" y="560.0"/>
      <point x="345.0" y="560.0" type="curve" smooth="yes"/>
      <point x="488.0" y="560.0"/>
      <point x="559.0" y="487.734375"/>
      <point x="559.0" y="375.0" type="curve"/>
      <point x="559.0" y="260.21465968586386"/>
      <point x="487.9595817532935" y="204.99137138553456"/>
      <point x="399.0" y="186.0" type="curve"/>
      <point x="399.0" y="122.0" type="line"/>
      <point x="555.0" y="138.0"/>
      <point x="649.0" y="229.71875"/>
      <point x="649.0" y="378.0" type="curve"/>
      <point x="649.0" y="535.0"/>
      <point x="548.0" y="647.0"/>
      <point x="345.0" y="647.0" type="curve" smooth="yes"/>
      <point x="141.0" y="647.0"/>
      <point x="40.0" y="534.0"/>
      <point x="40.0" y="378.0" type="curve"/>
      <point x="40.0" y="229.71875"/>
      <point x="133.0" y="137.0"/>
    </contour>
    <contour>
      <point x="399.0" y="0.0" type="line"/>
      <point x="478.0" y="0.0" type="line"/>
      <point x="478.0" y="186.0" type="line"/>
      <point x="399.0" y="186.0" type="line"/>
    </contour>
    <contour>
      <point x="620.0" y="80.0" type="line"/>
      <point x="399.0" y="80.0" type="line"/>
      <point x="399.0" y="0.0" type="line"/>
      <point x="620.0" y="0.0" type="line"/>
    </contour>
  </outline>
</glyph>
<glyph name="uni03BC" format="2">
  <advance width="548"/>
  <unicode hex="03BC"/>
  <outline>
    <contour>
      <point x="235.0" y="-8.0" type="curve" smooth="yes"/>
      <point x="297.0" y="-8.0"/>
      <point x="352.0" y="14.0"/>
      <point x="403.0" y="43.0" type="curve"/>
      <point x="407.0" y="0.0" type="line"/>
      <point x="482.0" y="0.0" type="line"/>
      <point x="482.0" y="494.0" type="line"/>
      <point x="400.0" y="494.0" type="line"/>
      <point x="400.0" y="106.0" type="line"/>
      <point x="354.0" y="83.0"/>
      <point x="302.0" y="69.0"/>
      <point x="253.0" y="69.0" type="curve" smooth="yes"/>
      <point x="179.0" y="69.0"/>
      <point x="148.0" y="95.0"/>
      <point x="148.0" y="166.0" type="curve" smooth="yes"/>
      <point x="148.0" y="494.0" type="line"/>
      <point x="66.0" y="494.0" type="line"/>
      <point x="66.0" y="60.0" type="line" smooth="yes"/>
      <point x="66.0" y="-14.0"/>
      <point x="66.0" y="-86.0"/>
      <point x="92.0" y="-152.0" type="curve"/>
      <point x="176.0" y="-152.0" type="line"/>
      <point x="151.0" y="-97.0"/>
      <point x="148.0" y="-36.0"/>
      <point x="148.0" y="32.0" type="curve"/>
      <point x="158.0" y="4.0"/>
      <point x="191.0" y="-8.0"/>
    </contour>
  </outline>
</glyph>
<glyph name="pi" format="2">
  <advance width="591"/>
  <unicode hex="03C0"/>
  <guideline x="597" y="270" angle="90.0" identifier="z1GDmFKLqN"/>
  <outline>
    <contour>
      <point x="25.0" y="494.0" type="line"/>
      <point x="25.0" y="417.0" type="line"/>
      <point x="561.0" y="417.0" type="line"/>
      <point x="561.0" y="494.0" type="line"/>
    </contour>
    <contour>
      <point x="450.0" y="159.0" type="curve" smooth="yes"/>
      <point x="450.0" y="440.0" type="line"/>
      <point x="368.0" y="440.0" type="line"/>
      <point x="368.0" y="144.0" type="line" smooth="yes"/>
      <point x="368.0" y="54.0"/>
      <point x="421.0" y="0.0"/>
      <point x="511.0" y="0.0" type="curve" smooth="yes"/>
      <point x="547.0" y="0.0" type="line"/>
      <point x="547.0" y="78.0" type="line"/>
      <point x="534.0" y="78.0" type="line" smooth="yes"/>
      <point x="480.0" y="78.0"/>
      <point x="450.0" y="103.0"/>
    </contour>
    <contour>
      <point x="139.0" y="0.0" type="line"/>
      <point x="190.0" y="121.0"/>
      <point x="220.0" y="277.0"/>
      <point x="213.0" y="440.0" type="curve"/>
      <point x="132.0" y="440.0" type="line"/>
      <point x="142.0" y="287.0"/>
      <point x="102.0" y="120.0"/>
      <point x="47.0" y="0.0" type="curve"/>
    </contour>
  </outline>
</glyph>
<glyph name="uni1E9E" format="2">
  <advance width="647"/>
  <unicode hex="1E9E"/>
  <outline>
    <contour>
      <point x="316.0" y="637.0" type="curve" smooth="yes"/>
      <point x="142.0" y="637.0"/>
      <point x="67.0" y="561.6359447004609"/>
      <point x="67.0" y="416.0" type="curve" smooth="yes"/>
      <point x="67.0" y="0.0" type="line"/>
      <point x="152.0" y="0.0" type="line"/>
      <point x="152.0" y="415.0" type="line" smooth="yes"/>
      <point x="152.0" y="520.8811188811189"/>
      <point x="199.0" y="562.0"/>
      <point x="310.0" y="562.0" type="curve"/>
      <point x="365.7608695652174" y="562.0"/>
      <point x="427.0" y="556.0"/>
      <point x="445.0" y="552.0" type="curve"/>
      <point x="373.0" y="300.0" type="line"/>
      <point x="476.0" y="272.0" type="line" smooth="yes"/>
      <point x="515.9995713712963" y="261.12633011265734"/>
      <point x="530.0" y="243.33720930232556"/>
      <point x="530.0" y="187.0" type="curve" smooth="yes"/>
      <point x="530.0" y="98.0"/>
      <point x="492.0" y="66.0"/>
      <point x="420.0" y="66.0" type="curve" smooth="yes"/>
      <point x="363.0" y="66.0"/>
      <point x="326.0" y="72.0"/>
      <point x="299.0" y="77.0" type="curve"/>
      <point x="299.0" y="3.0" type="line"/>
      <point x="332.0" y="-5.0"/>
      <point x="381.0" y="-10.0"/>
      <point x="437.0" y="-10.0" type="curve" smooth="yes"/>
      <point x="543.0" y="-10.0"/>
      <point x="614.0" y="40.0"/>
      <point x="614.0" y="189.0" type="curve" smooth="yes"/>
      <point x="614.0" y="285.0"/>
      <point x="586.0" y="317.0"/>
      <point x="524.0" y="335.0" type="curve" smooth="yes"/>
      <point x="466.0" y="352.0" type="line"/>
      <point x="540.0" y="608.0" type="line"/>
      <point x="494.0" y="624.0"/>
      <point x="415.8918918918919" y="637.0"/>
    </contour>
  </outline>
</glyph>
<glyph name="emdash" format="1">
  <advance width="799.0"/>
  <unicode hex="2014"/>
  <outline>
    <contour>
      <point x="744.0" y="286.0" type="line"/>
      <point x="744.0" y="350.0" type="line"/>
      <point x="55.0" y="350.0" type="line"/>
      <point x="55.0" y="286.0" type="line"/>
    </contour>
  </outline>
</glyph>
<glyph name="quoteright" format="2">
  <advance width="161"/>
  <unicode hex="2019"/>
  <outline>
    <contour>
      <point x="104.0" y="472.0" type="curve" smooth="yes"/>
      <point x="129.0" y="627.0" type="line"/>
      <point x="51.0" y="627.0" type="line"/>
      <point x="46.0" y="440.0" type="line"/>
      <point x="67.0" y="440.0" type="line" smooth="yes"/>
      <point x="88.0" y="440.0"/>
      <point x="100.0" y="451.0"/>
    </contour>
  </outline>
</glyph>
<glyph name="dagger" format="2">
  <advance width="355"/>
  <unicode hex="2020"/>
  <outline>
    <contour>
      <point x="169.0" y="500.0" type="line"/>
      <point x="169.0" y="454.0" type="line"/>
      <point x="330.0" y="447.0" type="line"/>
      <point x="330.0" y="508.0" type="line"/>
    </contour>
    <contour>
      <point x="210.0" y="221.0" type="line"/>
      <point x="202.0" y="478.0" type="line"/>
      <point x="152.0" y="478.0" type="line"/>
      <point x="143.0" y="221.0" type="line"/>
    </contour>
    <contour>
      <point x="186.0" y="454.0" type="line"/>
      <point x="186.0" y="500.0" type="line"/>
      <point x="25.0" y="508.0" type="line"/>
      <point x="25.0" y="447.0" type="line"/>
    </contour>
    <contour>
      <point x="152.0" y="469.0" type="line"/>
      <point x="202.0" y="469.0" type="line"/>
      <point x="209.0" y="627.0" type="line"/>
      <point x="144.0" y="627.0" type="line"/>
    </contour>
  </outline>
</glyph>
<glyph name="daggerdbl" format="2">
  <advance width="389"/>
  <unicode hex="2021"/>
  <outline>
    <contour>
      <point x="186.0" y="500.0" type="line"/>
      <point x="186.0" y="454.0" type="line"/>
      <point x="347.0" y="447.0" type="line"/>
      <point x="347.0" y="508.0" type="line"/>
    </contour>
    <contour>
      <point x="219.0" y="254.0" type="line"/>
      <point x="219.0" y="478.0" type="line"/>
      <point x="169.0" y="478.0" type="line"/>
      <point x="169.0" y="254.0" type="line"/>
    </contour>
    <contour>
      <point x="203.0" y="454.0" type="line"/>
      <point x="203.0" y="500.0" type="line"/>
      <point x="42.0" y="508.0" type="line"/>
      <point x="42.0" y="447.0" type="line"/>
    </contour>
    <contour>
      <point x="169.0" y="469.0" type="line"/>
      <point x="219.0" y="469.0" type="line"/>
      <point x="226.0" y="627.0" type="line"/>
      <point x="161.0" y="627.0" type="line"/>
    </contour>
    <contour>
      <point x="203.0" y="245.0" type="line"/>
      <point x="203.0" y="291.0" type="line"/>
      <point x="42.0" y="298.0" type="line"/>
      <point x="42.0" y="237.0" type="line"/>
    </contour>
    <contour>
      <point x="186.0" y="291.0" type="line"/>
      <point x="186.0" y="245.0" type="line"/>
      <point x="347.0" y="237.0" type="line"/>
      <point x="347.0" y="298.0" type="line"/>
    </contour>
    <contour>
      <point x="219.0" y="276.0" type="line"/>
      <point x="168.0" y="276.0" type="line"/>
      <point x="161.0" y="118.0" type="line"/>
      <point x="226.0" y="118.0" type="line"/>
    </contour>
  </outline>
</glyph>
<glyph name="ellipsis" format="2">
  <advance width="489"/>
  <unicode hex="2026"/>
  <outline>
    <contour>
      <point x="208.0" y="0.0" type="line"/>
      <point x="280.0" y="0.0" type="line"/>
      <point x="280.0" y="83.0" type="line"/>
      <point x="208.0" y="83.0" type="line"/>
    </contour>
    <contour>
      <point x="46.0" y="0.0" type="line"/>
      <point x="118.0" y="0.0" type="line"/>
      <point x="118.0" y="83.0" type="line"/>
      <point x="46.0" y="83.0" type="line"/>
    </contour>
    <contour>
      <point x="371.0" y="0.0" type="line"/>
      <point x="443.0" y="0.0" type="line"/>
      <point x="443.0" y="83.0" type="line"/>
      <point x="371.0" y="83.0" type="line"/>
    </contour>
  </outline>
</glyph>
<glyph name="perthousand" format="2">
  <advance width="934"/>
  <unicode hex="2030"/>
  <outline>
    <contour>
      <point x="151.0" y="582.0" type="curve"/>
      <point x="199.0" y="582.0"/>
      <point x="216.0" y="555.0"/>
      <point x="216.0" y="476.0" type="curve"/>
      <point x="216.0" y="399.0"/>
      <point x="199.0" y="372.0"/>
      <point x="151.0" y="372.0" type="curve"/>
      <point x="102.0" y="372.0"/>
      <point x="85.0" y="399.0"/>
      <point x="85.0" y="476.0" type="curve"/>
      <point x="85.0" y="555.0"/>
      <point x="102.0" y="582.0"/>
    </contour>
    <contour>
      <point x="151.0" y="320.0" type="curve"/>
      <point x="241.0" y="320.0"/>
      <point x="275.0" y="363.0"/>
      <point x="275.0" y="476.0" type="curve"/>
      <point x="275.0" y="590.0"/>
      <point x="241.0" y="632.0"/>
      <point x="151.0" y="632.0" type="curve"/>
      <point x="60.0" y="632.0"/>
      <point x="26.0" y="590.0"/>
      <point x="26.0" y="476.0" type="curve"/>
      <point x="26.0" y="363.0"/>
      <point x="60.0" y="320.0"/>
    </contour>
    <contour>
      <point x="488.0" y="258.0" type="curve"/>
      <point x="536.0" y="258.0"/>
      <point x="553.0" y="230.0"/>
      <point x="553.0" y="152.0" type="curve"/>
      <point x="553.0" y="75.0"/>
      <point x="536.0" y="48.0"/>
      <point x="488.0" y="48.0" type="curve"/>
      <point x="439.0" y="48.0"/>
      <point x="423.0" y="75.0"/>
      <point x="423.0" y="152.0" type="curve"/>
      <point x="423.0" y="230.0"/>
      <point x="439.0" y="258.0"/>
    </contour>
    <contour>
      <point x="488.0" y="-4.0" type="curve"/>
      <point x="578.0" y="-4.0"/>
      <point x="613.0" y="38.0"/>
      <point x="613.0" y="152.0" type="curve"/>
      <point x="613.0" y="265.0"/>
      <point x="578.0" y="308.0"/>
      <point x="488.0" y="308.0" type="curve"/>
      <point x="398.0" y="308.0"/>
      <point x="363.0" y="265.0"/>
      <point x="363.0" y="152.0" type="curve"/>
      <point x="363.0" y="38.0"/>
      <point x="398.0" y="-4.0"/>
    </contour>
    <contour>
      <point x="783.0" y="258.0" type="curve"/>
      <point x="832.0" y="258.0"/>
      <point x="849.0" y="230.0"/>
      <point x="849.0" y="152.0" type="curve"/>
      <point x="849.0" y="75.0"/>
      <point x="832.0" y="48.0"/>
      <point x="783.0" y="48.0" type="curve"/>
      <point x="735.0" y="48.0"/>
      <point x="718.0" y="75.0"/>
      <point x="718.0" y="152.0" type="curve"/>
      <point x="718.0" y="230.0"/>
      <point x="735.0" y="258.0"/>
    </contour>
    <contour>
      <point x="783.0" y="-4.0" type="curve"/>
      <point x="873.0" y="-4.0"/>
      <point x="908.0" y="38.0"/>
      <point x="908.0" y="152.0" type="curve"/>
      <point x="908.0" y="265.0"/>
      <point x="873.0" y="308.0"/>
      <point x="783.0" y="308.0" type="curve"/>
      <point x="693.0" y="308.0"/>
      <point x="658.0" y="265.0"/>
      <point x="658.0" y="152.0" type="curve"/>
      <point x="658.0" y="38.0"/>
      <point x="693.0" y="-4.0"/>
    </contour>
    <component base="fraction" xOffset="242"/>
  </outline>
</glyph>
<glyph name="guilsinglleft" format="2">
  <advance width="285"/>
  <unicode hex="2039"/>
  <outline>
    <contour>
      <point x="258.0" y="494.0" type="line"/>
      <point x="171.0" y="494.0" type="line"/>
      <point x="22.0" y="281.0" type="line"/>
      <point x="95.0" y="259.0" type="line"/>
    </contour>
    <contour>
      <point x="171.0" y="64.0" type="line"/>
      <point x="258.0" y="64.0" type="line"/>
      <point x="95.0" y="305.0" type="line"/>
      <point x="22.0" y="281.0" type="line"/>
    </contour>
  </outline>
</glyph>
<glyph name="fraction" format="2">
  <advance width="150"/>
  <unicode hex="2044"/>
  <outline>
    <contour>
      <point x="-44.0" y="0.0" type="line"/>
      <point x="256.0" y="627.0" type="line"/>
      <point x="195.0" y="627.0" type="line"/>
      <point x="-105.0" y="0.0" type="line"/>
    </contour>
  </outline>
</glyph>
<glyph name="uni2070" format="2">
  <advance width="364"/>
  <unicode hex="2070"/>
  <guideline x="268" y="445" angle="90" identifier="17VMRXEvxK"/>
  <guideline x="2972" y="207" angle="90" identifier="DknL76tY4j"/>
  <guideline x="212" y="246" angle="0" identifier="pUQaB6ZYXc"/>
  <guideline x="8" y="252" angle="90" identifier="0i4zLjIeBI"/>
  <outline>
    <contour>
      <point x="182.0" y="575.0" type="curve"/>
      <point x="248.0" y="575.0"/>
      <point x="264.0" y="553.0"/>
      <point x="264.0" y="450.0" type="curve"/>
      <point x="264.0" y="349.0"/>
      <point x="247.0" y="325.0"/>
      <point x="182.0" y="325.0" type="curve"/>
      <point x="116.0" y="325.0"/>
      <point x="99.0" y="347.0"/>
      <point x="99.0" y="450.0" type="curve"/>
      <point x="99.0" y="551.0"/>
      <point x="117.0" y="575.0"/>
    </contour>
    <contour>
      <point x="182.0" y="265.0" type="curve"/>
      <point x="286.0" y="265.0"/>
      <point x="329.0" y="306.0"/>
      <point x="329.0" y="450.0" type="curve"/>
      <point x="329.0" y="594.0"/>
      <point x="296.0" y="633.0"/>
      <point x="182.0" y="633.0" type="curve"/>
      <point x="78.0" y="633.0"/>
      <point x="35.0" y="592.0"/>
      <point x="35.0" y="450.0" type="curve"/>
      <point x="35.0" y="304.0"/>
      <point x="68.0" y="265.0"/>
    </contour>
  </outline>
</glyph>
<glyph name="uni2074" format="2">
  <advance width="334"/>
  <unicode hex="2074"/>
  <guideline x="118" y="219" angle="353.741" identifier="pRigyZDOqH"/>
  <outline>
    <contour>
      <point x="311.0" y="359.0" type="line"/>
      <point x="311.0" y="415.0" type="line"/>
      <point x="262.0" y="415.0" type="line"/>
      <point x="262.0" y="565.0" type="line"/>
      <point x="201.0" y="565.0" type="line"/>
      <point x="201.0" y="415.0" type="line"/>
      <point x="91.0" y="415.0" type="line"/>
      <point x="134.0" y="627.0" type="line"/>
      <point x="74.0" y="627.0" type="line"/>
      <point x="28.0" y="415.0" type="line"/>
      <point x="28.0" y="359.0" type="line"/>
      <point x="199.0" y="359.0" type="line"/>
      <point x="199.0" y="270.0" type="line"/>
      <point x="262.0" y="270.0" type="line"/>
      <point x="262.0" y="359.0" type="line"/>
    </contour>
  </outline>
</glyph>
<glyph name="uni2075" format="2">
  <advance width="292"/>
  <unicode hex="2075"/>
  <outline>
    <contour>
      <point x="141.0" y="265.0" type="curve"/>
      <point x="220.0" y="265.0"/>
      <point x="265.0" y="304.0"/>
      <point x="265.0" y="376.0" type="curve" smooth="yes"/>
      <point x="265.0" y="459.0"/>
      <point x="217.0" y="479.0"/>
      <point x="155.0" y="479.0" type="curve" smooth="yes"/>
      <point x="139.0" y="479.0"/>
      <point x="122.0" y="478.0"/>
      <point x="108.0" y="476.0" type="curve"/>
      <point x="108.0" y="572.0" type="line"/>
      <point x="241.0" y="572.0" type="line"/>
      <point x="241.0" y="627.0" type="line"/>
      <point x="47.0" y="627.0" type="line"/>
      <point x="47.0" y="423.0" type="line"/>
      <point x="70.0" y="427.0"/>
      <point x="97.0" y="429.0"/>
      <point x="123.0" y="429.0" type="curve" smooth="yes"/>
      <point x="177.0" y="429.0"/>
      <point x="203.0" y="420.0"/>
      <point x="203.0" y="377.0" type="curve" smooth="yes"/>
      <point x="203.0" y="338.0"/>
      <point x="182.0" y="323.0"/>
      <point x="125.0" y="323.0" type="curve"/>
      <point x="89.0" y="323.0"/>
      <point x="58.0" y="325.0"/>
      <point x="30.0" y="331.0" type="curve"/>
      <point x="30.0" y="277.0" type="line"/>
      <point x="52.0" y="269.0"/>
      <point x="91.0" y="265.0"/>
    </contour>
  </outline>
</glyph>
<glyph name="uni2076" format="2">
  <advance width="327"/>
  <unicode hex="2076"/>
  <outline>
    <contour>
      <point x="34.0" y="439.0" type="curve"/>
      <point x="34.0" y="309.0"/>
      <point x="71.0" y="265.0"/>
      <point x="172.0" y="265.0" type="curve"/>
      <point x="253.0" y="265.0"/>
      <point x="302.0" y="311.0"/>
      <point x="302.0" y="390.0" type="curve"/>
      <point x="302.0" y="468.0"/>
      <point x="268.0" y="502.0"/>
      <point x="199.0" y="502.0" type="curve"/>
      <point x="148.0" y="502.0"/>
      <point x="116.0" y="489.0"/>
      <point x="89.0" y="474.0" type="curve"/>
      <point x="89.0" y="428.0" type="line"/>
      <point x="111.0" y="440.0"/>
      <point x="144.0" y="450.0"/>
      <point x="177.0" y="450.0" type="curve"/>
      <point x="224.0" y="450.0"/>
      <point x="243.0" y="437.0"/>
      <point x="243.0" y="388.0" type="curve"/>
      <point x="243.0" y="343.0"/>
      <point x="219.0" y="318.0"/>
      <point x="169.0" y="318.0" type="curve"/>
      <point x="113.0" y="318.0"/>
      <point x="95.0" y="346.0"/>
      <point x="95.0" y="434.0" type="curve"/>
      <point x="95.0" y="545.0"/>
      <point x="118.0" y="581.0"/>
      <point x="204.0" y="581.0" type="curve"/>
      <point x="225.0" y="581.0"/>
      <point x="247.0" y="579.0"/>
      <point x="260.0" y="578.0" type="curve"/>
      <point x="260.0" y="628.0" type="line"/>
      <point x="250.0" y="631.0"/>
      <point x="226.0" y="633.0"/>
      <point x="204.0" y="633.0" type="curve"/>
      <point x="82.0" y="633.0"/>
      <point x="34.0" y="573.0"/>
    </contour>
  </outline>
</glyph>
<glyph name="uni2077" format="2">
  <advance width="289"/>
  <unicode hex="2077"/>
  <outline>
    <contour>
      <point x="268.0" y="570.0" type="line"/>
      <point x="268.0" y="627.0" type="line"/>
      <point x="26.0" y="627.0" type="line"/>
      <point x="26.0" y="570.0" type="line"/>
      <point x="199.0" y="570.0" type="line"/>
      <point x="27.0" y="270.0" type="line"/>
      <point x="99.0" y="270.0" type="line"/>
    </contour>
  </outline>
</glyph>
<glyph name="uni2078" format="2">
  <advance width="334"/>
  <unicode hex="2078"/>
  <guideline x="255" y="318" angle="0" name="mid" identifier="5fXi8AwH0v"/>
  <outline>
    <contour>
      <point x="166.0" y="265.0" type="curve"/>
      <point x="260.0" y="265.0"/>
      <point x="301.0" y="296.0"/>
      <point x="301.0" y="366.0" type="curve"/>
      <point x="301.0" y="412.0"/>
      <point x="275.0" y="445.0"/>
      <point x="227.0" y="454.0" type="curve"/>
      <point x="274.0" y="465.0"/>
      <point x="294.0" y="497.0"/>
      <point x="294.0" y="540.0" type="curve"/>
      <point x="294.0" y="606.0"/>
      <point x="257.0" y="633.0"/>
      <point x="166.0" y="633.0" type="curve"/>
      <point x="79.0" y="633.0"/>
      <point x="40.0" y="604.0"/>
      <point x="40.0" y="539.0" type="curve"/>
      <point x="40.0" y="497.0"/>
      <point x="59.0" y="465.0"/>
      <point x="106.0" y="454.0" type="curve"/>
      <point x="57.0" y="445.0"/>
      <point x="33.0" y="409.0"/>
      <point x="33.0" y="364.0" type="curve"/>
      <point x="33.0" y="294.0"/>
      <point x="71.0" y="265.0"/>
    </contour>
    <contour>
      <point x="166.0" y="581.0" type="curve"/>
      <point x="217.0" y="581.0"/>
      <point x="237.0" y="567.0"/>
      <point x="237.0" y="531.0" type="curve"/>
      <point x="237.0" y="496.0"/>
      <point x="221.0" y="476.0"/>
      <point x="166.0" y="476.0" type="curve"/>
      <point x="112.0" y="476.0"/>
      <point x="97.0" y="496.0"/>
      <point x="97.0" y="530.0" type="curve"/>
      <point x="97.0" y="566.0"/>
      <point x="116.0" y="581.0"/>
    </contour>
    <contour>
      <point x="166.0" y="427.0" type="curve"/>
      <point x="219.0" y="427.0"/>
      <point x="242.0" y="411.0"/>
      <point x="242.0" y="374.0" type="curve"/>
      <point x="242.0" y="335.0"/>
      <point x="219.0" y="319.0"/>
      <point x="166.0" y="319.0" type="curve"/>
      <point x="114.0" y="319.0"/>
      <point x="92.0" y="335.0"/>
      <point x="92.0" y="373.0" type="curve"/>
      <point x="92.0" y="410.0"/>
      <point x="114.0" y="427.0"/>
    </contour>
  </outline>
</glyph>
<glyph name="uni2079" format="2">
  <advance width="327"/>
  <unicode hex="2079"/>
  <outline>
    <contour>
      <point x="293.0" y="459.0" type="curve"/>
      <point x="293.0" y="590.0"/>
      <point x="258.0" y="633.0"/>
      <point x="158.0" y="633.0" type="curve"/>
      <point x="75.0" y="633.0"/>
      <point x="26.0" y="588.0"/>
      <point x="26.0" y="510.0" type="curve"/>
      <point x="26.0" y="432.0"/>
      <point x="62.0" y="397.0"/>
      <point x="133.0" y="397.0" type="curve"/>
      <point x="180.0" y="397.0"/>
      <point x="211.0" y="410.0"/>
      <point x="238.0" y="426.0" type="curve"/>
      <point x="238.0" y="472.0" type="line"/>
      <point x="217.0" y="460.0"/>
      <point x="191.0" y="449.0"/>
      <point x="154.0" y="449.0" type="curve"/>
      <point x="105.0" y="449.0"/>
      <point x="86.0" y="462.0"/>
      <point x="86.0" y="513.0" type="curve"/>
      <point x="86.0" y="556.0"/>
      <point x="110.0" y="579.0"/>
      <point x="158.0" y="579.0" type="curve"/>
      <point x="216.0" y="579.0"/>
      <point x="232.0" y="554.0"/>
      <point x="232.0" y="464.0" type="curve"/>
      <point x="232.0" y="354.0"/>
      <point x="209.0" y="318.0"/>
      <point x="122.0" y="318.0" type="curve"/>
      <point x="96.0" y="318.0"/>
      <point x="78.0" y="320.0"/>
      <point x="64.0" y="322.0" type="curve"/>
      <point x="64.0" y="270.0" type="line"/>
      <point x="75.0" y="267.0"/>
      <point x="103.0" y="265.0"/>
      <point x="122.0" y="265.0" type="curve"/>
      <point x="245.0" y="265.0"/>
      <point x="293.0" y="326.0"/>
    </contour>
  </outline>
</glyph>
<glyph name="uni20BA" format="2">
  <advance width="555"/>
  <unicode hex="20BA"/>
  <guideline x="311.0" y="0.0" angle="90.0" name="mid" identifier="EILLolcBmn"/>
  <outline>
    <contour>
      <point x="448.0" y="274.0" type="line"/>
      <point x="448.0" y="135.0"/>
      <point x="399.0" y="80.0"/>
      <point x="278.0" y="80.0" type="curve" smooth="yes"/>
      <point x="196.0" y="80.0" type="line"/>
      <point x="196.0" y="627.0" type="line"/>
      <point x="111.0" y="627.0" type="line"/>
      <point x="111.0" y="0.0" type="line"/>
      <point x="278.0" y="0.0" type="line" smooth="yes"/>
      <point x="449.0" y="0.0"/>
      <point x="533.0" y="90.0"/>
      <point x="533.0" y="274.0" type="curve"/>
    </contour>
    <contour>
      <point x="41.0" y="397.0" type="line"/>
      <point x="41.0" y="332.0" type="line"/>
      <point x="423.0" y="451.0" type="line"/>
      <point x="423.0" y="516.0" type="line"/>
    </contour>
    <contour>
      <point x="41.0" y="263.0" type="line"/>
      <point x="41.0" y="198.0" type="line"/>
      <point x="423.0" y="316.0" type="line"/>
      <point x="423.0" y="381.0" type="line"/>
    </contour>
  </outline>
</glyph>
<glyph name="uni2120" format="1">
  <advance width="768.0"/>
  <unicode hex="2120"/>
  <outline>
    <contour>
      <point x="121.0" y="438.0" type="curve" smooth="yes"/>
      <point x="204.0" y="419.0" type="line" smooth="yes"/>
      <point x="233.0" y="413.0"/>
      <point x="244.0" y="405.0"/>
      <point x="244.0" y="378.0" type="curve"/>
      <point x="244.0" y="341.0"/>
      <point x="233.0" y="323.0"/>
      <point x="171.0" y="323.0" type="curve"/>
      <point x="117.0" y="323.0"/>
      <point x="74.0" y="332.0"/>
      <point x="49.0" y="339.0" type="curve"/>
      <point x="49.0" y="284.0" type="line"/>
      <point x="69.0" y="276.0"/>
      <point x="115.0" y="268.0"/>
      <point x="171.0" y="268.0" type="curve"/>
      <point x="286.0" y="268.0"/>
      <point x="305.0" y="318.0"/>
      <point x="305.0" y="378.0" type="curve"/>
      <point x="305.0" y="446.0"/>
      <point x="277.0" y="459.0"/>
      <point x="225.0" y="471.0" type="curve" smooth="yes"/>
      <point x="142.0" y="489.0" type="line" smooth="yes"/>
      <point x="116.0" y="496.0"/>
      <point x="108.0" y="506.0"/>
      <point x="108.0" y="527.0" type="curve"/>
      <point x="108.0" y="567.0"/>
      <point x="126.0" y="582.0"/>
      <point x="182.0" y="582.0" type="curve" smooth="yes"/>
      <point x="229.0" y="582.0"/>
      <point x="256.0" y="576.0"/>
      <point x="276.0" y="572.0" type="curve"/>
      <point x="276.0" y="625.0" type="line"/>
      <point x="258.0" y="630.0"/>
      <point x="230.0" y="635.0"/>
      <point x="183.0" y="635.0" type="curve" smooth="yes"/>
      <point x="91.0" y="635.0"/>
      <point x="49.0" y="602.29203539823"/>
      <point x="49.0" y="523.0" type="curve"/>
      <point x="49.0" y="467.0"/>
      <point x="79.10757617423903" y="447.58983196011394"/>
    </contour>
    <contour>
      <point x="710.0" y="276.0" type="line"/>
      <point x="710.0" y="627.0" type="line"/>
      <point x="635.0" y="627.0" type="line"/>
      <point x="532.0" y="420.0" type="line"/>
      <point x="429.0" y="627.0" type="line"/>
      <point x="352.0" y="627.0" type="line"/>
      <point x="352.0" y="276.0" type="line"/>
      <point x="410.0" y="276.0" type="line"/>
      <point x="410.0" y="531.0" type="line"/>
      <point x="506.0" y="345.0" type="line"/>
      <point x="556.0" y="345.0" type="line"/>
      <point x="651.0" y="531.0" type="line"/>
      <point x="651.0" y="276.0" type="line"/>
    </contour>
  </outline>
</glyph>
<glyph name="partialdiff" format="1">
  <advance width="549.0"/>
  <unicode hex="2202"/>
  <outline>
    <contour>
      <point x="426.0" y="425.0" type="curve"/>
      <point x="426.0" y="269.2067039106145"/>
      <point x="392.0" y="72.0"/>
      <point x="238.0" y="72.0" type="curve"/>
      <point x="149.0" y="72.0"/>
      <point x="110.0" y="122.04511278195488"/>
      <point x="110.0" y="200.0" type="curve" smooth="yes"/>
      <point x="110.0" y="294.09580838323353"/>
      <point x="156.0" y="362.0"/>
      <point x="263.0" y="362.0" type="curve"/>
      <point x="332.0" y="362.0"/>
      <point x="380.0" y="345.0"/>
      <point x="440.0" y="307.0" type="curve"/>
      <point x="445.0" y="382.0" type="line"/>
      <point x="382.0" y="420.0"/>
      <point x="329.0" y="434.0"/>
      <point x="253.0" y="434.0" type="curve"/>
      <point x="104.0" y="434.0"/>
      <point x="27.0" y="338.0"/>
      <point x="27.0" y="192.0" type="curve" smooth="yes"/>
      <point x="27.0" y="75.0"/>
      <point x="87.0" y="-10.0"/>
      <point x="222.0" y="-10.0" type="curve"/>
      <point x="462.0" y="-10.0"/>
      <point x="506.0" y="251.0"/>
      <point x="506.0" y="426.0" type="curve"/>
      <point x="506.0" y="613.0"/>
      <point x="438.0" y="674.0"/>
      <point x="277.0" y="674.0" type="curve"/>
      <point x="221.0" y="674.0"/>
      <point x="173.0" y="669.0"/>
      <point x="119.0" y="656.0" type="curve"/>
      <point x="119.0" y="586.0" type="line"/>
      <point x="169.0" y="599.0"/>
      <point x="217.0" y="604.0"/>
      <point x="264.0" y="604.0" type="curve"/>
      <point x="387.0" y="604.0"/>
      <point x="426.0" y="563.0"/>
    </contour>
  </outline>
</glyph>
<glyph name="product" format="1">
  <advance width="600.0"/>
  <unicode hex="220F"/>
  <outline>
    <contour>
      <point x="198.0" y="-152.0" type="line"/>
      <point x="198.0" y="566.0" type="line"/>
      <point x="113.0" y="566.0" type="line"/>
      <point x="113.0" y="-152.0" type="line"/>
    </contour>
    <contour>
      <point x="487.0" y="-152.0" type="line"/>
      <point x="487.0" y="566.0" type="line"/>
      <point x="402.0" y="566.0" type="line"/>
      <point x="402.0" y="-152.0" type="line"/>
    </contour>
    <contour>
      <point x="19.0" y="627.0" type="line"/>
      <point x="19.0" y="547.0" type="line"/>
      <point x="581.0" y="547.0" type="line"/>
      <point x="581.0" y="627.0" type="line"/>
    </contour>
  </outline>
</glyph>
<glyph name="summation" format="2">
  <advance width="523"/>
  <unicode hex="2211"/>
  <outline>
    <contour>
      <point x="20.0" y="-72.0" type="line"/>
      <point x="20.0" y="-152.0" type="line"/>
      <point x="502.0" y="-152.0" type="line"/>
      <point x="502.0" y="-72.0" type="line"/>
      <point x="132.0" y="-72.0" type="line"/>
      <point x="398.0" y="237.0" type="line"/>
      <point x="159.0" y="547.0" type="line"/>
      <point x="482.0" y="547.0" type="line"/>
      <point x="482.0" y="627.0" type="line"/>
      <point x="45.0" y="627.0" type="line"/>
      <point x="45.0" y="547.0" type="line"/>
      <point x="290.0" y="238.0" type="line"/>
    </contour>
  </outline>
</glyph>
<glyph name="minus" format="1">
  <advance width="500.0"/>
  <unicode hex="2212"/>
  <outline>
    <contour>
      <point x="463.0" y="283.0" type="line"/>
      <point x="463.0" y="361.0" type="line"/>
      <point x="37.0" y="361.0" type="line"/>
      <point x="37.0" y="283.0" type="line"/>
    </contour>
  </outline>
</glyph>
<glyph name="radical" format="1">
  <advance width="656.0"/>
  <unicode hex="221A"/>
  <outline>
    <contour>
      <point x="267.0" y="-152.0" type="line"/>
      <point x="319.0" y="-152.0" type="line"/>
      <point x="320.0" y="-75.0" type="line"/>
      <point x="169.0" y="327.0" type="line"/>
      <point x="71.0" y="327.0" type="line"/>
    </contour>
    <contour>
      <point x="359.0" y="-152.0" type="line"/>
      <point x="659.0" y="779.0" type="line"/>
      <point x="569.0" y="779.0" type="line"/>
      <point x="297.0" y="-75.0" type="line"/>
      <point x="296.0" y="-152.0" type="line"/>
    </contour>
    <contour>
      <point x="8.0" y="327.0" type="line"/>
      <point x="8.0" y="247.0" type="line"/>
      <point x="147.0" y="247.0" type="line"/>
      <point x="147.0" y="327.0" type="line"/>
    </contour>
  </outline>
</glyph>
<glyph name="infinity" format="2">
  <advance width="951"/>
  <unicode hex="221E"/>
  <outline>
    <contour>
      <point x="705.0" y="120.0" type="curve" smooth="yes"/>
      <point x="826.7821782178218" y="120.0"/>
      <point x="910.0" y="203.0"/>
      <point x="910.0" y="316.0" type="curve" smooth="yes"/>
      <point x="910.0" y="428.0"/>
      <point x="829.0" y="512.0"/>
      <point x="705.0" y="512.0" type="curve" smooth="yes"/>
      <point x="651.0" y="512.0"/>
      <point x="601.0" y="492.0"/>
      <point x="563.0" y="455.0" type="curve" smooth="yes"/>
      <point x="475.0" y="370.0" type="line"/>
      <point x="387.0" y="455.0" type="line" smooth="yes"/>
      <point x="349.0" y="492.0"/>
      <point x="299.0" y="512.0"/>
      <point x="245.0" y="512.0" type="curve" smooth="yes"/>
      <point x="123.2089552238806" y="512.0"/>
      <point x="41.0" y="428.0"/>
      <point x="41.0" y="316.0" type="curve" smooth="yes"/>
      <point x="41.0" y="204.0"/>
      <point x="121.0" y="120.0"/>
      <point x="245.0" y="120.0" type="curve" smooth="yes"/>
      <point x="299.0" y="120.0"/>
      <point x="349.0" y="139.0"/>
      <point x="387.0" y="178.0" type="curve" smooth="yes"/>
      <point x="475.0" y="262.0" type="line"/>
      <point x="563.0" y="178.0" type="line" smooth="yes"/>
      <point x="601.0" y="141.0"/>
      <point x="651.0" y="120.0"/>
    </contour>
    <contour>
      <point x="528.0" y="316.0" type="line"/>
      <point x="616.0" y="401.0" type="line" smooth="yes"/>
      <point x="640.0" y="425.0"/>
      <point x="672.0" y="437.0"/>
      <point x="705.0" y="437.0" type="curve" smooth="yes"/>
      <point x="776.0" y="437.0"/>
      <point x="827.0" y="389.0"/>
      <point x="827.0" y="316.0" type="curve" smooth="yes"/>
      <point x="827.0" y="244.0"/>
      <point x="776.0" y="196.0"/>
      <point x="705.0" y="196.0" type="curve" smooth="yes"/>
      <point x="672.0" y="196.0"/>
      <point x="640.0" y="208.0"/>
      <point x="616.0" y="230.0" type="curve" smooth="yes"/>
    </contour>
    <contour>
      <point x="334.0" y="401.0" type="curve" smooth="yes"/>
      <point x="421.0" y="316.0" type="line"/>
      <point x="334.0" y="230.0" type="line" smooth="yes"/>
      <point x="310.0" y="207.0"/>
      <point x="279.0" y="196.0"/>
      <point x="245.0" y="196.0" type="curve" smooth="yes"/>
      <point x="175.0" y="196.0"/>
      <point x="124.0" y="244.0"/>
      <point x="124.0" y="316.0" type="curve" smooth="yes"/>
      <point x="124.0" y="389.0"/>
      <point x="175.0" y="437.0"/>
      <point x="245.0" y="437.0" type="curve" smooth="yes"/>
      <point x="279.0" y="437.0"/>
      <point x="310.0" y="425.0"/>
    </contour>
  </outline>
</glyph>
<glyph name="integral" format="2">
  <advance width="467"/>
  <unicode hex="222B"/>
  <outline>
    <contour>
      <point x="240.0" y="13.0" type="curve" smooth="yes"/>
      <point x="311.0" y="605.0" type="line" smooth="yes"/>
      <point x="319.0" y="674.0"/>
      <point x="345.0" y="699.0"/>
      <point x="411.0" y="699.0" type="curve" smooth="yes"/>
      <point x="463.0" y="699.0" type="line"/>
      <point x="463.0" y="779.0" type="line"/>
      <point x="402.0" y="779.0" type="line" smooth="yes"/>
      <point x="289.0" y="779.0"/>
      <point x="241.0" y="731.0"/>
      <point x="227.0" y="614.0" type="curve" smooth="yes"/>
      <point x="156.0" y="22.0" type="line" smooth="yes"/>
      <point x="148.0" y="-47.0"/>
      <point x="122.0" y="-72.0"/>
      <point x="56.0" y="-72.0" type="curve" smooth="yes"/>
      <point x="5.0" y="-72.0" type="line"/>
      <point x="5.0" y="-152.0" type="line"/>
      <point x="66.0" y="-152.0" type="line" smooth="yes"/>
      <point x="179.0" y="-152.0"/>
      <point x="226.0" y="-103.0"/>
    </contour>
  </outline>
</glyph>
<glyph name="approxequal" format="1">
  <advance width="500.0"/>
  <unicode hex="2248"/>
  <outline>
    <contour>
      <point x="463.0" y="165.0" type="curve"/>
      <point x="463.0" y="245.0" type="line"/>
      <point x="429.0" y="214.0"/>
      <point x="397.0" y="203.0"/>
      <point x="367.0" y="203.0" type="curve" smooth="yes"/>
      <point x="285.0" y="203.0"/>
      <point x="220.0" y="287.0"/>
      <point x="133.0" y="287.0" type="curve" smooth="yes"/>
      <point x="103.0" y="287.0"/>
      <point x="70.0" y="276.0"/>
      <point x="37.0" y="247.0" type="curve"/>
      <point x="37.0" y="167.0" type="line"/>
      <point x="71.0" y="198.0"/>
      <point x="103.0" y="209.0"/>
      <point x="133.0" y="209.0" type="curve" smooth="yes"/>
      <point x="215.0" y="209.0"/>
      <point x="280.0" y="125.0"/>
      <point x="367.0" y="125.0" type="curve" smooth="yes"/>
      <point x="397.0" y="125.0"/>
      <point x="430.0" y="135.0"/>
    </contour>
    <contour>
      <point x="463.0" y="375.0" type="curve"/>
      <point x="463.0" y="455.0" type="line"/>
      <point x="429.0" y="424.0"/>
      <point x="397.0" y="413.0"/>
      <point x="367.0" y="413.0" type="curve" smooth="yes"/>
      <point x="285.0" y="413.0"/>
      <point x="220.0" y="497.0"/>
      <point x="133.0" y="497.0" type="curve" smooth="yes"/>
      <point x="103.0" y="497.0"/>
      <point x="70.0" y="486.0"/>
      <point x="37.0" y="457.0" type="curve"/>
      <point x="37.0" y="377.0" type="line"/>
      <point x="71.0" y="408.0"/>
      <point x="103.0" y="419.0"/>
      <point x="133.0" y="419.0" type="curve" smooth="yes"/>
      <point x="215.0" y="419.0"/>
      <point x="280.0" y="335.0"/>
      <point x="367.0" y="335.0" type="curve" smooth="yes"/>
      <point x="397.0" y="335.0"/>
      <point x="430.0" y="345.0"/>
    </contour>
  </outline>
</glyph>
<glyph name="notequal" format="2">
  <advance width="500"/>
  <unicode hex="2260"/>
  <outline>
    <contour>
      <point x="176.0" y="57.0" type="line"/>
      <point x="367.0" y="567.0" type="line"/>
      <point x="317.0" y="567.0" type="line"/>
      <point x="126.0" y="57.0" type="line"/>
    </contour>
    <component base="minus" yOffset="-115"/>
    <component base="minus" yOffset="95"/>
  </outline>
</glyph>
<glyph name="lessequal" format="2">
  <advance width="500"/>
  <unicode hex="2264"/>
  <outline>
    <contour>
      <point x="463.0" y="518.0" type="line"/>
      <point x="463.0" y="606.0" type="line"/>
      <point x="37.0" y="299.0" type="line"/>
      <point x="81.0" y="248.0" type="line"/>
    </contour>
    <contour>
      <point x="463.0" y="227.0" type="line"/>
      <point x="463.0" y="299.0" type="line"/>
      <point x="37.0" y="299.0" type="line"/>
      <point x="37.0" y="227.0" type="line"/>
    </contour>
    <component base="minus" yOffset="-222"/>
  </outline>
</glyph>
<glyph name="lozenge" format="2">
  <advance width="593"/>
  <unicode hex="25CA"/>
  <guideline x="68" y="197" angle="35.995220874722705" identifier="iVQ7GtSjj4"/>
  <outline>
    <contour>
      <point x="299.0" y="-57.0" type="line"/>
      <point x="106.0" y="319.0" type="line"/>
      <point x="295.0" y="698.0" type="line"/>
      <point x="488.0" y="313.0" type="line"/>
    </contour>
    <contour>
      <point x="260.0" y="-152.0" type="line"/>
      <point x="334.0" y="-152.0" type="line"/>
      <point x="578.0" y="315.0" type="line"/>
      <point x="335.0" y="788.0" type="line"/>
      <point x="258.0" y="788.0" type="line"/>
      <point x="15.0" y="315.0" type="line"/>
    </contour>
  </outline>
</glyph>
<glyph name="acute.uc" format="2">
  <advance width="307"/>
  <guideline x="135" y="559" angle="90" name="mid" identifier="XXts8B29dk"/>
  <anchor x="121.0" y="530.0" name="_top"/>
  <outline>
    <contour>
      <point x="255.0" y="676.0" type="line"/>
      <point x="151.0" y="676.0" type="line"/>
      <point x="50.0" y="564.0" type="line"/>
      <point x="126.0" y="564.0" type="line"/>
    </contour>
  </outline>
</glyph>
<glyph name="breve.uc" format="2">
  <advance width="381"/>
  <anchor x="191.0" y="530.0" name="_top"/>
  <outline>
    <contour>
      <point x="331.0" y="676.0" type="curve"/>
      <point x="273.0" y="676.0" type="line"/>
      <point x="273.0" y="638.0"/>
      <point x="243.0" y="612.0"/>
      <point x="191.0" y="612.0" type="curve" smooth="yes"/>
      <point x="137.0" y="612.0"/>
      <point x="108.0" y="638.0"/>
      <point x="108.0" y="676.0" type="curve"/>
      <point x="50.0" y="676.0" type="line"/>
      <point x="50.0" y="606.0"/>
      <point x="100.0" y="557.0"/>
      <point x="191.0" y="557.0" type="curve" smooth="yes"/>
      <point x="281.0" y="557.0"/>
      <point x="331.0" y="605.0"/>
    </contour>
  </outline>
</glyph>
<glyph name="caron.alt" format="1">
  <advance width="332.0"/>
  <outline>
    <contour>
      <point x="104.0" y="528.0" type="curve" smooth="yes"/>
      <point x="124.0" y="665.0" type="line"/>
      <point x="42.0" y="665.0" type="line"/>
      <point x="38.0" y="493.0" type="line"/>
      <point x="63.0" y="493.0" type="line" smooth="yes"/>
      <point x="86.0" y="493.0"/>
      <point x="101.0" y="507.0"/>
    </contour>
    <contour>
      <point x="42.0" y="665.0" type="move" name="_caronalt"/>
    </contour>
  </outline>
</glyph>
<glyph name="circumflex.uc" format="2">
  <advance width="423"/>
  <anchor x="211.0" y="530.0" name="_top"/>
  <outline>
    <contour>
      <point x="299.0" y="564.0" type="line"/>
      <point x="373.0" y="564.0" type="line"/>
      <point x="254.0" y="676.0" type="line"/>
      <point x="169.0" y="676.0" type="line"/>
      <point x="50.0" y="564.0" type="line"/>
      <point x="125.0" y="564.0" type="line"/>
      <point x="211.0" y="627.0" type="line"/>
    </contour>
  </outline>
</glyph>
<glyph name="dieresis.uc" format="2">
  <advance width="360"/>
  <guideline x="148" y="581" angle="90" name="mid" identifier="viYEugHgZu"/>
  <anchor x="180.0" y="530.0" name="_top"/>
  <outline>
    <contour>
      <point x="310.0" y="564.0" type="line"/>
      <point x="310.0" y="636.0" type="line"/>
      <point x="228.0" y="636.0" type="line"/>
      <point x="228.0" y="564.0" type="line"/>
    </contour>
    <contour>
      <point x="133.0" y="564.0" type="line"/>
      <point x="133.0" y="636.0" type="line"/>
      <point x="50.0" y="636.0" type="line"/>
      <point x="50.0" y="564.0" type="line"/>
    </contour>
  </outline>
</glyph>
<glyph name="dotaccent.uc" format="2">
  <advance width="200"/>
  <guideline x="119" y="586" angle="90" name="mid" identifier="nVoOvRgT3N"/>
  <anchor x="101.0" y="530.0" name="_top"/>
  <outline>
    <contour>
      <point x="60.0" y="564.0" type="line"/>
      <point x="140.0" y="564.0" type="line"/>
      <point x="140.0" y="636.0" type="line"/>
      <point x="60.0" y="636.0" type="line"/>
    </contour>
  </outline>
</glyph>
<glyph name="f.alt" format="2">
  <advance width="321"/>
  <outline>
    <contour>
      <point x="320.0" y="667.0" type="line"/>
      <point x="306.0" y="670.0"/>
      <point x="283.0" y="675.0"/>
      <point x="248.0" y="675.0" type="curve"/>
      <point x="141.0" y="675.0"/>
      <point x="95.0" y="616.0"/>
      <point x="95.0" y="506.0" type="curve"/>
      <point x="95.0" y="0.0" type="line"/>
      <point x="177.0" y="0.0" type="line"/>
      <point x="177.0" y="508.0" type="line"/>
      <point x="177.0" y="575.0"/>
      <point x="196.0" y="603.0"/>
      <point x="263.0" y="603.0" type="curve"/>
      <point x="286.0" y="603.0"/>
      <point x="308.0" y="600.0"/>
      <point x="320.0" y="597.0" type="curve"/>
    </contour>
    <contour>
      <point x="21.0" y="424.0" type="line"/>
      <point x="305.0" y="424.0" type="line"/>
      <point x="305.0" y="494.0" type="line"/>
      <point x="21.0" y="494.0" type="line"/>
    </contour>
  </outline>
</glyph>
<glyph name="five.tf" format="2">
  <advance width="500"/>
  <outline>
    <contour>
      <point x="238.0" y="-8.0" type="curve"/>
      <point x="382.0" y="-8.0"/>
      <point x="456.0" y="53.0"/>
      <point x="456.0" y="185.0" type="curve" smooth="yes"/>
      <point x="456.0" y="328.0"/>
      <point x="369.0" y="363.0"/>
      <point x="254.0" y="363.0" type="curve" smooth="yes"/>
      <point x="219.0" y="363.0"/>
      <point x="186.0" y="360.0"/>
      <point x="165.0" y="357.0" type="curve"/>
      <point x="165.0" y="551.0" type="line"/>
      <point x="412.0" y="551.0" type="line"/>
      <point x="412.0" y="628.0" type="line"/>
      <point x="80.0" y="628.0" type="line"/>
      <point x="80.0" y="279.0" type="line"/>
      <point x="126.0" y="287.0"/>
      <point x="164.0" y="290.0"/>
      <point x="213.0" y="291.0" type="curve" smooth="yes"/>
      <point x="314.0" y="291.0"/>
      <point x="371.0" y="273.1698113207547"/>
      <point x="371.0" y="186.0" type="curve" smooth="yes"/>
      <point x="371.0" y="103.0"/>
      <point x="326.0" y="72.0"/>
      <point x="217.0" y="72.0" type="curve"/>
      <point x="148.0" y="72.0"/>
      <point x="94.0" y="78.0"/>
      <point x="49.0" y="88.0" type="curve"/>
      <point x="49.0" y="12.0" type="line"/>
      <point x="87.0" y="-1.0"/>
      <point x="154.0" y="-8.0"/>
    </contour>
  </outline>
</glyph>
<glyph name="four.osf" format="2">
  <advance width="528"/>
  <guideline x="118" y="219" angle="353.741" identifier="auk8dmDokm"/>
  <outline>
    <contour>
      <point x="501.0" y="20.0" type="line"/>
      <point x="501.0" y="94.0" type="line"/>
      <point x="415.0" y="94.0" type="line"/>
      <point x="415.0" y="381.0" type="line"/>
      <point x="330.0" y="381.0" type="line"/>
      <point x="330.0" y="94.0" type="line"/>
      <point x="129.0" y="94.0" type="line"/>
      <point x="201.0" y="494.0" type="line"/>
      <point x="119.0" y="494.0" type="line"/>
      <point x="43.0" y="94.0" type="line"/>
      <point x="43.0" y="20.0" type="line"/>
      <point x="330.0" y="20.0" type="line"/>
      <point x="330.0" y="-152.0" type="line"/>
      <point x="415.0" y="-152.0" type="line"/>
      <point x="415.0" y="20.0" type="line"/>
    </contour>
  </outline>
</glyph>
<glyph name="four.tf" format="2">
  <advance width="500"/>
  <guideline x="118" y="219" angle="353.741" identifier="GsrFsTzDvs"/>
  <outline>
    <contour>
      <point x="474.0" y="166.0" type="line"/>
      <point x="474.0" y="240.0" type="line"/>
      <point x="393.0" y="240.0" type="line"/>
      <point x="393.0" y="518.0" type="line"/>
      <point x="308.0" y="518.0" type="line"/>
      <point x="308.0" y="240.0" type="line"/>
      <point x="121.0" y="240.0" type="line"/>
      <point x="189.0" y="628.0" type="line"/>
      <point x="108.0" y="628.0" type="line"/>
      <point x="35.0" y="240.0" type="line"/>
      <point x="35.0" y="166.0" type="line"/>
      <point x="308.0" y="166.0" type="line"/>
      <point x="308.0" y="0.0" type="line"/>
      <point x="393.0" y="0.0" type="line"/>
      <point x="393.0" y="166.0" type="line"/>
    </contour>
  </outline>
</glyph>
<glyph name="grave.uc" format="2">
  <advance width="307"/>
  <guideline x="152" y="549" angle="90" name="mid" identifier="7OIi1CLXy3"/>
  <anchor x="186.0" y="530.0" name="_top"/>
  <outline>
    <contour>
      <point x="52.0" y="676.0" type="line"/>
      <point x="181.0" y="564.0" type="line"/>
      <point x="257.0" y="564.0" type="line"/>
      <point x="156.0" y="676.0" type="line"/>
    </contour>
  </outline>
</glyph>
<glyph name="hungarumlaut.uc" format="2">
  <advance width="486"/>
  <guideline x="247" y="634" angle="90" name="mid" identifier="CjZoWIQn0p"/>
  <anchor x="210.0" y="530.0" name="_top"/>
  <outline>
    <contour>
      <point x="251.0" y="676.0" type="line"/>
      <point x="155.0" y="676.0" type="line"/>
      <point x="55.0" y="564.0" type="line"/>
      <point x="127.0" y="564.0" type="line"/>
    </contour>
    <contour>
      <point x="428.0" y="676.0" type="line"/>
      <point x="333.0" y="676.0" type="line"/>
      <point x="232.0" y="564.0" type="line"/>
      <point x="305.0" y="564.0" type="line"/>
    </contour>
  </outline>
</glyph>
<glyph name="macron.uc" format="2">
  <advance width="345"/>
  <guideline x="177" y="575" angle="90" name="mid" identifier="bnDpPtB0fF"/>
  <anchor x="173.0" y="530.0" name="_top"/>
  <outline>
    <contour>
      <point x="295.0" y="569.0" type="line"/>
      <point x="295.0" y="628.0" type="line"/>
      <point x="50.0" y="628.0" type="line"/>
      <point x="50.0" y="569.0" type="line"/>
    </contour>
  </outline>
</glyph>
<glyph name="nine.osf" format="2">
  <advance width="507"/>
  <outline>
    <contour>
      <point x="462.0" y="190.0" type="curve"/>
      <point x="462.0" y="427.0"/>
      <point x="404.0" y="504.0"/>
      <point x="246.0" y="504.0" type="curve"/>
      <point x="111.0" y="504.0"/>
      <point x="31.0" y="424.0"/>
      <point x="31.0" y="285.0" type="curve"/>
      <point x="31.0" y="145.0"/>
      <point x="92.0" y="86.0"/>
      <point x="208.0" y="86.0" type="curve"/>
      <point x="287.0" y="86.0"/>
      <point x="343.0" y="110.0"/>
      <point x="388.0" y="142.0" type="curve"/>
      <point x="388.0" y="209.0" type="line"/>
      <point x="349.0" y="181.0"/>
      <point x="300.0" y="158.0"/>
      <point x="238.0" y="158.0" type="curve"/>
      <point x="150.0" y="158.0"/>
      <point x="114.0" y="189.0"/>
      <point x="114.0" y="289.0" type="curve"/>
      <point x="114.0" y="377.7142857142857"/>
      <point x="159.0" y="427.0"/>
      <point x="246.0" y="427.0" type="curve"/>
      <point x="347.0" y="427.0"/>
      <point x="377.0" y="373.4655172413793"/>
      <point x="377.0" y="197.0" type="curve"/>
      <point x="377.0" y="-7.312056737588648"/>
      <point x="337.0" y="-80.0"/>
      <point x="187.0" y="-80.0" type="curve"/>
      <point x="145.0" y="-80.0"/>
      <point x="115.15106285732554" y="-77.02265942859884"/>
      <point x="95.0" y="-74.0" type="curve"/>
      <point x="95.0" y="-152.0" type="line"/>
      <point x="112.0" y="-156.0"/>
      <point x="152.0" y="-160.0"/>
      <point x="187.0" y="-160.0" type="curve"/>
      <point x="388.0" y="-160.0"/>
      <point x="462.0" y="-51.0"/>
    </contour>
  </outline>
</glyph>
